<?xml version="1.0" encoding="UTF-8" standalone="no"?>
<svg
   xmlns:dc="http://purl.org/dc/elements/1.1/"
   xmlns:cc="http://creativecommons.org/ns#"
   xmlns:rdf="http://www.w3.org/1999/02/22-rdf-syntax-ns#"
   xmlns:svg="http://www.w3.org/2000/svg"
   xmlns="http://www.w3.org/2000/svg"
   version="1.1"
   id="svg2"
   height="2200"
   width="1558">
  <metadata
     id="metadata54">
    <rdf:RDF>
      <cc:Work
         rdf:about="">
        <dc:format>image/svg+xml</dc:format>
        <dc:type
           rdf:resource="http://purl.org/dc/dcmitype/StillImage" />
        <dc:title></dc:title>
      </cc:Work>
    </rdf:RDF>
  </metadata>
  <defs
     id="defs52" />
  <path
     id="path6"
     d="M662 218C658.955 217.76 655.257 216.555 652.289 217.579C642.48 220.962 636.994 233.573 640.044 243C642.499 250.589 650.101 256.619 651.722 264.089C652.492 267.638 651.726 271.408 652.129 275C652.512 278.412 654.039 281.507 653.927 285C653.83 288.067 652.256 290.931 652.458 294C652.8 299.182 655.245 306.045 657 311C653.053 312.386 649.247 316.123 655 318C656.33 316.248 657.248 315.33 659 314C658.423 322.618 650.083 333.206 642 336C642 348.843 637.335 358.531 630.164 368.996C626.587 374.217 622.75 379.782 616.996 382.723C608.225 387.206 592.9 386.068 587.148 395.094C584.459 399.315 585.314 404.324 584.255 409C580.903 423.8 580.671 438.978 579.169 454C578.373 461.965 577.672 470.963 573.367 477.961C565.756 490.331 552.739 499.245 542.575 509.3C518.662 532.957 494.049 558.798 479.875 589.576C477.063 595.681 471.485 600.615 469.539 607C466.842 615.852 463.093 624.284 460.329 633C457.716 641.243 456.276 649.813 453.305 658C451.011 664.321 446.915 669.94 444.684 676.17C443.045 680.748 442.908 686.217 442 691C441.275 694.818 442.18 698.286 441.742 702C441.005 708.233 436.114 714.835 441.434 720.656C447.04 726.791 457.852 723.307 465 723C461.887 717.259 458.332 710.345 464.56 704.603C469.369 700.171 476.946 703.358 476.941 693.999C476.936 684.212 472.469 673.589 474.274 664C476.62 651.533 481.231 638.83 485.768 627C487.359 622.854 488.241 618.066 490.418 614.185C491.941 611.471 494.921 610.237 496.529 607.621C501.514 599.513 504.738 590.274 509.958 582.246C513.66 576.551 518.259 571.446 522.165 565.911C529.418 555.634 534.577 544.255 542.542 534.424C547.988 527.702 555.066 523.223 561.156 517.255C569.408 509.166 576.41 499.63 584.246 491.093C587.841 487.176 592.989 484.618 595.726 479.985C602.557 468.424 604.384 454.162 604.961 441C605.241 434.606 604.505 428.278 606 422C611.847 426.185 615.586 423.648 620.714 419.424C627.545 413.797 632.346 406.05 641.015 402.772C646.909 400.543 651.617 407.014 657 407.664C661.505 408.207 665.724 403.273 670 402C668.881 409.018 662.009 407.886 657.184 411.789C651.294 416.555 646.483 425.481 646 433C642.417 434.047 642.311 436.829 640.667 439.94C638.289 444.437 634.885 449.066 633.463 453.995C632.583 457.045 633.827 460.178 637.139 460.796C645.321 462.323 649.694 450.057 656 447C657.149 439.429 662 431.485 664.312 424C665.279 420.871 664.535 416.928 667.318 414.604C671.595 411.032 674.964 415.817 679.039 416.648C681.172 417.083 683.691 416.118 685.682 417.198C687.128 417.981 687.622 419.478 687.762 421.02C688.382 427.822 683.924 432.835 682.339 439.004C681.469 442.39 681.126 447.019 677.66 448.929C674.402 450.724 669.772 448.108 666.093 448.994C659.877 450.49 656.98 458.842 654.885 464.17C649.853 476.968 650.189 489.726 648.424 503C647.796 507.729 648.416 514.582 645.567 518.641C643.443 521.669 640.002 520.845 636.999 522.199C633.761 523.66 630.585 526.485 628.213 529.089C622.428 535.44 623.401 544.558 617.532 550.79C611.79 556.886 603.597 559.583 597.015 564.379C586.567 571.991 575.403 578.882 565.093 586.77C561.783 589.303 559.372 592.755 555.96 595.179C546.331 602.018 536.263 608.325 526.576 615.096C521.811 618.427 517.736 618.472 517 625C523.477 625.819 528.847 627.342 535 629C539.286 623.738 545.85 621.373 550 616C545.725 617.002 542.112 619.474 538 621C545.145 613.196 555.401 608.692 563.961 602.642C581.485 590.256 598.5 578.134 617.576 568.211C628.082 562.746 636.704 554.112 648 550C648.553 554.377 648.997 558.578 649 563C640.058 565.02 628.589 569.195 621.299 574.898C618.716 576.918 617.69 580.391 615.518 582.816C611.634 587.149 606.393 591.366 601.911 595.112C597.234 599.021 592.506 602.946 587.714 606.714C584.969 608.873 581.929 610.054 580 613C586.336 611.802 591.124 609.419 596.999 606.951C604.285 603.889 611.664 601.531 617.75 596.254C624.297 590.577 630.789 584.908 637.576 579.499C640.831 576.905 644.615 573.344 648.956 572.857C652.877 572.417 653.536 575.948 655.041 578.715C658.015 584.183 661.336 589.473 664.244 594.995C666.072 598.467 668.319 602.246 672.856 600.137C676.311 598.531 676.022 595.009 674.739 591.999C671.883 585.3 668.251 578.848 665.758 572C664.679 569.036 662.873 563.02 668.019 562.737C672.305 562.502 674.208 568.136 676.111 571.004C681.129 578.564 685.046 585.716 694 589C695.478 582.88 691.22 580.138 688.848 574.961C686.133 569.034 685.431 562.142 683 556L700 546C696.387 544.498 691.629 546.94 688.434 544.933C687.406 544.287 686.688 543.118 686.438 541.941C685.705 538.504 686.282 534.429 690.109 533.317C692.083 532.743 696.585 533.576 697.079 530.697C697.607 527.625 692.57 523.497 691 521C707.199 517.143 722.822 526.955 739 527C735.733 520.994 728.199 519.926 722 518.738C712.589 516.936 703.711 513.418 694 513C694.134 507.285 696.014 502.156 697.563 496.714C702.137 480.655 709.027 466.646 716.316 451.845C719.475 445.43 719.408 436.643 725 432C725.482 438.092 727.475 443.194 729.073 449C732.114 460.047 735.147 471.078 738.641 482C740.513 487.852 740.465 494.15 742.406 500C745.612 509.661 751.332 520.809 752 531L740 530C742.539 536.476 749.954 534.327 753.892 539.279C760.072 547.049 762.752 559.599 766.454 568.714C768.165 572.927 771.88 576.406 772.661 581C773.66 586.87 771.408 594.202 770.435 600C767.82 615.59 764.684 631.224 759.035 646.004C756.004 653.932 750.729 659.087 750 668L760 669C761.748 657.119 770.435 647.143 771 635L776 636C774.966 639.68 774.167 643.172 774 647C769.428 648.57 768.715 652.8 767.269 657.015C764.88 663.975 757.105 679.182 770.941 676.852C776.493 675.917 776.937 661.841 778.436 657C784.517 637.36 796.734 620.5 803 601C806.848 614.392 797.294 630.273 791.87 642C789.736 646.613 784.444 655.378 786.644 660.697C788.323 664.755 795.496 663.99 799 664C799.002 662.022 798.87 659.961 799.133 657.995C799.312 656.664 799.579 655.213 800.318 654.059C806.712 644.074 810.579 660.179 815.043 663.486C817.094 665.005 821.926 667.148 823.343 663.678C824.214 661.543 822.872 659.126 822.625 657C822.074 652.248 821.491 643.587 822.584 639C824.703 630.106 826.09 620.801 828.77 612C833.651 595.968 840.946 580.605 847 565C850.399 576.523 844.474 590.257 841.441 601.286C838.38 612.419 837.431 623.877 834.521 634.999C832.476 642.815 828.401 649.868 827.135 658C825.992 665.341 824.176 672.64 823.286 680C822.996 682.405 822.412 686.235 824.603 687.972C826.683 689.621 830.528 688.998 833 689C831.535 677.409 834.331 662.291 838.133 651.089C838.994 648.552 840.808 646.526 841.61 643.961C846.368 628.746 850.922 613.307 855.62 598C859.186 586.379 858.898 573.604 862.518 562.039C864.096 556.995 865.445 550.92 867.474 546.093C868.474 543.714 870.567 542.06 871.526 539.675C872.97 536.084 872.969 531.807 873 528C876.495 532.622 876.821 537.485 878.015 543C880.059 552.447 881.016 561.32 881 571C880.988 578.356 879.076 584.956 878.125 592.089C875.286 613.388 870.207 634.875 862.381 654.999C857.475 667.616 851.083 680.08 847 693C845.241 687.037 847.193 681.895 848.399 676C850.896 663.789 855.352 651.422 856.039 638.999C856.365 633.119 861.324 623.944 854 621C847.27 631.251 846.316 642.439 843.391 654C836.115 682.759 832.722 712.571 829 742C823.653 739.098 820.915 732.984 814.961 731.174C811.536 730.133 808.068 729.861 807.228 734.059C806.908 735.66 807.009 737.375 807.001 738.998L807 746C799.834 744.839 796.696 748.91 796.094 756C795.347 764.798 798.637 772.36 802.576 780C807.531 789.607 814.623 798.939 818.454 809C821.359 816.63 820.915 826.114 825.34 832.981C828.268 837.523 831.702 836.687 835.726 839.177C838.5 840.894 841.036 845.28 842.599 848.089C846.267 854.685 850.395 862.764 852.587 870C853.567 873.233 852.619 876.795 854.568 879.71C860.392 888.418 867.73 882.322 868 874C877.896 874.678 887.09 886.15 892 894L890 894C894.142 902.175 904.314 905.515 912 909.514C918.101 912.688 923.499 917.468 929 921.565C933.793 925.134 938.554 927.902 941.945 933C948.344 942.62 950.33 954.605 954.871 965.015C957.11 970.147 956.914 976.096 963 978C963.572 975.623 963.891 973.442 964 971C970.127 976.509 970.565 984.323 971.576 992C974.363 1013.17 967.966 1035.48 961.054 1055.17C958.997 1061.03 957.803 1067.09 955.988 1073C955.377 1074.99 954.895 1077.86 953.262 1079.31C951.577 1080.8 949.019 1080.24 946.999 1080C941.939 1079.39 937.104 1079 932 1079C937.008 1063.54 953.521 1053.97 955 1037C946.325 1035.61 943.033 1042.16 939.073 1048.83C935.394 1055.03 930.805 1060.65 927.429 1067C924.184 1073.11 922.163 1079.28 917.957 1084.96C912.913 1091.77 906.224 1094.72 906 1104C915.389 1099.44 921.677 1088.14 932.001 1084.59C937.005 1082.87 942.911 1084.6 948 1085C943.451 1094.2 934.955 1100.97 928.553 1108.83C925.272 1112.86 923.303 1118.08 919.485 1121.68C916.229 1124.75 910.698 1122.91 908.023 1126.57C904.904 1130.85 904.165 1138.08 902.272 1143C900.74 1146.98 897.588 1150 896.133 1154C893.69 1160.71 893.272 1168.11 891.395 1175C888.491 1185.66 881.905 1195.21 879.537 1206C878.693 1209.85 880.85 1213.1 880.415 1216.83C879.527 1224.43 876.791 1232.41 875.375 1240C874.639 1243.95 875.142 1248.02 874.572 1252C872.424 1266.99 870.903 1280.78 871.001 1296C871.046 1303.08 872.497 1313.19 878 1318C878 1305.88 875.509 1294.12 876.039 1282C876.857 1263.33 880.551 1245.31 884 1227C885.429 1231.85 884.255 1236.07 884.039 1241C883.601 1251 883 1260.98 883 1271C883 1288.88 881.868 1307.17 883.089 1325C883.889 1336.67 886.471 1348.41 887 1360C881.135 1360.98 881.675 1365.65 885.189 1369.57C899.891 1386 907.756 1405.16 910.791 1427C912.846 1441.79 911 1458.07 911 1473C912.271 1470.17 912.608 1467.08 913 1464C914.186 1465.04 914.604 1465.34 916 1466L917 1435C920.818 1438.72 921.16 1444.88 922.199 1450C924.045 1459.08 925.413 1467.69 924.96 1477C924.696 1482.44 923.018 1487.48 923 1493C922.943 1510.85 918.337 1528.7 911.33 1545C909.56 1549.12 908.478 1554.15 905.915 1557.85C903.289 1561.65 898.092 1560.92 895.8 1565.19C889.809 1576.35 887.658 1590.85 884.299 1602.96C881.941 1611.46 879.759 1620.66 876.76 1629C875.184 1633.38 872.424 1637.45 871.387 1642C869.242 1651.4 870 1661.43 870 1671L875 1671C875 1674.87 875.958 1680.33 873.973 1683.81C871.472 1688.2 865.769 1690.63 862.8 1695C861.044 1697.59 860.735 1702.34 858.4 1704.29C854.472 1707.57 848.8 1701.92 846.473 1709.09C846.181 1709.99 846.264 1711.08 846.345 1712C847.393 1723.99 858.689 1729.92 865.87 1738C879.76 1753.63 885.266 1770.72 878.065 1790.91C874.434 1801.09 865.404 1813.67 854 1815.74C847.344 1816.94 841.46 1814.78 835 1814.1C828.257 1813.39 816.386 1813.62 814 1806C789.894 1798.25 764.376 1795.08 739 1793.96C729.333 1793.53 718.828 1791.51 709.17 1793.26C687.194 1797.24 667.128 1805.43 647 1815C648.642 1806.66 655.353 1799.27 659.099 1791.72C662.858 1784.14 665.329 1776.19 669.951 1769C674.256 1762.31 680.149 1755.9 682 1748C684.992 1748.61 687.918 1749.83 691 1749.91C701.067 1750.15 711.479 1744.23 720 1739.48C736.066 1730.54 750.078 1719 765.17 1708.59C781.251 1697.5 799.418 1689.4 816 1679C814.948 1675.21 811.448 1672.02 811.277 1668.04C811.172 1665.61 812.536 1663.29 812.886 1660.91C813.559 1656.33 813.516 1651.51 814.598 1647C816.19 1640.37 818.958 1633.76 819.886 1627C821.965 1611.84 819.454 1596.34 820.018 1581C820.326 1572.67 822.994 1564.56 823 1556C818.985 1556.4 814.854 1557.52 811.279 1554.92C808.283 1552.74 808.353 1549.31 807.806 1546C806.54 1538.35 805.381 1530.8 805.039 1523C804.584 1512.59 805.24 1502.35 803.56 1492C802.289 1484.16 799.048 1476.68 797.174 1469C796.04 1464.35 796.207 1459.51 794.536 1455C793.129 1451.2 791.883 1446.67 789.877 1443.17C788.232 1440.3 785.865 1438.09 784.518 1435C783.135 1431.82 783.531 1428.13 781.988 1425.09C780.134 1421.43 776.767 1419.38 776.232 1415C775.298 1407.34 779.833 1398.83 780 1391L777 1391C778.209 1385.66 781.272 1381.09 783.194 1376C787.175 1365.44 790.582 1354.68 793.87 1344C795.441 1338.9 795.573 1333.27 796.282 1328C797.269 1320.68 799.283 1313.37 799.816 1306C800.172 1301.07 799.003 1295.98 799 1291C800.316 1291.07 801.726 1291.01 803.005 1291.42C813.534 1294.83 802.168 1305.05 802 1312C809.157 1313.53 815.638 1317.01 823 1318C822.454 1324.86 819.8 1330.69 817.245 1337C815.93 1340.25 813.903 1343.35 814.258 1347C814.57 1350.21 816.353 1353.16 819.104 1354.84C821.328 1356.2 825.283 1356.51 824.38 1360.06C822.15 1368.82 813.226 1377.28 808.615 1384.91C806.837 1387.85 803.042 1392.07 805.071 1395.72C806.947 1399.1 813.559 1400.33 817 1401.28C819.959 1402.09 822.959 1402 826 1402C824.817 1406.91 819.5 1411.2 819.377 1416C819.223 1421.96 826.717 1421.42 828.227 1426.19C830.113 1432.14 822.353 1446.21 832.039 1447.85C833.964 1448.18 836.056 1448 838 1448C839.382 1445.58 840.363 1444.94 843 1444C840.047 1452.86 838.006 1462.28 834.816 1471C831.841 1479.13 828.074 1486.13 828 1495C832.071 1496.08 839.543 1499.02 843.397 1495.97C845.915 1493.98 845.275 1487.94 846.004 1485C847.122 1480.5 848.936 1476.34 850.171 1471.91C851.718 1466.36 852.023 1460.42 856 1456C855.514 1463.65 853.283 1471.38 852.134 1479C850.209 1491.76 848.972 1505.11 848.089 1518C847.362 1528.63 848.427 1539.36 847.961 1550C847.383 1563.2 845.693 1576.11 844.129 1589.09C842.258 1604.62 842.306 1620.42 840.282 1636C838.358 1650.81 837 1665.03 837 1680C837 1684.56 835.617 1693 840.39 1695.78C844.841 1698.37 845.935 1693.17 845.995 1690C846.186 1679.97 846.725 1669.98 846.985 1660C847.423 1643.25 852.977 1626.57 855.561 1610C859.153 1586.96 860.806 1562.43 861 1539L864 1539C864.167 1531.87 867.765 1525.91 868.791 1519C869.618 1513.44 869.278 1507.61 870.259 1502.09C872.205 1491.15 875.033 1480.04 877.245 1469.09C878.935 1460.72 883.186 1451.76 881.851 1443C880.538 1434.4 871.429 1434.89 866.357 1430.27C864.044 1428.17 865.246 1424.92 863.358 1422.64C857.984 1416.14 846.275 1411.51 845 1423C833.925 1419.02 845.769 1407.34 844.812 1399.04C844.093 1392.8 834.367 1388.44 829 1387C832.858 1376.48 843.837 1367.86 846 1357C842.788 1354.95 833.828 1351.75 832.867 1347.88C832.387 1345.94 833.89 1343.64 834.58 1341.91C837.211 1335.33 847.075 1322.73 839.682 1316.04C837.325 1313.91 834.178 1312.52 831.424 1310.98C828.603 1309.4 826.206 1308.4 823 1308C823.14 1302.19 825.563 1299.65 828.68 1295C833.664 1287.57 839.28 1280.67 843.929 1273.05C845.16 1271.04 847.878 1269.17 848.338 1266.78C849.505 1260.72 836.054 1261.09 836.765 1254.91C837.295 1250.31 845.227 1243.98 849 1242C847.849 1231.97 832.671 1224.48 824.044 1229.92C820.6 1232.1 819.378 1235.71 817.169 1238.91C812.773 1245.28 807.927 1251.77 805 1259C802.349 1250.03 804.196 1239.94 805.83 1231C807.27 1223.12 807.725 1215.59 810.525 1208C812 1204.01 811.216 1198.48 814.318 1195.31C816.956 1192.62 821.6 1191.78 825 1190.38C831.662 1187.63 838.784 1184.4 844.985 1180.74C847.588 1179.2 849.577 1176.88 852.17 1175.34C856.503 1172.76 862.179 1171.07 865.258 1166.79C868.478 1162.31 866.456 1156.62 870.344 1152.09C875.688 1145.86 884.339 1143.04 888.755 1135.91C895.604 1124.84 898.542 1110.21 902.864 1098C915.664 1061.84 927.26 1021.26 911.142 984C905.139 970.122 893.312 957.008 883.296 945.911C872.5 933.95 861.638 923.315 846 917.799C834.489 913.74 822.004 915 810 915C808.453 909.902 804.783 910.017 800 910C800.958 916.077 806.961 920.275 813 920.891C819.614 921.566 826.292 919.554 833 920.093C845.079 921.065 856.115 927.254 865 935.174C871.66 941.109 880.165 948.748 883.925 957C886.263 962.131 886.459 968.484 887.272 974C888.502 982.351 890.041 990.646 891.272 999C893.965 1017.28 898.819 1036.4 896.826 1055C895.884 1063.79 892.39 1073.71 889.491 1082C885.237 1094.16 886.431 1109.9 875 1118C875 1113.48 875.983 1108.65 871 1107C864.669 1118.02 856.518 1127.95 850.273 1139C847.492 1143.92 848.339 1149.13 854 1151L854 1154C849.14 1155.39 846.992 1159.42 842.985 1162.25C836.342 1166.93 826.923 1172.16 819 1174C819.1 1165.07 825.768 1158.64 827 1150C816.113 1153.08 817.194 1164.99 812.012 1172.74C809.12 1177.06 803.368 1177.47 801.565 1183C799.235 1190.16 805.556 1197.39 804.942 1205C804.572 1209.58 801.599 1213.57 800.417 1218C798.368 1225.68 797.828 1233.16 796.87 1240.96C796.249 1246.02 793.933 1250.79 793.285 1256C791.272 1272.17 790.405 1289.11 786.664 1305C777.622 1343.4 762.308 1379.63 747.375 1416C741.371 1430.62 735.981 1445.49 729.661 1460C726.703 1466.79 724.049 1474.47 720.265 1480.83C715.524 1488.8 709.6 1496.41 706 1505C705.19 1502.27 705.021 1499.85 705 1497C696.024 1498.49 695.703 1516.69 692.791 1523.96C690.87 1528.76 687.621 1533.34 683.982 1536.96C681.829 1539.1 678.323 1541.17 677.161 1544.09C675.683 1547.8 679.682 1553.35 683.753 1552.4C685.902 1551.89 687.825 1550.56 690 1550C689.946 1556.52 689.946 1564.29 685 1569C684.999 1567.67 685.06 1566.3 684.981 1564.97C684.281 1553.27 675.316 1563.25 670.039 1564.57C666.81 1565.39 661.676 1560.79 659.082 1564.6C657.094 1567.52 661.024 1573.14 662 1576L655 1576C655.727 1580.82 659.716 1584.77 658.536 1589.83C656.376 1599.08 650.489 1606.14 644.459 1613.09C636.666 1622.07 628.794 1630.29 619.711 1638.02C614.06 1642.83 605.715 1649.27 598 1649L599 1652C593.653 1653.83 588.903 1657.33 583.83 1659.83C581.727 1660.87 578.378 1661.48 577.086 1663.65C575.787 1665.83 577.582 1667.87 579.11 1669.29C582.34 1672.3 587.67 1677.3 592.089 1678.29C599.154 1679.87 602.744 1670.46 609.004 1669.74C613.926 1669.18 618.434 1675.45 623 1677L623 1680C617.778 1682.55 610.976 1690.42 609.062 1696C607.566 1700.36 609.137 1703.78 606.27 1708C601.689 1714.75 591.966 1722.82 592.281 1731.89C592.481 1737.67 602.493 1738.33 604.883 1743.14C606.509 1746.42 603.78 1749.45 601.802 1751.83C596.673 1758.01 591.687 1764.99 584 1768L584 1764C576.678 1767.75 574.834 1781.34 585.961 1780.67C594.122 1780.17 602.376 1767.03 607.59 1761.72C610.399 1758.86 614.015 1754.97 617.639 1759.17C621.084 1763.16 616.832 1769.14 614.69 1772.83C609.299 1782.11 602.617 1790.78 595.78 1799.04C593.317 1802.01 590.344 1806.76 586.725 1808.42C583.471 1809.91 578.519 1805.56 575 1805C572.858 1808.04 570.776 1810.31 570 1814L567 1814L567 1811C558.226 1817.33 559.678 1825.65 557.468 1835C555.858 1841.81 552.124 1848.39 549.799 1855C548.566 1858.51 548.45 1862.71 545.686 1865.47C539.395 1871.74 530.283 1869.44 523 1872.9C520.202 1874.24 516.337 1876.55 515.921 1880C515.188 1886.06 528.532 1890.03 533 1891C535.788 1885.45 542.551 1883.74 548 1881.41C556.609 1877.72 564.567 1870.23 574 1869C568.537 1874.39 562.613 1879.53 555.975 1883.45C550.811 1886.5 544.959 1888.56 540.005 1891.9C534.893 1895.35 532.15 1899.97 539 1903C535.481 1906.42 528.908 1908.48 523.961 1908.83C521.302 1909.02 515.938 1906.86 514.086 1909.61C511.096 1914.04 519.191 1916.51 522 1916.83C528.938 1917.62 535.579 1916.87 541.911 1913.89C545.595 1912.15 547.831 1909.58 552 1909C549.269 1912.21 546.876 1917.49 543.687 1919.99C541.513 1921.7 538.53 1921.78 536.414 1923.59C533.103 1926.41 532.418 1929.45 528 1931C529.326 1934.81 532.414 1935.42 536 1936.81C542.706 1939.41 551.59 1939.68 555.87 1946.02C558.876 1950.47 562.829 1956.63 563.656 1962C564.369 1966.63 562.513 1971.56 561.37 1976C558.593 1986.78 552.861 1998.26 547.497 2008C544.308 2013.79 540.416 2018.37 539 2025C542.422 2025.03 545.637 2025.38 549 2026L549 2028C540.977 2030.32 534.567 2035.93 527 2039.33C523.742 2040.79 518.015 2041.8 515.647 2044.56C512.609 2048.1 517.324 2050.11 520 2051C511.581 2053.56 501.743 2054.82 493 2056C494.186 2054.81 494.528 2054.42 495 2053C485.341 2053.03 475.551 2055.16 466 2056.57C447.442 2059.32 429.772 2063.09 412 2069.14C402.282 2072.45 391.358 2075.78 382.91 2081.55C376.22 2086.12 368.221 2088.8 361 2092.38C357.811 2093.95 355.178 2096.4 352 2098C348.786 2099.62 343.53 2101.72 340.228 2099.36C331.89 2093.38 343.388 2080.9 349.015 2077.51C350.537 2076.59 352.229 2076.25 353.811 2075.49C355.917 2074.49 359.217 2071.21 356.378 2069.02C353.255 2066.61 347.796 2070.23 345 2071.71C336.653 2076.12 328.314 2087.18 318.823 2088.78C311.665 2090 316.877 2077.51 319.109 2075.47C321.372 2073.4 324.489 2072.06 326.397 2069.62C328.644 2066.76 329.523 2060.6 330 2057C325.947 2057.64 324.297 2060.01 320.91 2062.03C315.647 2065.17 309.544 2066.83 304.104 2069.51C301.951 2070.57 300.747 2072.88 298.63 2073.87C295.451 2075.35 291.119 2071.48 291.863 2068.12C292.558 2064.98 297.853 2061.3 300.299 2059.44C303.948 2056.66 306.682 2053.39 310.128 2050.47C314.178 2047.03 318.455 2045.46 320 2040C312.785 2038.6 309.264 2042.85 303 2045.39C298.562 2047.18 293.606 2047.07 289 2048.25C282.279 2049.97 277.127 2052.98 270 2053C271.582 2046.57 276.402 2039.47 282.004 2035.89C285.556 2033.63 294.364 2030.41 294.364 2025.19C294.364 2020.5 286.505 2022.64 284.17 2023.59C279.612 2025.46 276.308 2029.44 271.91 2031.26C264.498 2034.34 255.48 2033.98 248 2032C250.064 2026.69 254.487 2021.99 259.039 2018.56C263.324 2015.34 267.408 2014.6 269 2009C259.595 2009.03 249.37 2017.04 242.939 2023.76C239.799 2027.04 237.564 2032.88 241.319 2036.57C249.084 2044.2 262.303 2038.2 271 2037C268.007 2040.97 261.42 2046.2 260.658 2051.28C259.112 2061.6 276.815 2058.41 282 2058C279.042 2066.31 282.232 2078.23 292 2080.68C297.361 2082.03 303.156 2080.14 308 2078C308 2081.81 307.369 2086.28 308.318 2090C311.319 2101.74 324.859 2092.68 331 2090C330.298 2091.93 329.384 2093.93 329.269 2096C328.724 2105.78 340.835 2107.57 348 2105.45C351.152 2104.52 353.936 2102.52 357 2101.33C359.284 2100.44 361.703 2100.25 363.999 2099.46C371.47 2096.89 377.512 2090.16 385 2087.59C388.763 2086.3 393.102 2086.67 397 2085.57C402.292 2084.08 406.754 2080.88 412 2079.39C428.021 2074.86 444.738 2073.11 461 2069.68C472.986 2067.14 484.568 2061.26 497 2061C499.922 2069.8 516.406 2063.12 523.001 2063C546.522 2062.6 562.967 2051.07 583 2040.5C590.298 2036.64 597.32 2037.7 603.541 2030.83C607.177 2026.82 611.35 2021.95 613.569 2017C617.601 2008 620.018 1998.94 618.711 1989C616.281 1970.52 601.793 1956.14 598 1938C601.344 1939.87 604.168 1940.8 608 1941C606.732 1934.77 598.804 1931.4 598.851 1925C598.886 1920.25 604.988 1917.87 606 1913L600 1911C601.846 1901.62 606.975 1893.99 611.911 1885.99C614.077 1882.48 615.406 1878.43 617.709 1875.02C619.579 1872.26 622.414 1870.32 624.235 1867.54C627.916 1861.91 631.769 1852.47 633.625 1846C635.044 1841.05 636.033 1832.3 639.728 1828.52C642.182 1826.01 646.824 1827.04 650 1826.32C656.031 1824.95 662.301 1821.35 667.911 1818.73C680.217 1812.99 691.495 1805.56 705 1802.45C728.919 1796.95 754.146 1804.12 778 1806C778.003 1809.25 777.544 1813.08 779.603 1815.85C781.788 1818.79 785.654 1819.38 789 1820.11C797.683 1822.03 807.133 1822.78 816 1823.84C826.303 1825.08 836.614 1826.73 847 1826.99C853.324 1827.14 859.768 1825.72 866 1826.07C870.376 1826.32 873.675 1829.42 878 1829.89C895.653 1831.83 916.945 1827.11 927.677 1811.87C936.22 1799.74 936.032 1781.23 934.285 1767C933.71 1762.32 934.026 1756.37 930.487 1752.72C928.048 1750.21 923.482 1748.45 920 1748.34C915.414 1748.18 911.414 1750.89 908.39 1745.87C900.532 1732.8 902.202 1716.63 899.853 1702.04C899.3 1698.6 896.635 1696.21 895.482 1692.99C893.724 1688.06 893.223 1682.19 893 1677C879.176 1675.97 879.973 1661.55 881.425 1651C883.167 1638.36 889.15 1626.72 893.62 1614.91C898.153 1602.94 901.818 1590.04 907.181 1578.42C911.182 1569.76 914.244 1560.74 918.114 1552.04C919.797 1548.25 922.175 1544.98 923.48 1541C928.852 1524.6 930.909 1507.14 932.089 1490C932.683 1481.38 933.697 1472.67 932.829 1464C931.105 1446.76 926.258 1430.29 920.71 1414C919.254 1409.72 918.71 1405.17 916.891 1401C915.271 1397.29 912.132 1394.64 910.432 1391C907.448 1384.62 906.158 1377.26 903.052 1371C901.319 1367.51 898.499 1364.82 897.38 1361C894.608 1351.53 897.611 1342.43 896.826 1333C895.448 1316.44 895.8 1300.53 895.996 1284C896.165 1269.82 895.46 1255.94 897.741 1242C899.116 1233.6 898.338 1224.52 899.17 1216C900.054 1206.94 902.919 1197.97 904.535 1189C906.436 1178.46 907.548 1168.25 911.064 1158C913.838 1149.91 913.464 1138.1 922 1134C923.398 1122.78 932.038 1114.92 939.498 1107.25C942.909 1103.74 945.537 1099.65 949.184 1096.33C952.854 1093 956.162 1089.36 961 1088C958.985 1098.38 951.524 1107.31 947.594 1117C946.728 1119.14 944.199 1126.41 948.313 1127.08C952.415 1127.74 953.954 1121.65 955.245 1119L969.614 1089.58C973.399 1081.73 974.419 1072.53 976.039 1064.04C978.118 1053.14 979.312 1043.09 980.089 1032C982.079 1003.61 987.565 974.018 975.204 947.001C969.577 934.701 955.884 927.619 946 919.296C941.839 915.791 938.031 913.198 936 908C925.111 907.871 921.043 896.292 914.271 889.171C909.6 884.259 903.529 880.956 899 876C904.011 876.653 908.462 879.491 913 881.637C925.255 887.432 936.595 894.97 947.015 903.612C969.869 922.567 995.734 945.308 1005.99 974.089C1010.1 985.624 1009 998.99 1009 1011C1016.89 1006.65 1013.36 993.399 1012.96 986C1011.45 957.893 986.837 932.418 968 914C953.973 900.285 938.384 887.481 921 878.298C915.143 875.204 909.175 871.966 902.83 869.974C900.226 869.156 896.717 869.55 894.434 867.973C890.333 865.14 890.97 857.635 886.892 854.134C882.381 850.26 876.181 851.647 871.184 848.95C864.852 845.531 858.7 836.126 855.195 829.961C852.068 824.46 852.181 818.714 850.117 813C848.991 809.881 846.612 806.579 847.693 803.089C848.969 798.97 853.975 795.641 856.28 791.911C863.841 779.673 871.892 766.984 877.265 753.579C888.918 724.51 893.05 694.234 893 663C892.995 659.95 893.09 656.903 892.006 654C890.726 650.572 888.311 647.859 888.551 644.004C888.757 640.7 890.593 638.015 891.451 634.911C894.016 625.628 896.357 616.267 899 607C900.608 612.453 898.833 616.584 898.184 622C897.384 628.686 896.902 635.304 896 642C904.951 638.332 902.907 627.024 904.258 619C905.383 612.327 907.446 605.782 908 599L910 599C911.039 609.429 915.8 621.009 919.036 631C920.526 635.597 921.545 639.669 926 642C925.7 627.53 920.121 610.737 915.711 597C913.458 589.984 909.523 582.427 909.108 575C908.896 571.206 910.172 567.703 910.7 564C911.568 557.904 911.691 551.162 911.961 545C912.6 530.401 913.238 514.542 911.83 500C911.116 492.621 909.147 485.391 908.464 478C907.939 472.304 908.666 466.779 907.83 461C907.001 455.269 903.754 450.558 902.518 444.999C898.102 425.146 895.103 404.676 889.819 385C885.058 367.267 878.46 349.991 874.454 332.001C865.881 293.494 862.069 251.634 841.33 217C832.28 201.886 818.207 198.494 802 195.679C789.342 193.481 777.717 194.845 765 194.996C753.473 195.133 741.393 193.081 730 194.17C720.1 195.116 712.232 198.822 703 201.776C694.406 204.527 684.794 205.675 676 207.636C668.633 209.278 662.298 208.857 662 218z"
     style="fill:#907a84; stroke:none;" />
  <path
     id="path8"
     d="M736 211C742.402 213.911 748.924 218.358 756 219L752 209C759.972 209 766.322 209.693 774 211.53C776.951 212.236 780.025 211.788 782.83 213.125C787.283 215.248 795.423 219.931 798.012 224.13C799.981 227.325 799.217 231.828 802.314 234.397C804.974 236.602 808.827 235.803 812 236.184C817.742 236.874 823.158 238.749 829 239C824.944 245.63 811.845 243 805 243C805.001 249.32 804.955 257.512 809.699 262.451C812.51 265.377 816.929 265.937 819.683 269.129C821.53 271.27 821.952 273.995 823.259 276.421C825.201 280.022 827.762 283.196 829.329 287.015C834.736 300.189 839.178 314.996 841.678 329C842.743 334.965 842.364 341.072 843.325 347C845.164 358.339 849.002 369.556 850 381C853.917 371.666 847.903 359.265 846.259 349.911C844.572 340.307 847.782 332.911 850 324L854 325C853.635 317.893 850.049 311.723 848.042 305C842.106 285.11 833.833 265.344 830 245C833.39 245.696 836.522 246.779 840 247C839.963 242.526 839.828 237.397 838.15 233.184C833.533 221.599 816.204 224.849 807.054 220.491C804.151 219.108 802.682 216.137 799.871 214.638C795.973 212.56 791.22 211.624 787.039 210.243C780.235 207.995 773.299 205.128 765.996 205.005C758.632 204.88 750.808 204.218 743.715 206.291C739.954 207.39 737.579 207.071 736 211M799 206L799 208C806.594 208.178 813.327 211.841 821 212C815.946 206.956 805.936 206.144 799 206M713 221C717.87 220.092 722.385 220.322 724 215C718.815 215.125 715.389 216.159 713 221M738 219C741.582 229.765 742.609 241.367 746.482 251.996C747.93 255.968 752.127 258.144 753.343 262.039C754.282 265.048 752.291 267.984 752.313 271C752.402 282.807 758.762 288.629 770 290C770.508 293.013 771.159 293.873 774 295C773.59 290.444 771.656 287.164 769.972 283C766.968 275.571 764.029 267.876 759.529 261.17C756.712 256.971 749.278 250.185 748.998 245.058C748.774 240.98 753.344 241.153 756.001 242.137C763.151 244.786 770.34 249.41 775.821 254.674C779.351 258.063 783.532 262.341 785.262 267C787.113 271.985 786.676 277.842 788.405 283C790.555 289.416 794.324 295.265 795.535 302C796.58 307.804 793.455 319.888 800.428 323.397C802.313 324.345 804.964 323.993 807 324C806.683 310.472 800.334 297.459 796.012 284.961C795.016 282.08 795.007 278.963 793.988 276.089C790.671 266.735 785.797 257.629 780.937 249C778.523 244.714 776.804 239.879 773.32 236.278C771.02 233.9 767.828 232.853 765 231.255C756.77 226.603 747.263 221.094 738 219M678 255C677.242 251.687 675.865 248.9 674.064 246C672.823 244.001 671.502 242.111 670.44 240.005C668.993 237.136 663.515 231.268 662.426 238.059C661.085 246.422 670.919 254.02 678 255M710 235C711.116 240.753 711.692 248.663 717 252C717.337 244.145 718.279 238.874 710 235M690 250C690.617 252.705 691.544 254.629 693 257C694.439 253.474 693.478 251.398 690 250M658 267C658 275.606 660.277 282.675 662 291C669.287 291 676.732 291.443 684 290.91C688.401 290.587 692.569 289.193 697 289L697 284C681.874 282.763 671.982 270.628 658 267M707.05 306.086C703.974 307.469 702.036 311.38 700.134 313.985C696.322 319.208 691.779 324.85 689.633 331C688.277 334.887 688.761 339.128 687.436 342.91C685.745 347.734 680.509 351.488 677.951 356.001C674.095 362.807 674.745 370.526 675.718 378C676.923 387.247 679.62 394.831 684.157 402.956C686.059 406.361 690.367 410.158 694.687 408.357C698.037 406.959 699.834 399.936 702.464 397.224C704.108 395.528 706.659 394.477 707.973 392.505C709.953 389.535 709.13 384.448 710.182 381C714.731 366.088 715.419 351.394 717.174 336.001C717.725 331.17 720.137 326.873 720.713 321.999C721.454 315.724 718.388 312.812 714.116 308.734C712.124 306.832 709.986 304.767 707.05 306.086M687 310C689.132 309.224 689.771 308.87 691 307C688.702 307.674 688.226 307.965 687 310M673 309C671.122 316.894 672.869 321.047 681 317C679.207 313.234 676.76 310.781 673 309M824 316C819.104 337.967 824.796 362.875 831.938 384C835.336 394.049 842.045 404.388 843 415C835.719 410.808 832.242 398.236 828.478 391C826.306 386.823 826.117 382.853 821 382C821.444 392.149 827.492 401.122 831.339 410.286C834.868 418.69 837.777 428.214 840.381 437C843.608 447.885 844.302 458.973 846.514 470C848.2 478.407 851.158 486.665 852.726 495C853.937 501.438 851.554 508.644 853.434 514.941C855.024 520.27 867.076 524.579 872 526C871.891 512.839 864.37 500.82 862.303 487.996C855.936 448.493 847.188 409.24 839.245 369.911C838.184 364.66 838.325 359.22 837.111 354.004C835.607 347.542 832.641 341.475 831.035 335C829.496 328.795 828.749 320.52 824 316M664 318L664 322C656.775 324.127 658.655 329.178 656.401 334.816C655.549 336.946 653.565 338.291 652.545 340.325C648.273 348.845 643.661 357.431 643.316 366.911C643.207 369.914 641.286 372.989 643.604 375.667C647.302 379.938 651.667 373.556 655.09 372.215C657.859 371.13 661.109 371.884 664 372C664.001 364.908 664.91 357.576 668.285 351.17C670.002 347.909 674.276 344.799 674.552 340.924C674.855 336.684 668.573 334.112 667.434 329.996C666.209 325.576 668.209 320.974 664 318M788 330C788.092 341.105 789.716 351.794 788.946 363C788.591 368.171 785.696 372.694 786.199 378C787.435 391.044 793.902 402.276 798.925 414C803.481 424.633 807.053 439.553 821 440C813.318 421.194 807.139 400.085 803.615 380C802.63 374.388 803.682 368.598 802.522 363.039C800.103 351.457 792.958 341.517 791 330L788 330M873 351C873.034 363.185 876.921 376.42 880.616 388C881.965 392.23 883.398 398.295 887 401C886.758 390.682 882.398 380.86 879.755 371C877.989 364.412 877.381 357.358 875 351L873 351M762 367C762 373.555 760.482 380.545 761.29 387C762.356 395.52 766.419 402.851 768.7 411C774.226 430.742 780.721 451.139 788.9 470C794.829 483.671 803.343 496.281 809 510C818.175 504.641 812.215 490.127 812.016 482C811.877 476.327 813.724 470.676 812.521 465.039C811.4 459.784 808.499 452.868 806.109 448.039C804.875 445.546 802.585 443.596 801.742 440.911C800.529 437.046 802.572 432.998 801.35 429.039C800.23 425.41 797.389 422.44 795.799 418.996C793.024 412.988 791.281 406.846 788 401C786.227 405.542 787.999 412.049 788 417C778.747 409.797 777.231 399.549 773.029 389C770.185 381.863 765.68 374.726 765 367L762 367M629 382L634 381L634 377C630.95 377.948 630.088 379.003 629 382M662 385C663.013 387.485 663.726 388.598 666 390L666 385L662 385M609 417C610.631 412.579 613.158 408.67 614 404C611.528 404.002 607.683 403.379 605.603 405.028C601.089 408.606 604.422 416.001 609 417M733 410C733.664 422.959 738.541 436.167 740.561 449C741.188 452.984 740.77 457.011 741.289 461C742.131 467.462 744.635 473.587 745.675 480C746.266 483.642 745.741 487.355 746.304 491C747.619 499.517 751.033 507.978 753.633 516.17C754.977 520.402 755.408 524.803 757.019 528.981C760.427 537.816 773.924 536.852 779.736 544.339C785.121 551.277 781.067 563.965 781 572C785.73 570.119 786.513 564.939 789.51 561.089C791.213 558.901 793.685 557.018 793.378 553.961C792.897 549.176 788.872 544.62 787.46 539.985C785.901 534.87 785.734 528.061 780 526C779.471 519.53 777.951 510.937 775.085 505.089C771.589 497.956 766.243 492.329 766 484C760.751 480.8 757.521 469.839 755.399 464.089C751.373 453.185 744.994 443.079 741.439 431.996C739.266 425.22 738.269 414.869 733 410M825 421C825.296 427.794 827.851 433.646 830 440C832.321 434.456 829.865 424.579 825 421M764 424C764.151 431.339 766.477 437.872 767.749 445C772.002 468.825 778.454 492.003 791.025 513C795.324 520.179 797.971 532.215 807 535C807.635 529.982 809.598 524.021 808.592 519C807.161 511.858 800.839 505.267 797.347 499C789.796 485.447 782.71 472.028 778.579 457C776.631 449.912 773.136 444.417 770.416 437.816C768.48 433.116 768.331 427.186 764 424M887 438C887.005 446.234 889.11 453.089 890.883 461C894.615 477.647 899.812 494.058 902 511L904 511C904 492.96 899.224 474.217 894.166 457C892.537 451.455 891.872 441.428 887 438M829 455C831.889 465.918 831.408 476.789 836.781 487C838.826 490.886 839.972 493.934 844 496C843.922 486.533 842.36 475.325 839.826 466.17C838.736 462.233 836.519 459.144 836 455L829 455M878 474C878.404 477.908 879.101 480.664 883 482C882.895 477.69 882.657 474.809 878 474M831 487C830.978 495.071 827.874 504.057 829.228 512C830.348 518.563 835.055 525.094 838 531C841.298 526.687 841.987 524.07 848 525C848 520.379 848.488 515.466 847.095 511C844.426 502.442 837.459 495.415 834 487L831 487M876 506C877.006 517.538 882.084 529.61 887 540C888.761 535.478 886.233 531.201 884.464 527C881.633 520.278 880.92 511.582 876 506M894 509C894.179 513.111 895.385 516.936 895.826 521C896.273 525.107 895.433 529.284 899 532C899 524.378 899.576 514.925 894 509M788 526C789.301 533.296 793.443 540.794 796.725 547.424C798.505 551.02 798.946 553.72 803 555C802.891 545.176 796.648 531.153 788 526M828 526C826.92 529.653 827.349 533.308 826.544 537C825.013 544.024 822.316 550.906 821.145 558C820.458 562.163 819.075 566.446 823 569C824.042 564.442 823.627 558.138 825.349 554.015C827.264 549.429 832.306 548.99 835.142 545.502C839.503 540.137 832.748 530.853 830 526L828 526M762 539C762.959 546.55 765.513 552.176 768.677 559C770.251 562.394 770.835 565.834 774 568C774 556.719 775.975 542.209 762 539M663 542C662.578 543.426 662.177 544.553 662.094 546.045C662.025 547.297 661.886 548.701 662.149 549.941C663.532 556.461 668.009 550.665 666.282 546.059C665.574 544.171 664.452 543.281 663 542M893 554C893 566.817 889.001 579.074 889 592C896.325 583.096 902.731 563.262 893 554z"
     style="fill:#a3b2d5; stroke:none;" />
  <path
     id="path10"
     d="M543 745C536.552 752.349 527.657 756.302 519 760.539C512.308 763.815 506.54 765.671 508 774C522.223 773.999 536.167 769.929 548.816 763.569C554.012 760.957 558.291 756.604 564 755C562.215 758.96 559.29 762.262 557.051 766.001C553.553 771.842 551.901 778.627 545 781L544 772C530.869 775.159 527.117 790.814 520.411 800.911C514.075 810.449 510.024 820.498 505.667 831C503.362 836.556 499.982 842.496 498.46 848.286C497.711 851.133 498.147 854.132 497.447 857C495.692 864.19 492.178 870.572 491.285 878C489.498 892.872 490.733 909.157 492.17 924C493.338 936.068 495.05 948.066 497.079 960C498.519 968.466 500.052 978.328 504.043 986C513.093 1003.39 530.363 1016.1 538.105 1034.29C539.527 1037.63 538.83 1041.47 539.289 1045C539.981 1050.31 541.398 1055.86 542.872 1061C544.587 1066.98 550.255 1074.95 550.103 1081C550.016 1084.45 547.57 1087.92 546.199 1091C542.554 1099.18 538.196 1107.14 534.22 1115.17C524.609 1134.57 517.921 1157 512.704 1178C508.685 1194.17 506.332 1210.61 503.675 1227C502.517 1234.14 500.549 1241.11 499.259 1248.17C498.02 1254.95 498.674 1262.16 497.7 1269C492.81 1303.3 491 1337.3 491 1372C491 1398.65 489.016 1426.64 493.325 1453C494.551 1460.5 497.936 1466.83 500 1474C505.306 1474.68 509.671 1478.25 515 1478.8C522.236 1479.54 532.35 1474.71 539 1472C535.948 1468.74 531.437 1467.22 529.333 1463C526.882 1458.07 528.595 1449.64 527.54 1444C523.071 1420.1 524 1394.3 524 1370C524 1346.03 523.309 1321.9 524.796 1298C525.179 1291.85 527.145 1285.94 527.871 1279.91C531.662 1248.45 535.732 1217.22 541.263 1186C543.195 1175.1 548.112 1164.84 550.334 1154C551.996 1145.89 550.505 1137.07 552.299 1129.09C553.016 1125.9 555.223 1123.09 556.314 1120C558.918 1112.6 560.634 1103.86 564.518 1097.04C569.391 1088.49 575.964 1083.61 576 1073C571.397 1072.15 564.201 1073.36 560.224 1070.97C553.598 1067 552.148 1050.95 552 1044C561.345 1043.69 557.245 1038.48 554 1033C561.889 1033.79 569.033 1036.35 577 1034C574.876 1029.93 569.917 1028.5 568.514 1023.98C566.838 1018.58 568.206 1006.97 570.765 1002C572.589 998.459 575.76 995.592 577.147 991.83C578.287 988.736 577.998 985.24 578 982C576.203 982 576.478 982.014 575 983C575.689 979.876 576.291 977.198 576 974C581.528 972.19 584.144 963.657 584.37 958.17C584.443 956.395 583.586 954.685 584 952.911C584.685 949.971 587.305 947.441 588.964 945.004C591.588 941.15 593.356 936.948 595.849 933.089C600.319 926.171 604.605 923.93 604 915C602.027 913.979 599.341 910.627 597.041 910.905C593.681 911.311 589.883 915.989 587.487 918.155C582.046 923.074 576.459 926.659 570 930C569.703 927.737 568.496 925.184 568.758 922.911C569.237 918.745 572.669 914.477 574.798 911C579.331 903.597 583.058 895.444 589.21 889.156C592.213 886.086 596.837 884.068 599.358 880.625C601.415 877.814 600.493 874.104 602.738 871.171C606.237 866.601 611.459 864.336 614 859C608.762 859.835 605.008 862.835 600.996 866.194C598.642 868.165 596.273 870.947 593 871.188C589.918 871.414 586.907 869.358 584 868.61C581.395 867.939 578.66 868.13 576.089 867.316C572.89 866.303 570.425 864.375 567.224 866.747C564.255 868.947 563.778 872.972 562.009 876C558.54 881.937 554.513 887.916 550.83 893.741C544.081 904.413 533.708 915.015 523.986 923.004C520.688 925.714 517.754 929.008 514 931C513.977 922.611 512.069 914.38 512 906L520 906C521.171 898.618 525.963 897.701 530.157 892.53C532.748 889.337 534.762 883.783 536.374 879.961C539.336 872.94 540.423 865.154 543.024 858C550.703 836.878 559.801 815.999 571.999 797C579.315 785.605 585.527 772.213 587.464 759C588.27 753.501 590.783 750.383 588 745L583 746C584.663 742.439 586.805 740.275 590 738C602.818 765.133 615 791.236 615 822C625.511 824.169 635.205 827 646 827C645.763 823.272 644.118 819.722 644.224 816C644.474 807.23 648.892 798.942 652.124 791C655.842 781.865 658.316 771.671 663.044 763.004C665.429 758.632 669.173 755.302 671.702 750.996C676.399 743.001 680.546 730.623 689 726C690.151 717.157 695.234 710.858 700.255 703.961C706.608 695.235 713.209 687.426 721.594 680.603C724.511 678.229 728.077 679.149 730.556 675.852C735.951 668.678 734.967 658.001 727.535 652.614C724.688 650.549 721.273 650.272 718 649.29C712.704 647.701 707.396 646.234 702 645C705.56 637.36 714.764 632.662 722 629L722 626C713.151 622.509 703.053 615.539 693 617.344C688.12 618.22 684.01 621.477 679.92 624.059C671.755 629.213 664.11 634.978 656 640.201C633.722 654.55 613.772 672.053 592.924 688.334C581.663 697.129 569.548 704.589 558 712.971C546.529 721.298 533.485 726.802 520 730.961C516.557 732.023 507.636 733.058 507.636 737.999C507.636 742.236 513.138 741.924 516 742.014C525.147 742.302 533.732 745 543 745M591 650C578.484 647.512 566.807 634.674 553 637.199C544.614 638.732 539.127 647.506 534.866 653.981C530.22 661.041 522.835 670.633 515.866 675.491C507.966 680.997 499.071 671.956 490.065 675.477C486.015 677.06 486.435 681.47 485.018 684.866C484.387 686.379 482.954 687.977 483.556 689.736C484.542 692.62 489.552 693.557 492 694.648C500.12 698.266 506.869 701.937 516 702C531.688 702.109 546.973 697.266 558.241 685.843C565.309 678.677 569.964 669.703 576.324 662.019C580.054 657.512 589.457 655.278 591 650z"
     style="fill:#907a84; stroke:none;" />
  <path
     id="path12"
     d="M886 660C882.841 670.685 886.403 682.896 885 694C887.469 691.845 887.335 688.203 887.714 685C888.684 676.815 888 668.237 888 660L886 660M847 794C849.748 790.026 852.355 786.923 853 782C850.9 782.564 844.6 786.351 844.112 782.017C843.863 779.805 846.219 777.055 846.907 774.985C849.488 767.228 852.918 759.868 855.29 752C859.593 737.728 862.246 723.356 866.015 709C869.256 696.653 873.985 684.841 875 672C868.119 673.094 868.78 678.342 867.026 683.911C866.016 687.117 864.035 689.911 863.171 693.171C857.653 713.981 852.244 735.443 845.501 755.999C844.041 760.448 838.127 762.712 837.502 767.104C837.131 769.711 838.575 772.546 839.255 775C840.904 780.954 840.397 791.914 847 794M642 690C644.69 689.582 645.554 689.283 647 687C644.457 687.526 643.465 687.878 642 690M877 687C871.946 706.329 866.857 725.592 861.958 745C859.848 753.356 856.163 761.407 855 770C860.87 766.027 861.036 757.273 862.959 751C867.613 735.82 872.48 719.664 875.08 704C875.912 698.992 878.832 691.741 877 687M596 732C601.046 730.285 604.372 726.604 608.286 723.116C613.612 718.369 619.113 713.763 624.286 708.856C627.586 705.726 631.212 703.661 632 699C626.87 700.44 623.81 704.357 620 707.911C612.236 715.151 601.378 722.779 596 732M885 702C879.307 714.196 876.057 730.607 875 744L877 744C878.471 735.311 881.554 726.577 883.829 718.039C885.262 712.661 887.292 707.463 885 702M621 743C623.381 736.86 628.488 732.607 630 726C625.583 725.131 619.291 721.17 615 721.852C611.055 722.479 599.095 730.443 602.801 735.246C605.877 739.234 616.22 742.138 621 743z"
     style="fill:#a3b2d5; stroke:none;" />
  <path
     id="path14"
     d="M451 733C448.632 731.763 446.632 729.547 443.897 729.152C437.084 728.169 435.379 734.396 435.105 740C434.603 750.268 437.186 759.906 445.015 766.812C455.832 776.354 471.887 772.835 485 772.093C489.018 771.866 492.993 773.268 496.981 772.796C501.282 772.288 510.12 764.413 506.953 759.653C500.484 749.93 488.848 766.332 482.91 767.701C461.75 772.577 451.357 750.269 451 733z"
     style="fill:#907a84; stroke:none;" />
  <path
     id="path16"
     d="M541 755C545.384 753.97 548.814 751.995 551 748C546.742 748.614 542.488 750.822 541 755M805 749C804.688 756.258 804.324 761.05 807 768C809.295 762.531 808 754.901 808 749L805 749M632 755C633.158 759.19 634.597 762.242 638 765C638.992 759.365 637.962 756.21 632 755M833 791C832.383 794.807 831.982 797.582 836 799C835.328 796.1 834.585 793.52 833 791M860 855C860.766 859.913 863.465 864.047 864 869L868 868C866.809 862.451 865.541 857.343 860 855M516 936C516.045 941.482 517.557 946.58 518 952C523.005 948.963 524.846 943.504 526 938C522.619 936.372 519.733 936.033 516 936M959 938C963.491 947.619 970.37 955.09 969 966L974 968C973.967 958.491 969.108 941.258 959 938M891 966C891.222 986.089 900.833 1005.88 901 1026L905 1024L904 1072C907.577 1065.27 907.833 1055.49 909.245 1048C913.268 1026.66 914.537 1004.1 904.741 984C901.566 977.487 897.446 969.642 891 966M521 975C521.417 980.101 521.761 987.954 523.854 992.576C526.363 998.116 531.562 1002.96 535 1008C537.035 1005.33 536.854 1002.06 538.688 999.259C542.234 993.833 547.981 988.592 549 982C540.6 981.929 532.515 980 524 980L524 975L521 975z"
     style="fill:#a3b2d5; stroke:none;" />
  <path
     id="path18"
     d="M943 985C940.945 1001.26 936.046 1017.49 936 1034C939.196 1034 943.382 1034.61 945.852 1032.11C948.862 1029.06 947.897 1025.26 952 1023L953 1027C961.561 1017.17 964 1003.61 964 991C961.004 991.225 959.75 991.552 958 994C954.169 986.605 951.386 985.006 943 985M600 1051L601 1057C594.191 1057.9 582.347 1063.97 594.005 1068.79C601.752 1071.99 610.818 1071 619 1071L619 1073C611.357 1073.63 605.269 1076.72 605 1085C615.392 1088.04 602.283 1092.72 600 1097C612.379 1098.57 624.596 1100.23 637 1101.71C642.025 1102.32 647.122 1101.56 651.999 1103.25C656.308 1104.74 659.053 1108.29 663.039 1110.28C666.211 1111.87 669.748 1112.54 672.911 1114.17C680.181 1117.91 686.114 1123.31 693 1127.61C703.357 1134.06 713.899 1139.73 724 1146.7C727.435 1149.07 731.502 1149.68 734.961 1151.85C738.419 1154.03 740.821 1157.38 744.428 1159.44C748.868 1161.98 754.306 1163.46 757 1168C766.285 1169.94 759.095 1175.79 761.608 1181.67C763.917 1187.08 774.871 1188.64 779.722 1186.4C782.479 1185.12 783.087 1181.57 784.064 1179C786.45 1172.74 788.026 1166.17 790.616 1160C796.373 1146.28 804.295 1133.96 806.741 1119C807.659 1113.38 803.709 1109.34 804.323 1104C805.175 1096.6 811.541 1089.89 809.682 1082.04C808.879 1078.65 805.766 1075.94 804 1073C807.206 1072.56 809.059 1072.22 810 1069C805.207 1068.18 800.842 1065.79 796 1065.18C778.126 1062.93 759.962 1062.98 742.039 1060.87C719.431 1058.21 696.86 1053.66 674 1052.09C660.123 1051.14 645.911 1052.02 632 1052C621.351 1051.98 610.706 1051 600 1051z"
     style="fill:#907a84; stroke:none;" />
  <path
     id="path20"
     d="M622 1070C629.106 1079.99 638.706 1068.42 647 1069.3C652.92 1069.93 660.026 1072.33 664.997 1075.61C668.275 1077.78 670.714 1081.1 674.089 1083.08C677.112 1084.84 680.9 1084.39 683.852 1086.18C689.351 1089.51 685.902 1096.97 686.097 1101.99C686.251 1105.93 689.133 1109.95 691.495 1112.99C694.567 1116.93 699.156 1119.32 703 1122.43C716.31 1133.18 730.604 1140.7 744.997 1149.81C751.647 1154.02 758.001 1161.77 766 1163C766.553 1158.62 766.997 1154.42 767 1150C761.024 1149.88 755.761 1147.58 749.961 1147.05C747.822 1146.85 744.352 1147.19 743.326 1144.72C741.693 1140.78 748.081 1135.86 742.682 1132.32C739.441 1130.19 733.765 1129.92 730.005 1129.13C728.49 1128.8 726.008 1128.6 725.627 1126.68C725.228 1124.68 727.24 1122.6 728.125 1121C729.899 1117.78 730.769 1114.63 731 1111C722.627 1113.97 716.712 1114.36 708 1112.13C705.177 1111.4 701.535 1110.74 700.082 1107.86C698.643 1105 700.637 1100.98 701 1098C707.995 1098.45 712.924 1101.88 717 1094C709.187 1093.83 694.375 1090.26 692 1082C698.779 1081.09 706.194 1074.64 708 1068C688.415 1065.52 667.812 1061.28 648 1063.17C638.609 1064.06 631.031 1068.14 622 1070z"
     style="fill:#a3b2d5; stroke:none;" />
  <path
     id="path22"
     d="M1558 1070C1556.41 1070.02 1554.63 1069.87 1553.08 1070.32C1542.51 1073.41 1555.86 1087.38 1557.85 1075.91C1558.18 1074.01 1558 1071.92 1558 1070z"
     style="fill:#907a84; stroke:none;" />
  <path
     id="path24"
     d="M756 1072C756.034 1074.9 755.821 1077.99 758.318 1079.99C760.638 1081.86 764.221 1081.7 765.973 1084.31C767.337 1086.35 767.714 1094.25 772.402 1090.93C776.296 1088.17 775 1077.18 775 1073L756 1072z"
     style="fill:#a3b2d5; stroke:none;" />
  <path
     id="path26"
     d="M590 1212C590.844 1217.4 595.315 1224.82 600.339 1227.49C604.255 1229.56 610.575 1229.35 614.925 1229.67C617.588 1229.86 619.923 1231.1 622.59 1230.23C633.038 1226.82 641.101 1218.27 652 1216C644.244 1231.63 634.852 1246.49 626.704 1261.91C623.761 1267.48 617.469 1274.64 616.742 1280.98C616.332 1284.56 619.621 1285.8 621.243 1288.38C622.503 1290.38 622.009 1292.83 623.062 1294.91C624.92 1298.57 629.439 1300.24 628.627 1305C627.987 1308.75 624.919 1311.03 623.144 1314.17C620.743 1318.41 618.976 1322.84 616.295 1327C614.384 1329.97 611.578 1333.18 611.478 1336.91C611.263 1344.88 624.864 1343.91 626.007 1350.15C627.045 1355.81 620.525 1363.18 618.352 1368C613.085 1379.67 609.797 1393.64 606.958 1406.09C605.663 1411.77 605.375 1419.72 600 1423C598.535 1434.35 592.82 1443.99 590.455 1455C588.93 1462.1 591.701 1467.02 599 1468C599.002 1449.01 608.723 1434.36 615 1417C617.201 1410.91 618.049 1402.14 625 1400C624.193 1409.88 619.37 1420.97 622.513 1430.95C623.361 1433.64 625.703 1435.55 627 1438L632 1438C633.085 1435.92 635.069 1434.08 635.687 1431.79C638.149 1422.68 637.512 1412.29 640.484 1403.17C642.163 1398.02 647.385 1392.77 647.296 1387.12C647.222 1382.35 648.52 1376.71 647.657 1372.04C646.346 1364.95 640.856 1361.84 647 1355C647 1358.69 647.006 1372.06 654.441 1366.82C657.389 1364.74 658.283 1359.69 661 1357C660.356 1372 656.299 1386.39 653.211 1401C649.568 1418.23 646.788 1435.49 644.714 1453C643.851 1460.29 641.989 1467.66 642.002 1475C642.009 1479.58 642.256 1483.42 647 1485C647.132 1469.02 650.459 1453.28 653.755 1437.83C658.324 1416.41 661.182 1394.63 664.3 1373C665.502 1364.66 668.976 1357.57 669 1349L673 1350C673.293 1343.2 675.704 1336.78 676 1330C680.198 1328.53 681.424 1323.66 683.62 1320C686.471 1315.24 690.352 1310.04 692.441 1304.96C694.684 1299.51 695.286 1293.3 697.768 1288C699.562 1284.17 702.049 1278.71 704.583 1275.38C706.345 1273.06 708.636 1271.72 709.867 1268.96C714.05 1259.56 713.006 1249.39 717.665 1240C722.961 1229.32 726.76 1219.66 729.259 1208C729.979 1204.64 732.242 1201.56 731.526 1198C730.239 1191.59 723.666 1186.56 720.563 1181C716.922 1174.47 712.58 1168.89 708.021 1162.96C706.287 1160.71 704.698 1157.68 701.896 1156.62C692.695 1153.13 680.657 1163.41 672.985 1166.95C651.408 1176.89 629.945 1188.55 608.961 1199.94C602.435 1203.49 596.64 1209.16 590 1212z"
     style="fill:#907a84; stroke:none;" />
  <path
     id="path28"
     d="M690 1194C691.488 1199.27 695.742 1203.52 701 1205C702.28 1197.66 697.677 1192.42 690 1194z"
     style="fill:#a3b2d5; stroke:none;" />
  <path
     id="path30"
     d="M904 1201C902.563 1208.71 902 1216.17 902 1224C908.883 1221.72 906 1207.09 906 1201L904 1201z"
     style="fill:#907a84; stroke:none;" />
  <path
     id="path32"
     d="M691 1220C688.024 1224.19 685.536 1227.8 685 1233C689.038 1230.37 692.972 1224.84 691 1220z"
     style="fill:#a3b2d5; stroke:none;" />
  <path
     id="path34"
     d="M902 1228C898.34 1239.57 898.125 1253.95 899.093 1266C899.477 1270.77 900.959 1275.15 901 1280C904.2 1275.32 903 1268.48 903 1263C903.001 1251.34 904 1239.71 904 1228L902 1228z"
     style="fill:#907a84; stroke:none;" />
  <path
     id="path38"
     d="M1556 1439C1556.05 1441.53 1556.28 1443.58 1557 1446C1557.98 1443.67 1557.98 1441.54 1558 1439L1556 1439M633 1487C622.96 1487.47 617.036 1495.17 610.116 1501.61C608.051 1503.53 602.773 1506.23 604.466 1509.72C606.692 1514.3 615.266 1513.35 618.714 1511.2C627.446 1505.75 631.195 1496.58 633 1487M536 1549C534.88 1555.04 535.407 1560.94 534.83 1567C533.531 1580.66 532.326 1594.38 530.892 1608C530.556 1611.19 528.86 1613.88 528.274 1617C527.596 1620.6 528.297 1624.33 527.871 1627.96C527.582 1630.42 526.425 1632.63 526.129 1635.09C524.629 1647.53 526.025 1660.46 524.83 1673C523.376 1688.26 520.075 1702.89 518.286 1718C515.985 1737.41 515.339 1757.2 509.282 1776C503.496 1793.95 499.643 1810.02 487.242 1825C483.548 1829.46 479.237 1832.91 475.059 1836.87C473.818 1838.05 471.576 1839.78 471.921 1841.77C472.578 1845.55 481.513 1843.11 484 1843C471.998 1863.92 462.868 1886.61 454.11 1909C448.657 1922.94 440.433 1942.33 427.985 1951.43C424.167 1954.22 420.481 1953.6 416.09 1954.13C410.91 1954.76 404.999 1956.12 400 1957.66C396.672 1958.68 393.023 1959.35 390.184 1961.47C387.27 1963.66 385.589 1966.62 381.96 1967.79C366.051 1972.92 348.498 1974.64 333 1980.71C315.77 1987.46 297.484 1992.09 279.83 1997.63C275.665 1998.94 271.273 1999.02 267.059 2000.06C265.667 2000.4 262.857 2001.45 264.176 2003.44C266.133 2006.39 273.41 2003.25 276 2002.65C287.252 2000.06 298.066 1995.95 309 1992.29C324.431 1987.11 340.246 1983.3 356 1979.59C365.408 1977.37 374.394 1973.16 384 1971.46C393.141 1969.85 402.888 1971.37 412 1969.66C424.439 1967.32 433.808 1957.15 447 1957C446.518 1954.64 446.364 1954.48 444 1954C449.177 1943.98 458.741 1936.26 464.023 1926C465.853 1922.45 466.651 1918.51 468.594 1915C472.029 1908.79 476.427 1902.71 478.867 1896C482.742 1885.34 485.602 1874.3 490.573 1863.91C493.694 1857.39 496.798 1850.27 500.402 1844.01C502.058 1841.14 504.467 1838.93 506 1836C502.922 1836.06 500.025 1836.44 497 1837C501.955 1827.77 508.837 1819.84 512.791 1810C517.266 1798.87 518.886 1787.53 521.455 1776C525.741 1756.76 528.53 1737.44 531.3 1718C532.385 1710.39 533.026 1702.58 534.325 1695C535.141 1690.24 537.306 1685.84 537.826 1681C539.037 1669.74 539 1658.33 539 1647L543 1647C543.939 1644.36 544.58 1643.38 547 1642C547 1639.18 546.545 1635.8 547.599 1633.13C548.434 1631.01 550.529 1629.82 551.401 1627.74C552.376 1625.42 551.998 1622.46 552 1620C557.721 1622.66 562.123 1627.72 567 1631.69C572.983 1636.56 579.197 1640.38 585.911 1644.07C589.799 1646.2 592.472 1648.43 597 1649C594.253 1644.47 588.958 1642.25 585 1638.82C577.094 1631.96 571.142 1623.83 564.271 1616.01C561.456 1612.81 556.88 1609.88 555.067 1605.99C552.592 1600.67 557.457 1593.46 557.907 1588C559.148 1572.93 558.8 1559.81 556 1545C550.836 1544.33 540.738 1544.53 536.609 1541.49C528.223 1535.31 525.31 1523.11 521.83 1514C520.379 1510.2 517.388 1504.32 519.35 1500.22C520.913 1496.96 525.921 1495.39 529 1494C526.736 1487.18 510.672 1492.09 507.942 1497.34C505.702 1501.65 508.418 1507.97 510.084 1512.05C513.981 1521.6 518.569 1530.55 524.555 1539C527.753 1543.51 530.339 1547.85 536 1549M592 1545C595.38 1545.86 599.319 1548.55 602.886 1547.66C606.719 1546.71 608.909 1541.47 611.515 1538.8C616.286 1533.92 622.327 1529.6 628.17 1526.08C630.6 1524.62 643.567 1520.36 640.914 1516.58C637.904 1512.3 629.264 1516.15 625.834 1517.64C616.685 1521.61 606.471 1528.33 598.997 1534.95C595.372 1538.16 592.398 1539.96 592 1545z"
     style="fill:#907a84; stroke:none;" />
  <path
     id="path40"
     d="M678 1595L678 1605C684.129 1603.14 683.116 1597.61 678 1595M690 1658C688.043 1662.77 685.73 1668.13 683.041 1672.54C681.303 1675.38 678.794 1677.81 677.702 1681.01C675.957 1686.14 676.234 1693.56 676 1699C679.215 1696.94 679.694 1693.35 681.389 1690C686.163 1680.57 691.536 1668.65 692 1658L690 1658M641 1736C645.624 1728.91 652.386 1720.34 654 1712C647.112 1714.32 644.11 1718.62 639.718 1724.13C635.698 1729.18 633.98 1733.19 641 1736M663 1721C661.4 1725.93 657.95 1729.77 655.778 1734.42C649.764 1747.32 642.086 1759.66 636.834 1773.04C634.056 1780.12 631.404 1791.62 624 1795C624.464 1797.17 625.105 1798.96 626 1801C631.716 1797.32 634.437 1786.15 637.427 1780.01C639.628 1775.5 642.791 1771.61 644.88 1767C648.161 1759.76 650.639 1752.18 654.345 1745.09C658.204 1737.71 663.536 1729.22 665 1721L663 1721M880 1813C896.366 1812.82 902.873 1802.39 903 1787C897.321 1789.67 894.126 1794.99 889.961 1799.5C885.932 1803.86 881.555 1807.02 880 1813M623 1807C616.002 1814.93 610 1823.64 603.204 1831.71C598.045 1837.85 593.341 1841.53 592.286 1850C591.785 1854.03 593.026 1857.29 593.171 1861.17C593.317 1865.1 591.487 1867.49 596 1869C597.396 1865.01 599.883 1861.81 601.525 1857.96C606.407 1846.53 611.674 1835.29 616.954 1824C619.396 1818.78 624.51 1813.12 623 1807M569 1847C575.452 1844.93 581.946 1836.89 585 1831C578.019 1833.4 570.617 1839.63 569 1847z"
     style="fill:#a3b2d5; stroke:none;" />
  <path
     id="path42"
     d="M1558 1845L1558 1840C1556.08 1839.5 1553.31 1838.2 1551.32 1838.81C1548.8 1839.59 1548.67 1843.49 1550.6 1844.96C1552.59 1846.47 1555.81 1845.4 1558 1845z"
     style="fill:#907a84; stroke:none;" />
  <path
     id="path44"
     d="M580 1930C581.19 1933.77 583.172 1934.57 587 1935L587 1929C584.558 1929.11 582.377 1929.43 580 1930z"
     style="fill:#a3b2d5; stroke:none;" />
  <path
     id="path46"
     d="M463 1969C456.554 1970.06 452.21 1977.86 455.176 1984C459.158 1992.25 467.398 1999.77 474 2005.91C477.2 2008.89 480.864 2012.38 485 2013.99C495.301 2017.99 504.246 2008.47 507.846 2000C515.911 1981.01 521 1959.75 521 1939C516.658 1939.69 512.094 1943.28 511.677 1948.09C511.416 1951.11 513.047 1953.89 512.657 1957C511.132 1969.15 508.652 1982.56 504.27 1993.99C502.588 1998.37 498.329 2004.67 492.996 2004.71C488.903 2004.74 484.954 2000.98 482.001 1998.54C478.22 1995.41 475.192 1991.65 471.95 1988C466.147 1981.46 462.651 1977.85 463 1969z"
     style="fill:#907a84; stroke:none;" />
  <path
     id="path48"
     d="M606 2006C601.29 2010.67 596.705 2015.62 591.881 2020.14C587.479 2024.25 581.97 2027.74 581 2034C589.522 2030.2 596.522 2022.5 601.85 2015C603.859 2012.17 606.475 2009.54 606 2006M291 2057C293.865 2055.58 296.391 2053.85 299 2052C294.562 2050.29 291.726 2052.55 291 2057M532 2055C536.399 2056.84 540.596 2055.17 545 2054C540.558 2052.14 536.471 2054.08 532 2055M435 2067C442.202 2069.81 451.779 2065.23 459 2064C452.041 2061.09 441.995 2065.27 435 2067z"
     style="fill:#a3b2d5; stroke:none;" />
</svg>
