<?xml version="1.0" encoding="UTF-8" standalone="no"?>
<svg
   xmlns:dc="http://purl.org/dc/elements/1.1/"
   xmlns:cc="http://creativecommons.org/ns#"
   xmlns:rdf="http://www.w3.org/1999/02/22-rdf-syntax-ns#"
   xmlns:svg="http://www.w3.org/2000/svg"
   xmlns="http://www.w3.org/2000/svg"
   version="1.1"
   id="svg2"
   height="1467"
   width="2200">
  <metadata
     id="metadata10">
    <rdf:RDF>
      <cc:Work
         rdf:about="">
        <dc:format>image/svg+xml</dc:format>
        <dc:type
           rdf:resource="http://purl.org/dc/dcmitype/StillImage" />
        <dc:title></dc:title>
      </cc:Work>
    </rdf:RDF>
  </metadata>
  <defs
     id="defs8" />
  <path
     id="path4"
     d="m 771.55091,463.76909 c 51.79902,42.4584 70.07433,112.2767 80.52002,176 4.22461,43.76339 16.23693,-22.65851 1.06717,-37.53752 -14.29346,-53.4992 -28.806,-113.86734 -77.61875,-146.65029 -7.38523,-39.43183 11.74235,-114.15064 61.6458,-118.74641 36.33141,-3.98502 117.0147,-28.71552 95.09578,-70.22935 -6.60999,45.7954 -60.36473,56.26889 -98.71554,62.29328 -52.3638,-1.88082 -57.68935,62.56279 -72.42641,100.15691 -8.11676,51.04177 26.47745,97.14164 25.28874,148.63871 8.52029,58.40144 53.09345,105.14349 50.49865,166.64448 0.80802,60.58665 36.43908,109.42589 71.35126,155.47809 36.82209,61.18848 55.6819,141.24151 19.10471,207.07921 -25.81337,40.7329 -14.07946,90.6881 12.1732,127.8341 36.49634,46.881 -22.63852,-48.3037 -19.46962,-66.8796 -3.09367,-44.3218 38.3535,-77.009 36.02793,-121.9302 C 965.00618,935.24705 873.16498,851.92239 861.6975,745.3753 853.95964,696.91997 838.00173,649.55106 807.44466,610.54157 787.96923,564.42956 790.31098,511.28663 771.55091,463.76909 Z m 327.99999,752.00001 c 23.5156,19.5575 7.2433,-58.6648 17.0085,-9.2663 16.5371,57.0234 21.5157,-31.1747 2.4164,-47.3342 -11.0613,-18.3907 -19.451,-65.1312 -32.5749,-18.3995 -12.7781,25.1515 -17.5526,101.6655 21.8744,83.6477 l -2.8494,-3.1791 -5.875,-5.4686 z m 45,11 c 24.0875,-15.5223 -0.9564,-46.3656 0,0 z m 76,-259.00001 c -53.9504,-31.35132 -93.3041,-83.67911 -106.5696,-144.8588 -21.2507,-81.68095 18.736,-164.40647 3.973,-246.82043 -9.2401,-54.95745 57.1869,-48.71776 91.5966,-60.32077 -1.2596,24.28311 34.1833,69.76294 18.5151,19.34627 -7.4803,-26.67409 -29.8011,-53.40702 9.5465,-56.84729 -12.504,-10.76672 -38.3635,15.20313 -26.5608,-23.43781 5.7957,-33.54727 -9.1162,-48.61167 -29.7841,-19.12672 -57.8126,45.35922 -99.9465,125.68212 -70.883,198.76271 3.8295,67.53611 -26.407,136.87133 -0.1229,203.10176 10.3868,41.77133 58.379,110.0906 65.3729,121.24495 9.4478,-34.87467 1.5318,51.79454 16.0341,4.2779 10.0548,2.71559 4.0965,52.67774 14.8822,5.67823 8.5395,6.96658 10.487,44.18181 16,13 14.0489,10.57511 -4.3234,53.67641 16,15 4.2029,24.95281 30.5236,16.58641 16,46.00001 40.4951,-19.3653 23.3784,66.2212 7.7118,89.956 -16.405,16.5644 -2.2438,100.254 -3.3993,43.5471 7.228,-48.3837 47.0142,-96.1274 15.9823,-145.0556 -1.0305,-30.8721 -41.2439,-38.86535 -48.1048,-70.03951 -4.023,-2.67116 -5.904,4.61274 -6.19,6.592 z m 87,-324 c -6.3604,-28.2501 -72.514,-60.98803 -13.4374,-79.66405 60.5507,-21.91699 120.6146,-45.23034 180.2101,-69.77872 45.4434,-9.93318 103.0015,-51.122 75.3036,-103.88361 -34.967,-67.83221 -105.8178,-103.87686 -158.3326,-156.06939 -48.5531,-38.92622 -90.4367,-85.28111 -132.7181,-130.3372 -23.8585,9.11741 32.449,61.07436 49.5363,81.97672 34.2309,39.14341 87.5678,58.95721 110.2629,108.29135 22.3042,37.8392 50.518,75.31818 88.8369,97.80101 53.0418,12.25133 -31.2697,14.66771 -37.7817,-17.2243 -11.528,-50.69971 -68.1313,-5.42851 -98.6374,-38.72181 -60.0808,-58.82253 -113.7844,-123.73483 -164.3339,-190.84125 -24.729,7.8453 40.0961,57.42527 50.6645,80.07238 30.9199,42.88161 69.3789,79.01991 106.4268,116.37887 -61.2693,4.7697 -127.4769,-35.34378 -182.5804,10.79674 -12.8538,17.09895 -20.5262,-40.5949 4.0354,-16.71799 46.4547,-19.08552 -49.1991,-68.17864 4.5371,-94.13969 14.9855,-33.04075 -9.9992,-103.74909 -45.243,-79.99328 58.9435,14.40452 33.9559,82.3954 17.6209,117.00422 20.0508,21.73868 42.223,55.58988 -3.55,45.55 7.2267,16.54574 1.6219,77.54051 -20.33,43.64812 -23.3274,-14.31575 -69.5456,-19.45664 -101.9106,-43.39671 -24.8375,-1.48484 -50.22228,-89.78868 -40.12125,-30.93282 23.86595,50.7333 87.68495,57.91822 131.54185,84.94441 14.0705,16.76167 24.8025,42.86396 32.0423,6.20634 39.4336,-53.48538 109.4057,-50.02751 165.6432,-31.47891 45.8403,6.96238 113.0084,-16.3446 139.3555,33.73057 16.6567,41.36733 84.8056,15.311 77.8295,16.85997 14.8941,62.05292 -64.1685,79.82848 -107.8705,95.40603 -66.8564,25.76505 -138.5355,44.8906 -196.58,87.839 -17.5835,45.31844 -18.4851,96.58774 -17.4805,144.92334 10.2392,117.98837 114.408,193.6912 161.6881,295.60027 27.6635,46.7334 46.3344,134.0681 64.5816,162.1779 -4.5486,-47.1965 -27.7741,-92.1877 -43.8342,-137.0275 -30.4732,-79.73122 -91.9169,-140.74293 -134.5586,-213.27598 -14.9224,-37.32982 -52.7744,-84.12886 -28.6617,-124.0463 34.4075,-14.48 41.2404,-50.55739 67.8453,-71.67773 z m -156,548.00001 c 8.6084,-20.9283 -4.7565,-75.5471 -23.4031,-69.9904 20.9128,18.2415 17.8182,48.8289 23.4031,69.9904 z m -46,-7 c -1.7062,-7.7037 6.466,0.7979 0,0 z m -16,-23 c 16.5779,13.9967 2.7438,16.3161 0,0 z m 1,-4 c -0.9373,-8.3299 5.8022,1.5634 0,0 z m 4,-13 c 1.4951,-7.2071 4.3188,1.9121 0,0 z m 10,-40 c -3.4995,-34.235 -33.5142,-8.9295 -8.08,8.487 4.2955,-0.9675 4.2723,-6.8018 8.08,-8.487 z m -101,-235.00001 c -3.1882,17.74841 2.3933,42.31491 23,67 5.707,-35.28101 0.8716,18.2244 22,20 -13.461,3.92044 21.5462,5.96599 -5.67,12.77 3.9054,19.26873 52.7496,90.76461 32.6979,31.25621 -19.7638,-45.58205 -27.129,-95.73477 -45.2179,-141.47321 -8.5102,-11.0496 -44.71126,-10.55248 -26.81,10.447 z m 65,135.00001 c -8.839,-7.15081 1.1035,-3.4223 0,0 z m -11,-18.00001 c 4.2129,-5.70897 11.3067,9.78459 0,0 z m -10,-47 c -7.4538,-3.59251 1.0567,-12.10171 0,0 z m -3,-9.333 0,-1.334 0,1.334 z m -2,-13.667 c 3.1292,7.09235 -7.4982,1.7746 0,0 z m -24,0 c -15.8263,-15.88235 7.3236,-7.74956 0,0 z m 6,-6 c 19.3849,-6.76265 21.5526,8.11128 0,0 z m -14,-9 c -17.33003,-26.70574 52.8359,13.19371 6.3392,-0.95148 l -6.3392,0.95148 z m 3,-26 c 22.6405,-7.34249 22.2702,20.98146 0,0 z m 14,-5 c -21.5656,-5.64441 -2.7892,-13.88112 0,0 z m -3,-17 c -17.9899,-28.09523 -50.83455,-43.17475 -74.99997,-65 14.4497,15.19015 -3.39482,19.35504 23.99789,36.18119 15.4586,11.78541 31.48338,24.81395 51.00208,28.81881 z m -6.97,-25.311 c -14.2214,-10.35701 -92.09767,-70.47076 -42.09606,-24.81066 13.54772,7.50023 26.03676,24.16005 42.09606,24.81066 z m -2.03,-5.689 c -11.4982,-19.27413 -80.28961,-61.90113 -32.17779,-21.38245 9.84119,8.2458 19.58649,17.57494 32.17779,21.38245 z m 73,-8 c -16.3628,-33.31507 -66.2872,-46.34756 -64.3775,-88.745 -3.8521,-38.40901 18.029,-86.70629 18.5475,-116.088 -22.5464,36.60548 -23.675,87.09442 -25.0817,130.22775 8.3941,32.15566 41.8621,61.08542 70.9117,74.60525 z m -139.99997,-286 c 5.0551,20.58615 13.91023,83.91168 14.15031,30.30637 -1.77177,-19.9809 -26.01047,-87.56907 -15.65961,-74.11584 12.4931,32.09225 17.06548,72.16988 43.5093,95.80947 -24.68245,-48.17329 -42.30746,-100.0282 -53.46516,-153.36077 -16.55518,-26.42785 7.54325,35.79896 -5.53484,16.36077 -4.3106,38.11242 1.12801,85.0458 2.71743,129.04128 4.75226,58.27605 21.0444,115.06669 43.28257,168.95872 -14.99397,-10.83597 -50.02493,-56.27301 -28.40937,-10.83433 12.84818,23.66597 24.97628,10.05561 40.54982,44.40578 9.39748,12.92631 -64.67009,-54.51051 -27.06045,-10.43245 24.95922,15.44152 74.60667,79.84428 54.83637,18.81319 -20.38526,-57.64602 -59.82857,-107.84319 -66.75762,-170.28607 -4.87408,-27.90971 -5.80074,-56.54898 -2.15875,-84.66612 z m 153.99997,276 c -20.4263,-26.00086 -54.1127,-63.90304 -73.8249,-79.31139 12.386,30.81118 42.6701,64.93182 73.8249,79.31139 z m -11.67,-29.333 -0.66,-0.334 0.66,0.334 z m -1.33,-1.667 c 20.497,-3.02206 -63.2538,-83.68417 -18.4012,-37.152 50.646,49.98654 -38.0092,-55.60151 -22.9306,-42.92395 13.2823,24.2693 63.1166,69.71401 29.9062,22.01518 -17.6395,-18.07249 -54.282,-75.05843 -41.3719,-22.00923 19.1248,13.50391 -19.2463,11.20752 6.4675,32.07 13.6883,17.05893 23.8186,41.06811 46.33,48 z m -110.99997,-23 c -2.70922,-7.68642 5.23456,2.25692 0,0 z m 70.99997,-104 c 9.8874,24.15962 71.8842,84.93582 34.2338,29.53362 -12.9903,-16.35808 -47.3744,-65.66684 -37.7003,-12.30991 -1.8926,19.69411 68.3739,83.11545 34.3665,38.77629 -14.1261,-16.07322 -26.3884,-34.7969 -30.9,-56 z m 183,71 c 1.7418,-41.57878 -7.5153,-92.31051 22.0952,-126.38256 7.1608,9.3485 52.666,51.82271 24.9048,75.38256 -4.078,-12.81267 -0.9244,-45.03951 -21.1806,-32.19767 -19.0693,-29.99696 8.6458,100.7598 -5.1014,42.38369 0.053,-18.74409 -7.1391,-82.07458 -9.278,-33.18602 -14.5615,27.88477 25.0221,59.65418 -11.44,74 z m 30,-27 c -1.6947,-21.51701 -5.6281,-53.66948 2.2116,-14.87591 12.0331,4.68613 3.7585,8.14617 -2.2116,14.87591 z m -160,-3 c -9.0399,-31.3539 -51.361,-73.5168 -58.4978,-102.98396 1.9661,38.42751 27.0063,79.33499 58.4978,102.98396 z m 165,-36 c 7.6182,6.92336 5.0465,28.88274 0.7793,8.67476 l -0.7793,-8.67476 z m 14.55,-1.224 c 10.871,-26.08008 -23.2672,-15.5921 0,0 z m -181.62,-6.095 c -7.9164,-10.20087 -36.9576,-69.72515 -43.4787,-50.54175 12.12,15.95133 22.6555,46.79398 43.4787,50.54175 z m -21.93,-98.681 c 30.6972,-7.61654 -27.1216,-69.17174 -25,-18 -16.392,27.66317 65.1996,59.90803 25,18 z m 48,-14 c 9.1102,-33.11142 47.1833,-89.72061 73.0023,-84.73043 6.1866,41.7877 16.5209,91.05152 -45.0023,68.45643 -11.5363,0.79946 -18.8274,10.68611 -28,16.274 z m -179.99997,-9 c -2.70922,-7.68642 5.23456,2.25692 0,0 z m 160.99997,-31 c -14.8963,-0.28714 -27.0186,-18.72139 -7.6484,-5.4724 3.1146,-21.1451 -33.7908,-78.43946 -17.6741,-25.59248 9.5014,13.04216 -31.4698,-57.31716 -12.5559,-5.12775 17.3031,24.61946 6.3293,37.68779 0.9061,7.19074 -1.1111,-21.824 -30.9866,-53.55589 -14.0277,-10.99811 -7.1209,-25.99354 -28.438,-28.04031 -9.9372,-0.45713 19.7199,33.69616 -34.2995,-46.26975 -20.9975,-12.7802 -29.33506,-6.6079 39.9154,57.84198 67.0632,59.64263 34.9651,22.60399 38.9522,-34.25554 20.013,-38.68834 -2.7936,25.52832 3.1561,36.64744 -7.1896,5.38452 -14.6154,-39.86302 -9.8182,19.6604 2.0481,26.89852 z m -40,-17 c -25.9029,-12.32793 -4.6249,-16.23783 0,0 z"
     style="fill:#161616;stroke:none" />
</svg>
