<?xml version="1.0" standalone="yes"?>
<svg xmlns="http://www.w3.org/2000/svg" width="2200" height="1467">
<path style="fill:#777777; stroke:none;" d="M0 0L0 1467L2200 1467L2200 166C2197.25 164.832 2194.97 163.461 2192 163C2192.29 154.862 2187.81 159.503 2183.15 158.289C2181.34 157.816 2180.23 156.269 2179 155L2188 154L2178 148C2179.48 147.014 2179.2 147 2181 147L2181 143L2176 144C2177.46 141.383 2178.23 138.895 2179 136C2176.42 136.322 2174.4 136.973 2172 138L2172 132L2168 132C2169.61 129.429 2169.64 127.005 2170 124C2167.05 123.471 2164.9 123.263 2162 124L2163 121L2159 120C2160.42 116.01 2161.01 113.89 2159 110L2163 110C2161.68 104.383 2158.33 100.131 2156 95L2149 95C2150.35 93.2327 2151.12 92.0175 2152 90C2148.68 90.0251 2146.47 89.1976 2144 87C2148.11 86.9968 2151.33 86.959 2155 85L2152 80L2146 83C2146.35 80.4003 2146.1 79.4133 2145 77C2146.85 77.202 2148.15 77.202 2150 77C2147.56 75.6831 2144.71 76.2064 2142.34 74.9012C2139.27 73.2101 2137.75 69.1844 2137 66C2133.97 66.5621 2131.08 66.9365 2128 67C2127.59 64.9075 2127.78 64.9801 2126 64L2127 62C2124.68 59.6042 2123.57 56.9216 2122 54L2128 54C2126.01 52.0594 2124.39 50.8008 2124 48L2120 47C2120 48.7971 2120.01 48.5211 2121 50C2118.48 48.1934 2117.83 47.3925 2120 45C2117.99 43.4155 2116.54 42.0331 2115 40L2109 41C2110.52 40.042 2111.34 39.6132 2113 39C2112.16 37.0841 2112.02 36.7772 2113 35C2111.49 34.3169 2110.69 34.1742 2109 34L2109 32L2115 32C2112.01 28.5795 2107.71 30.6765 2104 32L2104 37L2098 36C2101.47 33.1592 2104.71 30.371 2106 26L2099 29L2096 24C2098.43 23.3275 2100.44 21.9974 2098 20C2100.18 19.1766 2101.67 18.8875 2104 19L2104 15C2106.45 15.139 2106.68 15.0707 2108 13L2104 12C2105.44 10.5505 2106.11 9.77808 2107 8C2103.84 7.12634 2098.42 5.97668 2100 2C2093.73 -0.511475 2085.69 0 2079 0L2043 0L1918 0L1487 0L0 0z"/>
<path style="fill:#191919; stroke:none;" d="M2092 0C2094.69 1.44836 2096.98 1.24512 2100 1C2096.94 5.88611 2102.96 7.30176 2107 8L2104 11C2105.54 12.2666 2106.05 12.4893 2108 13C2106.38 14.4556 2106.14 14.5691 2104 15L2104 19C2101.88 18.7535 2100.13 18.7695 2098 19C2098.85 21.7252 2098.42 22.5485 2096 24L2099 29C2101.49 28.2229 2103.67 27.1827 2106 26C2104.17 29.7906 2101.37 32.498 2098 35C2099.97 36.0629 2101.8 36.532 2104 37C2104.2 35.1504 2104.2 33.8497 2104 32C2108.17 31.0193 2111.23 29.1609 2115 32C2112.91 31.7618 2111.11 31.8159 2109 32L2109 34L2113 34C2111.54 35.9138 2110.99 36.5476 2113 38L2109 40C2111.24 40.8109 2112.65 40.5288 2115 40C2116.33 42.5972 2117.44 43.5909 2120 45C2118.52 45.9858 2118.8 46 2117 46C2118.15 48.2488 2118.75 48.8466 2121 50L2120 47L2124 48C2124.14 51.1472 2125.07 51.8832 2128 53C2125.89 53.6438 2124.21 53.9059 2122 54C2123.24 57.1998 2124.16 59.9955 2127 62L2126 64C2127.2 65.2233 2127.32 65.4196 2128 67C2131.12 66.9738 2133.96 66.7241 2137 66C2138.13 74.2986 2142.61 75.5979 2150 76C2148.1 76.8041 2147.05 77.0493 2145 77C2145.62 79.1167 2145.94 80.8022 2146 83C2148.22 82.1897 2149.99 81.2616 2152 80C2152.76 82.1771 2153.45 83.2856 2155 85C2151.26 86.5859 2148.04 86.9862 2144 87C2146.09 89.7834 2148.61 90.2164 2152 90L2149 95C2151.41 95.2717 2153.58 95.2008 2156 95C2157.46 100.255 2161.11 104.768 2163 110L2159 110C2160.45 113.921 2159.92 116.039 2159 120L2163 121C2162.01 122.479 2162 122.203 2162 124C2164.78 123.555 2167.2 123.703 2170 124C2169.44 126.461 2169.16 128.791 2168 131C2169.51 131.683 2170.31 131.826 2172 132L2172 138L2179 136L2176 144L2181 143C2180.33 145.298 2180.03 145.774 2178 147C2180.96 150.546 2183.29 152.643 2188 153C2185.04 154.079 2182.12 154.525 2179 155C2180.13 156.658 2181 158.208 2183.15 158.632C2187.74 159.536 2191.85 155.472 2192 163L2200 166L2200 0L2092 0M1357 101C1357.71 111.652 1366.7 121.843 1371.62 131C1381.97 150.242 1394.18 175.546 1392.91 198C1392.07 212.855 1386.94 229.071 1379.68 242C1374.72 250.823 1368.53 258.547 1364.55 268C1357.94 283.677 1358.13 301.365 1356.91 318C1356.19 327.744 1353.71 337.087 1355.46 347C1358.56 364.51 1364.9 380.904 1369.12 398C1370.06 401.791 1369.05 405.232 1369.51 409C1370.18 414.391 1372.49 420.117 1374.78 425C1382.51 441.433 1392.66 456.368 1401.77 472C1409.13 484.62 1415.66 497.96 1422.25 511C1425.98 518.392 1431.38 525.144 1434.11 533.001C1441.13 553.166 1443.86 573.352 1448.42 594C1450.24 602.207 1453.99 609.835 1455.71 618C1460.16 639.055 1462.53 660.137 1469.37 680.714C1472.49 690.108 1476.78 699.854 1482.44 707.999C1485.94 713.047 1490.64 716.903 1494.06 722.001C1502.92 735.18 1511.17 750.65 1515.39 766C1519.31 780.254 1519.05 795.445 1521.3 810C1522.67 818.871 1525.63 827.288 1527.48 836C1528.18 839.301 1527.84 842.694 1528.51 846C1531.52 860.704 1536.85 875.94 1542 890C1529.94 886.863 1521.26 871.485 1514.29 861.985C1496.72 838.023 1486.98 811.088 1478.56 783C1475.79 773.771 1470.79 765.688 1469.27 756C1468.25 749.456 1467.75 742.384 1466.08 736C1464.09 728.428 1460.87 720.929 1460.39 713C1460.12 708.506 1465.87 700.088 1458.94 698.323C1452.95 696.796 1450.83 701.032 1450.41 706C1449.83 712.755 1450.26 717.385 1452.15 724C1455.9 737.117 1457.16 750.916 1460.91 764C1465.81 781.129 1472.46 797.869 1477.51 815C1480.18 824.046 1485.57 832.813 1490.14 841C1499.05 856.967 1508.63 872.039 1520.61 885.961C1524.42 890.374 1529.14 894.116 1534 897.304C1536.85 899.177 1541 900.829 1542.4 904.185C1543.96 907.939 1542 912.286 1541.31 916C1539.23 927.164 1536.14 937.15 1532.91 948C1528.93 961.317 1523.69 973.308 1518.21 986C1514.81 993.867 1511.85 1003.02 1504.96 1008.61C1499.17 1013.29 1490.02 1013.45 1483 1015.13C1471.31 1017.93 1459.68 1021.56 1448 1024.19C1442.39 1025.44 1436.52 1025.33 1431 1026.71C1418.19 1029.89 1403.53 1038.8 1393 1046.61C1388.5 1049.95 1384.78 1054.01 1380 1057C1380.29 1055.23 1380.92 1053.06 1380.17 1051.31C1378.7 1047.94 1374.45 1049.74 1373.03 1052.15C1370.41 1056.58 1371.53 1065.83 1370.95 1071C1368.95 1088.84 1368.09 1107.04 1368 1125C1367.97 1130.96 1361.85 1144.48 1369 1147C1365.3 1177.36 1348.71 1203.48 1339 1232C1338.92 1224.85 1342.65 1216.93 1344.58 1210C1348.54 1195.73 1351.89 1181.21 1356.04 1167C1357.76 1161.08 1358.85 1155.06 1360 1149C1360.42 1146.77 1361.35 1143.63 1359.81 1141.61C1358.35 1139.7 1355.59 1140.32 1354.6 1142.32C1352.64 1146.27 1352.67 1152.61 1351.36 1157C1345.74 1175.84 1341.37 1195.08 1336 1214C1334.66 1211.21 1333.96 1209.96 1331 1209C1335.45 1195.84 1340.33 1182.49 1343.66 1169C1345.46 1161.74 1345.63 1154.22 1347.3 1147C1348.2 1143.1 1350.95 1140.01 1351.67 1136C1354.34 1121.19 1352.99 1105.02 1354.09 1090C1354.85 1079.61 1357.97 1069.52 1358 1059C1360.94 1068.96 1359 1081.63 1359 1092C1359 1099.09 1358.84 1105.96 1358.17 1113C1357.77 1117.24 1358.7 1121.92 1357.27 1126C1356.24 1128.94 1352.62 1132.32 1353.85 1135.68C1354.98 1138.77 1358.94 1137.44 1360.9 1136.11C1364.48 1133.66 1366.29 1129.17 1366.81 1125C1367.9 1116.34 1366.42 1107.62 1366.04 1099C1365.57 1088.37 1366 1077.64 1366 1067C1366 1060.29 1369.47 1042.26 1359 1044C1359 1041.4 1359.6 1037.72 1358.4 1035.32C1356.67 1031.89 1353.06 1034.35 1352.32 1037.06C1351.37 1040.49 1352.17 1044.47 1351.83 1048C1351.16 1055.03 1350 1061.92 1350 1069C1347.6 1061.96 1347.52 1054.56 1339 1053C1336.72 1058.7 1339.52 1062.28 1339.74 1068C1340.03 1075.51 1336.63 1091.03 1331 1096C1334.66 1087.14 1327.59 1087.33 1321 1085C1324.07 1079.21 1321.71 1073.96 1320 1068C1317.98 1060.97 1316.5 1053.08 1312.2 1047C1309.45 1043.11 1305.54 1040.19 1302 1037.05C1288.39 1024.99 1270.55 1013.05 1253.71 1006.03C1244.24 1002.08 1233.57 1000.4 1224 996.279C1211.3 990.809 1199.38 982.898 1187 976.687C1178.9 972.622 1174.24 965.55 1169.75 958C1166.98 953.357 1165.53 947.664 1160 946C1156.84 953.461 1162.82 960.43 1157.81 967C1153.03 973.266 1147 977.902 1141.09 982.999C1115.32 1005.22 1079.64 1019.97 1045 1015.71C1033.21 1014.27 1021.34 1010.48 1010.01 1007.07C1004.45 1005.39 1000.02 1002.33 994 1002.04C981.759 1001.45 969.353 1003.5 957 1002.96C937.354 1002.1 917.447 998.306 898 995.427C890.344 994.294 882.647 994.196 875 993.13C871.829 992.689 868.009 992.567 865.214 990.836C862.336 989.053 861.088 985.453 859.323 982.714C855.87 977.357 852.286 971.134 847.625 966.749C838.794 958.442 828.489 948.6 817 944.133C813.435 942.747 809.722 943.171 806 942.714C795.473 941.42 782.005 940.313 775.314 951.21C773.756 953.747 773.543 957.129 773 960C771.821 956.518 770.854 952.716 770.877 949C770.958 935.777 786.826 927.098 798 924.529C801.312 923.768 804.701 924.043 808 923.123C812.049 921.995 816.042 920.475 820 919.065C827.183 916.507 832.993 906.641 840.996 909.062C850.764 912.018 858.616 921.049 865.985 927.575C870.974 931.992 874.011 935.792 881 936C882.353 940.077 885.101 939.802 889 940.438C895.027 941.421 900.951 942.473 907 943.289C911.921 943.952 917.004 946.166 922 945.832C944.227 944.344 970.699 928.464 979 907L981 907C982.354 912.702 985.317 921.216 991.04 923.932C994.964 925.795 1000.02 922.881 1004 922.3C1012.07 921.124 1019.06 923.371 1027 923.039C1033.6 922.763 1048.28 924.878 1050 917C1057.7 916.139 1060.61 908.834 1062.57 902C1066.97 886.656 1061.51 870.808 1057.71 856C1056.49 851.235 1052.83 843.997 1054.61 839.104C1055.95 835.437 1060.54 833.159 1064.01 832.055C1072.81 829.265 1083.84 830 1093 830C1093.04 842.746 1098.65 855.502 1101 868C1094.26 866.297 1086.22 869.656 1080 872.363C1077.61 873.408 1073.88 875.425 1074.89 878.687C1075.72 881.383 1079.83 881.11 1082 880.87C1087.36 880.276 1098.15 877.67 1101 873C1103.82 879.117 1102.85 888.219 1103.01 895C1103.36 908.757 1104.54 922.298 1102 936C1105.35 938.232 1107.95 939.642 1112 940C1113.44 932.888 1119.68 929.557 1125 925.26C1134.84 917.318 1144.4 909.675 1152.7 900C1174.19 874.94 1196.5 847.261 1206.02 815C1208.57 806.366 1208.98 795.971 1209.83 787C1211.11 773.553 1212.54 758.271 1209.57 745C1208.53 740.319 1207.2 735.364 1205.09 731.039C1203.91 728.619 1201.93 726.575 1201.3 723.911C1200.5 720.543 1200.89 716.438 1201.04 713C1202.07 689.575 1207.61 667.265 1209.83 644C1210.87 633.065 1209.11 621.934 1210.17 611C1211.38 598.529 1214.64 585.577 1213.91 573C1213.63 568.312 1211.45 564.468 1210.47 559.985C1208.69 551.762 1208.34 543.192 1206.41 535C1204.54 527.103 1201.38 519.696 1198.89 512C1192.05 490.902 1183.85 470.294 1172.72 451C1167.11 441.281 1160.56 432.217 1152.91 424C1149.12 419.932 1142.42 415.396 1140.6 409.961C1138.2 402.778 1143.55 394.135 1144 387C1136.28 390.195 1135.93 398.658 1135 406C1132.47 404.412 1129.44 402.716 1128.07 399.91C1124.72 393.053 1133.56 383.996 1130.38 377.337C1128.82 374.056 1125.61 377.093 1124.57 379.059C1122.15 383.669 1121.24 390.845 1121 396C1105.51 389.977 1120.35 376.303 1117.64 365.149C1116.93 362.231 1114.01 361.974 1112.39 364.323C1110.26 367.426 1109.21 372.374 1108.34 376L1106 386C1102.88 383.689 1097.87 380.951 1096.78 376.961C1095.15 371.032 1101.85 364.064 1099.36 358.323C1098.31 355.895 1095.67 356.433 1094.42 358.323C1091.87 362.169 1090.67 368.497 1090 373C1086.45 370.502 1081.03 366.714 1080.53 362C1079.82 355.383 1088.56 347.653 1086.3 341.323C1085.12 338.027 1081.78 340.333 1080.53 342.149C1077.45 346.606 1075.42 352.812 1074 358L1072 358C1070.58 354.953 1067.29 352.237 1066.52 349C1065.14 343.155 1071.93 335.773 1062 335C1061.57 337.469 1060.87 339.645 1060 342C1057.05 338.79 1052.21 334.567 1051.64 330C1050.91 324.139 1056.41 317.505 1058 312C1050.44 312.57 1048.8 318.274 1044 323C1042.97 317.013 1039.86 311.758 1038.03 306C1035.99 299.607 1035.63 293.54 1034.7 287C1034.07 282.574 1032.61 278.539 1033.33 274C1035.36 261.091 1038.25 247.222 1042.95 235C1045.31 228.89 1050.06 223.991 1052.5 218C1054.73 212.533 1055.09 205.786 1056.17 200C1056.86 196.292 1058.54 192.794 1058.79 189C1059.52 177.77 1056.53 160.728 1051 151C1047.71 156.777 1051.03 164.004 1052.33 170C1054 177.688 1054.3 185.306 1052.48 193C1048.52 209.642 1038.12 223.112 1032.82 239C1030.22 246.803 1029.86 255.041 1028.18 263C1027.06 268.305 1024.74 273.464 1025.12 279C1025.37 282.736 1026.93 286.313 1027.56 290C1029.36 300.422 1031.25 310.063 1035.06 320C1036.54 323.834 1039.19 327.171 1040.55 331C1041.9 334.776 1039.05 339.078 1040.64 342.562C1042.27 346.115 1048.64 342.913 1051.65 346.116C1054.95 349.619 1052.55 354.242 1055.04 357.379C1056.84 359.65 1061.47 358.391 1064 360.277C1066.19 361.921 1068.39 364.303 1069.12 367C1069.67 369.064 1068.83 371.672 1070.62 373.296C1073.36 375.781 1077.88 374.239 1081.15 377.333C1083.1 379.185 1084.87 381.197 1085.02 384C1085.15 386.635 1082.57 391.851 1085.6 393.688C1089.68 396.16 1091.58 389.591 1092 387C1096.24 389.805 1101.33 393.168 1104.4 397.286C1105.72 399.053 1105.9 401.755 1107.6 403.204C1110.11 405.345 1113.98 403.386 1116.86 405.202C1120.65 407.601 1120.11 412.679 1123.4 415.378C1126.01 417.51 1128.87 415.094 1131.6 416.562C1136.2 419.047 1135.81 426.584 1140.27 428.307C1142.04 428.99 1144.23 428.309 1146 428C1148.19 432.696 1152.16 435.878 1155.24 440C1160.17 446.594 1164.77 453.762 1168.69 461C1185.45 491.934 1196.92 525.342 1202.27 560C1203.1 565.334 1205.21 570.633 1205.61 576C1206.49 587.888 1203.3 601.132 1202.17 613C1200.94 625.934 1202.13 639.024 1200.83 652C1199.15 668.769 1194.21 685.03 1194 702C1193.88 712.649 1194.43 723.361 1193.96 734C1193.49 744.643 1192.31 755.293 1193.09 766C1194.1 779.771 1199.76 795.185 1190.42 807.83C1188.21 810.816 1184.81 813.048 1182 815.424C1175.62 820.813 1167.73 830.656 1159 831.771C1153.47 832.477 1148.43 828.756 1143 828.174C1130.68 826.854 1113.81 831.662 1104 839C1102.13 829.826 1099.83 822.667 1096.1 814C1094.24 809.688 1094.14 805.857 1089 805C1087.83 800.015 1084.56 796.191 1084 791L1080 791C1080.35 796.203 1083.3 800.241 1084.66 805.17C1086.13 810.524 1086.69 816.482 1088 822C1083.12 823.041 1078.91 821.99 1074.01 822.029C1068.84 822.07 1064.05 823.206 1059 824.196C1055.9 824.803 1052.05 824.849 1049.46 826.858C1042.28 832.434 1045.27 843.595 1046.74 851C1049.61 865.433 1057.23 879.072 1055.28 894C1054.54 899.695 1053.68 905.439 1049.32 909.682C1046.65 912.278 1043.43 911.848 1040 912.089C1032.54 912.616 1026.32 911.816 1019 911.454C1015.35 911.273 1011.71 912.893 1008 912.999C1004.27 913.106 998.516 915.218 995.185 913.223C989.586 909.869 988.533 895.486 980.957 896.438C973.388 897.389 970.147 905.662 965.965 910.961C959.953 918.576 951.295 925.72 943 930.718C926.117 940.89 907.081 933.427 889 932C887.362 924.255 879.3 924.056 874.44 918.892C871.125 915.369 868.708 911.191 864.957 908.055C857.506 901.825 842.695 896.414 833 899.564C828.612 900.99 825.61 904.882 822 907.529C818.688 909.958 814.873 911.132 811 912.339C804.775 914.28 798.225 914.528 792 916.597C783.214 919.518 774.771 924.783 768 931C768.38 923.972 772.618 918.875 776.074 913C779.569 907.057 782.005 901.262 787.286 896.518C798.595 886.359 814.875 880.105 829 875.089C833.229 873.588 837.967 873.561 842 871.61C881.717 852.403 923.615 835.848 965 820.424C984.29 813.235 1004.45 808.522 1023 799.247C1029.74 795.877 1036.27 792.07 1043 788.708C1045.46 787.477 1048.43 787.171 1050.74 785.687C1055.4 782.691 1058.47 776.721 1063.09 773.275C1066.6 770.655 1071.53 771.286 1074.44 767.772C1076.22 765.612 1076.7 762.609 1077.5 760C1079.5 753.498 1081.6 746.691 1082.83 740C1086.88 717.886 1088.56 696.326 1090.09 674C1090.83 663.254 1092.44 652.836 1091.96 642C1091.55 632.662 1090.07 623.304 1089.17 614C1088.41 606.14 1088.92 597.721 1087.37 590C1086.26 584.465 1083.55 579.312 1081.7 574C1077.82 562.888 1074.29 551.717 1069.31 541C1062.36 526.031 1053.38 512.328 1045.33 498C1036.92 483.028 1028.9 467.848 1018.62 454C1002.66 432.5 983.718 413.905 968.54 391.714C933.407 340.348 908.646 285.276 890.565 226C888.419 218.965 885.916 211.635 882.738 205C879.375 197.98 874.956 191.566 872.782 184C870.362 175.581 871 166.652 871 158L867 158C866.123 161.282 864.649 164.577 864.471 168C863.472 187.148 874.619 202.904 880.969 220C883.373 226.471 884.49 233.434 886.595 240C890.16 251.121 894.447 262.072 898.576 273C914.886 316.168 933.7 358.095 960.513 396C969.668 408.943 978.881 422.283 988.786 434.625C996.505 444.244 1005.2 452.923 1012.51 463C1021.71 475.676 1028.77 489.544 1036.61 503C1051.78 529.005 1066.78 555.719 1074.45 585.039C1077.15 595.381 1077.79 607.345 1078.83 618C1079.19 621.693 1080.52 627.373 1079.37 630.91C1077.86 635.581 1071.98 638.557 1068 640.754C1062.77 643.641 1057.49 647.237 1053 651.184C1040.62 662.063 1029.69 675.472 1021.89 690C1018.35 696.574 1016 704.402 1012.03 710.625C1009.74 714.228 1004.84 717.849 1007.12 722.83C1009.64 728.33 1015.44 729.393 1019.71 732.599C1022.66 734.814 1024.73 738.274 1027.17 741C1033.81 748.41 1053.65 765.492 1041.85 776.32C1021.26 795.226 989.525 801.616 964 810.692C924.756 824.647 887.012 842.368 848 856.95C831.092 863.27 814.02 868.662 798 876.89C789.246 881.387 780.902 885.556 774.199 893.093C771.283 896.373 770.573 900.226 768.622 904C765.794 909.471 761.851 914.345 759.349 920C754.866 930.129 758.884 939.811 760.804 950C761.878 955.699 761.06 962.504 763.38 967.83C766.819 975.729 773.365 982.288 778.575 989C790.16 1003.93 802.502 1016.79 816.015 1030.04C823.805 1037.68 831.429 1045.55 840 1052.33C846.713 1057.65 854.283 1061.87 860.826 1067.38C870.615 1075.61 879.185 1085.42 889 1093.73C912.464 1113.57 937.253 1132.22 959.83 1153.08C980.322 1172.01 1000.1 1191.33 1018.83 1212C1026.65 1220.63 1034.66 1229.09 1042.49 1237.71C1046.93 1242.61 1051.18 1248.35 1056.42 1252.42C1069.83 1262.8 1086.71 1269.24 1101 1278.39C1111.93 1285.39 1122.69 1291.71 1129.72 1303.01C1133.17 1308.56 1132.77 1315.18 1135.41 1321C1138.72 1328.29 1143.55 1333.14 1148.68 1339.04C1152.29 1343.19 1154.92 1348.12 1159.04 1351.86C1162.91 1355.37 1167.41 1356.19 1172 1358.21C1176.9 1360.36 1180.46 1362.91 1186 1363C1192.23 1363.09 1198.53 1362.06 1204 1358.9C1207.36 1356.95 1210.28 1353.29 1214.09 1352.31C1223.72 1349.85 1232.67 1355.3 1242 1350.2C1248.17 1346.83 1250.85 1337.23 1257.06 1335.23C1261.64 1333.76 1265.59 1336.32 1270 1337.11C1279.48 1338.82 1288.25 1340.74 1298 1339.91C1311.45 1338.76 1325.19 1330.52 1335.96 1323.08C1340.22 1320.14 1345.08 1317.29 1348.79 1313.67C1351.8 1310.75 1353.72 1306.85 1356.52 1303.71C1360.82 1298.89 1365.73 1294.63 1369.05 1289C1376.64 1276.13 1381.91 1262.6 1387.79 1249C1393.53 1235.71 1400 1222.75 1404.58 1209C1406.6 1202.91 1413.37 1184.78 1405 1182C1405.25 1170.02 1408.89 1156.67 1411.59 1145C1412.5 1141.06 1415.08 1133.12 1410.57 1130.34C1408.77 1129.23 1406.25 1129.46 1405.07 1131.33C1403.67 1133.54 1404.97 1136.37 1403.9 1138.71C1400.9 1145.26 1396.49 1150.5 1394.01 1157.58C1391.68 1164.23 1391.03 1171.42 1388.44 1178C1387.05 1181.54 1383.63 1184.34 1382.73 1188C1381.86 1191.52 1383.6 1195.25 1382.76 1199C1378.46 1218.04 1371.86 1237.74 1365 1256C1363.81 1251.63 1365.4 1248.36 1365.91 1244C1367.78 1228.13 1374.17 1214.06 1379 1199C1376.42 1196.32 1377.31 1194.45 1376.33 1191.09C1375.79 1189.21 1374.26 1187.77 1373.91 1185.83C1373.42 1183.1 1374.76 1179.77 1375 1177C1376.83 1180.57 1380.62 1185.07 1383.97 1179.66C1386.32 1175.84 1383.65 1169.12 1383.16 1165C1382.09 1156.25 1382.4 1149.48 1385.02 1141C1389.17 1127.51 1399.73 1114.83 1407.23 1103C1410 1098.63 1413.77 1095.11 1415 1090C1406.94 1088.67 1402.68 1096.16 1398.59 1102C1392.57 1110.59 1386.65 1119.82 1381.58 1129C1378.9 1133.85 1377.65 1139.86 1374 1144C1376.78 1133.5 1376 1122.81 1376 1112C1376 1104.27 1376.84 1096.69 1377 1089C1384.28 1089.18 1383.53 1082.4 1384.18 1077C1384.7 1072.79 1386.16 1067.53 1388.56 1064C1396.88 1051.77 1415.56 1042.43 1429 1037.02C1435.5 1034.4 1442.31 1034.85 1449 1033.25C1461.78 1030.2 1474.02 1025.91 1487 1023.61C1497 1021.85 1506.14 1023.56 1513.96 1015.48C1522.35 1006.81 1526.63 995.354 1531.03 984.424C1539.22 964.056 1548.52 941.889 1551.09 920C1551.69 914.889 1552.02 909.079 1552.97 904.089C1553.37 901.961 1554.76 900.154 1554.59 897.911C1554.33 894.475 1551.82 891.108 1550.49 888C1548.55 883.495 1547.3 878.639 1545.71 874C1541.01 860.325 1537.05 845.252 1534.46 831C1528.58 798.584 1527.98 764.874 1515.94 734C1511.95 723.772 1504.82 716.16 1499.67 706.714C1497.09 701.965 1496.3 696.193 1494.36 691.17C1490.93 682.327 1486.54 674.258 1484.16 665C1481.36 654.154 1481.27 642.956 1479.56 632C1476.78 614.181 1473.15 596.652 1469.51 579C1465.56 559.803 1462.04 541.706 1453.08 524C1442.01 502.111 1423.01 484.511 1409.68 464C1404.04 455.307 1400.42 444.326 1395.75 435C1381.4 406.299 1366.58 374.449 1364 342L1368 342C1368 320.304 1365.7 299.104 1372.33 278C1376.67 264.162 1387.1 253.256 1392.5 240C1399.58 222.628 1403.49 202.759 1400.56 184C1398.85 173.037 1394.2 163.281 1390.32 153C1385.04 139.036 1377.19 126.43 1369.08 114C1365.66 108.766 1363.42 102.818 1357 101M1213 139C1210.26 137.182 1207.11 133.526 1203.83 132.851C1200.48 132.16 1198.6 135.009 1199.6 137.98C1200.18 139.676 1201.29 141.347 1202 143C1198.72 145.212 1199.89 147.274 1203 149L1203 151C1198.53 153.782 1200.66 155.382 1201.34 159.713C1201.66 161.763 1200.84 163.906 1201 166C1199.2 166 1199.48 166.014 1198 167C1195.33 152.803 1193 139.518 1193 125C1189.75 125.011 1186.01 124.705 1183.31 126.894C1178.04 131.18 1179.67 143.983 1180.09 150C1181.27 166.863 1189.68 183.163 1196.74 198C1198.87 202.494 1198.95 207.464 1200.88 211.946C1202.02 214.602 1204.4 215.966 1206 218.259C1208.96 222.502 1204.97 234.326 1210.32 236.338C1213.07 237.375 1215.54 235.002 1216.95 232.941C1220.86 227.231 1223.42 219.43 1225.94 213C1230.18 202.174 1231.08 192.422 1232.17 181C1232.86 173.751 1234.54 165.327 1233.86 158.089C1233.62 155.629 1232.43 153.415 1232.13 150.961C1231.58 146.547 1230.44 142.381 1229.81 138C1229.51 135.917 1230.02 133.277 1229.24 131.318C1227.78 127.639 1221.96 129.424 1219 129.11C1215.18 128.706 1212.66 125.571 1209 124.747C1200.87 122.915 1203.48 129.641 1207.01 133.085L1213 139M1161 159C1162.92 153.737 1162.93 148.4 1164.24 143C1165.59 137.45 1167.88 132.819 1168 127C1159.09 128.407 1156.21 140.201 1156.01 148C1155.89 152.958 1155.57 157.466 1161 159M1160 162C1159.98 167.197 1158.2 171.884 1158.02 177C1157.42 193.439 1160.57 207.391 1168.19 222C1171.56 228.461 1177.68 238.533 1186 237C1182.92 227.352 1172.35 221.55 1169.51 211.985C1164.74 195.926 1167.32 177.705 1162 162L1160 162z"/>
<path style="fill:#777777; stroke:none;" d="M1223 169L1223 172C1223.7 170.446 1223.7 170.554 1223 169M1205.33 170.667C1205.28 170.722 1205.22 171.778 1205.67 171.333C1205.72 171.278 1205.78 170.222 1205.33 170.667M1215 181C1216.61 184.415 1219.48 187.268 1220.42 191C1221.23 194.248 1220.26 197.729 1220 201C1224.54 194.36 1223.46 183.63 1215 181M1216 210L1216 213C1216.7 211.446 1216.7 211.554 1216 210z"/>
<path style="fill:#191919; stroke:none;" d="M1212 242L1214 248C1211.85 248.504 1210.02 249.119 1208 250C1208.96 254.545 1207.96 257.582 1207 262C1211.2 262.985 1214.03 262.678 1218 261L1219 271C1221.19 270.974 1224.44 271.382 1225.97 269.397C1228.04 266.708 1226.07 261.886 1225.42 259C1223.67 251.185 1222.53 238.302 1212 242M1230 327C1230.36 333.854 1233.82 340.415 1235.71 347C1240.25 362.798 1245.46 378.399 1250.65 394C1253.45 402.453 1256.35 411.251 1258.06 420C1258.51 422.3 1258.14 424.749 1258.74 427C1260.28 432.74 1264.21 438.092 1265.96 444C1271.43 462.444 1276.05 480.993 1283 499L1285 499C1285.99 497.521 1286 497.797 1286 496C1290.11 497.751 1294.92 497.77 1298.86 499.703C1301.83 501.162 1303.04 504.402 1306 506L1307 502C1313.65 501.779 1314.23 497.969 1315 492C1312.66 489.923 1310.96 487.454 1309 485C1313 483.484 1314.25 481.126 1315 477C1309.64 474.863 1305.3 472.231 1306 466L1308 466L1309 470C1310.63 465.392 1307.83 459.459 1306.27 455C1302 442.812 1294.44 425.009 1284 417L1290 431C1284.59 431.99 1280.14 431.997 1276 428L1285 428L1285 422C1282.15 420.444 1281.5 419.207 1281 416L1275 415C1274.9 411.715 1274.82 409.823 1272 408C1275.57 405.758 1276.47 404.208 1276 400C1271.56 400 1267.34 399.967 1263 401C1265.71 398.868 1268.6 398.441 1272 398C1271.3 389.004 1262.88 393.089 1257 395L1256 389C1260.76 387.492 1265.02 387.003 1270 387L1270 381L1261 380L1262 369C1257.89 369 1253.96 368.829 1250 370L1249 366C1251.87 367.075 1255.77 368.673 1258.68 366.806C1264.16 363.3 1257.97 358.874 1254 359C1253.6 354.556 1252.2 348.823 1248.45 345.938C1246.14 344.163 1242.92 344.283 1241.16 341.697C1238.65 337.989 1238.35 331.361 1238 327C1235.19 326.598 1232.81 326.598 1230 327z"/>
<path style="fill:#777777; stroke:none;" d="M1244 351L1244 354L1246 354L1246 351L1244 351M1264 415L1266 422C1267.84 420.283 1268.35 419.434 1269 417L1264 415M1267 424C1267.68 425.58 1267.8 425.777 1269 427C1268.32 425.42 1268.2 425.223 1267 424M1271 435L1271 439C1272.61 437.55 1273.06 436.949 1274 435L1271 435M1294 439C1293.61 444.214 1292.85 447.52 1299 448C1297.84 444.537 1296.56 441.618 1294 439M1272 442L1273 447C1277.95 446.078 1282.97 445.216 1288 445C1283.81 441.123 1277.42 443.003 1272 442M1275 453L1275 455C1282.65 455.001 1289.85 456.124 1296.95 459.224C1300.39 460.73 1302.16 463.38 1306 464C1304.85 459.968 1303.55 455.419 1300 453C1296.86 457.298 1291.3 453.068 1287 452.329C1282.96 451.634 1279 452.495 1275 453M1280 470C1280.22 473.478 1281.3 476.61 1282 480C1288.11 480.772 1293.17 481.461 1299 479C1294.07 474.051 1286.6 471.873 1280 470M1283 484L1285 491C1289.42 491.003 1293.62 491.447 1298 492C1294.2 488.69 1287.66 486.119 1283 484z"/>
<path style="fill:#191919; stroke:none;" d="M1288 501C1289.55 506.231 1293.92 508.451 1297.95 511.76C1300.56 513.913 1301.83 516.988 1304.3 519.211C1307.09 521.731 1310.85 522.97 1314 524.951C1323.07 530.653 1330.89 538.774 1339 545.729C1345.82 551.58 1354.66 557.997 1359 566C1368.62 562.776 1354.75 552.592 1352 549C1354.67 550.688 1356.95 552.176 1360 553C1359.13 543.42 1350.98 538.991 1344 533.546C1338.96 529.612 1334.4 524.913 1328.99 521.464C1321.19 516.499 1312.2 513.332 1304 509.16C1298.41 506.314 1294.41 502.013 1288 501M1294 525L1293 529C1311.84 534.042 1327.36 549.225 1342 561.414C1345.56 564.377 1348.83 567.795 1352.42 570.677C1353.94 571.893 1356.26 573.045 1357.38 570.677C1359.5 566.171 1352.85 562.354 1350 560.294C1340.27 553.271 1329.03 546.816 1322 537C1316.11 536.611 1311.95 532.688 1307 529.815C1302.9 527.438 1298.59 526.053 1294 525M1297 532C1300.99 537.552 1306.7 541.084 1312 545.286C1320.11 551.715 1328.16 558.236 1336 565C1339.14 567.71 1342.35 571.317 1345.98 573.342C1347.1 573.965 1348.91 574.699 1349.84 573.339C1352.56 569.363 1342.39 562.995 1339.91 561.286C1331.83 555.721 1324.05 549.686 1316.28 543.656C1310.16 538.905 1304.71 533.849 1297 532M1224 539C1225.35 547.82 1235.78 553.535 1242 559.05C1258 573.25 1284.92 591.361 1285 615C1286.2 614.402 1285.98 614.534 1287 613C1290.04 629.352 1287.16 646.137 1284.26 662.17C1283.06 668.806 1283.73 675.318 1282 682C1278.9 678.439 1275.72 674.857 1273 671C1288.51 667.188 1263.18 653.207 1272 646C1273.08 652.766 1280.24 651.647 1279.61 644.996C1279.03 638.87 1273.47 633.687 1270 629C1261.22 617.134 1251.9 604.865 1241.91 594C1237.88 589.623 1233.38 582.763 1227 583C1225.43 580.338 1223.83 579.228 1221 578C1222.51 581.364 1224.64 584.171 1227 587C1223.73 585.247 1220.59 583.95 1217 583C1219.01 590.695 1225.64 595.246 1230.71 601C1240.52 612.121 1250.64 624.078 1258 637C1250.19 627.98 1243.13 618.395 1234.92 609.714C1231.12 605.698 1228.1 601.38 1223 599C1223.3 601.597 1222.97 604.572 1224.05 607C1227.11 613.89 1234.44 619.276 1239.13 625.089C1249.89 638.449 1261.62 651.96 1270 667C1258.64 653.688 1248 639.856 1236.09 627C1231.66 622.216 1227.95 615.899 1222 613C1220.91 622.491 1227.87 628.318 1233.83 635C1244.4 646.841 1254.11 659.306 1263.63 672C1268.81 678.908 1272.29 688.428 1282 685C1279.89 693.856 1279.7 703.259 1276.91 712C1273.57 722.434 1266.51 732.974 1266 744C1273.66 743.418 1275.81 736.412 1278.25 730C1283.85 715.21 1285.46 700.214 1289.17 685C1293.31 668.074 1295 650.57 1295 633C1295 626.169 1295.85 618.678 1294.1 612.015C1293.23 608.712 1290.75 606.819 1289.58 603.791C1288.34 600.558 1289.1 597.183 1287.35 594C1280.79 582.059 1267.41 572.828 1257.71 563.561C1247.62 553.916 1237.2 543.958 1224 539M1365 825L1363 825C1362.83 817.952 1360.35 810.923 1359 804C1357.57 796.666 1357.09 789.269 1355.45 782C1354.38 777.26 1355.42 770.863 1351 768C1351.02 793.083 1356.75 818.691 1362.5 843C1365.29 854.797 1369.47 866.795 1370 879C1366.87 873.414 1365.86 867.08 1363.97 861C1360.35 849.333 1357.04 837.665 1353.43 826C1347.77 807.662 1337.01 788.546 1326 773C1320.91 774.697 1322.92 778.342 1325.29 782C1330.69 790.325 1335.07 799.212 1339.64 808C1353.66 835.002 1360.78 866.787 1368.71 896C1370.89 904.012 1373.31 912.003 1375.46 920C1376.87 925.244 1376.8 930.124 1381 934C1381 923.478 1379.33 915.167 1377 905C1378.55 907.292 1379.6 908.666 1382 910C1382 902.778 1380.33 896.069 1379 889C1385.62 892.346 1383.73 882.264 1386 879C1376.18 836.04 1386.08 792.156 1378.39 749C1371.49 710.309 1355.07 674.392 1343.63 637C1341.19 629.024 1337.4 621.236 1336 613C1348.39 621.906 1361.12 634.184 1368 648C1376.78 643.557 1368.79 637.134 1366.68 631C1365.65 628.023 1367.08 625.002 1365.89 622C1362.96 614.589 1353.35 606.644 1346 604C1347.28 606.987 1349.15 609.34 1351 612C1344.18 607.066 1336.5 604.238 1333 596L1329 596C1327.99 588.245 1323.55 579.939 1320 573C1328.94 579.272 1337.11 587.496 1345 595.039C1350.35 600.155 1355.64 606.015 1363 608C1362.91 600.009 1358.4 597.253 1353 591.985C1347.54 586.658 1342.37 580.798 1336 576.505C1330.25 572.63 1323 569.792 1318.05 564.943C1314.68 561.634 1310.62 557.504 1307.84 553.7C1305.39 550.344 1305.21 546.509 1301 545L1302 550C1297.54 548.151 1296.11 545.602 1295 541C1283.63 541.37 1288.11 550.669 1290.66 558C1294.11 567.936 1298.73 577.249 1302.6 587C1305.08 593.265 1306.65 599.786 1309.33 606C1319.27 629.042 1333.91 649.662 1343.07 673C1351.24 693.784 1359.02 715.915 1362.71 738C1365.06 752.011 1365.12 765.904 1366.09 780C1366.39 784.35 1367.82 788.635 1367.82 793C1367.83 803.769 1365.87 814.352 1365 825M1210 550C1214.05 559.016 1223.91 565.488 1231 572.089C1244.04 584.235 1256.88 597.681 1267.52 612C1270.27 615.702 1273.26 619.805 1275.21 624C1276.17 626.07 1275.96 628.764 1277.16 630.667C1278.36 632.593 1280.7 632.64 1282.35 631.238C1290.02 624.734 1276.11 610.801 1272 606C1259.95 591.944 1247.74 578.254 1234 565.831C1226.7 559.23 1219.83 552.446 1210 550z"/>
<path style="fill:#777777; stroke:none;" d="M1332 603C1332.68 604.58 1332.8 604.777 1334 606L1334 603L1332 603z"/>
<path style="fill:#191919; stroke:none;" d="M1219 631L1218 637C1241.16 653.323 1254.47 682.442 1264 708C1247.47 688.611 1235.35 664.039 1214 649L1215 653C1210.78 657.264 1222.63 666.741 1225.42 670C1235.3 681.53 1244.3 693.484 1252.88 706C1257.34 712.512 1259.09 719.755 1268 716C1267.1 712.984 1265.7 710.639 1264 708C1275.72 705.12 1266.56 690.694 1263.22 684.015C1255.64 668.862 1246.06 654.776 1234.13 642.718C1229.66 638.205 1225.28 632.758 1219 631z"/>
<path style="fill:#777777; stroke:none;" d="M1064 733C1059.49 708.724 1066.09 682.454 1056 659C1053.31 660.324 1052.32 661.313 1051 664C1058.03 664.317 1057.91 672.444 1058 678C1058.21 690.211 1059.98 702.889 1061.58 715C1062.42 721.434 1062.59 727.814 1055 729L1055 717L1048 718C1047.23 720.682 1043.05 726.992 1040.6 721.808C1039.29 719.023 1039.94 715.025 1039.33 712C1037.72 703.956 1035.66 696.029 1034 688C1028.99 690.69 1027.34 696.791 1025.72 702C1024.41 706.184 1022.59 710.535 1023.22 715C1023.75 718.831 1026.02 721.921 1027.93 725.17C1036.04 738.959 1051.75 749.384 1054 766C1057.73 763.244 1059.33 759.535 1062.47 756.313C1064.24 754.489 1067.01 753.94 1068.35 751.687C1072.2 745.186 1073.52 734.395 1074.75 727C1077.65 709.653 1078.89 692.491 1080.09 675C1080.9 663.213 1083.39 648.48 1080 637C1075.23 639.673 1071.14 643.983 1067.02 647.59C1065.06 649.3 1062.57 651.226 1062.24 654.004C1061.55 659.728 1068.56 663.656 1069.66 669.001C1071.17 676.362 1069.74 684.598 1069.38 692C1069.19 695.655 1070.02 699.323 1070 703C1069.97 706.71 1069.2 710.307 1069.04 714C1068.75 720.665 1071.24 729.666 1064 733M1049 664C1045.98 667.464 1042.92 670.81 1041 675C1052.24 674.996 1051.64 693.586 1052 702C1053.65 698.06 1052.56 694.134 1052.17 690C1051.38 681.773 1052.42 671.628 1049 664z"/>
<path style="fill:#191919; stroke:none;" d="M1209 666L1210 669L1208 669C1209.58 675.06 1213.78 678.461 1217.83 683C1221.76 687.411 1225.31 692.284 1228.87 697C1241.04 713.102 1249.68 730.428 1257.4 749C1260.39 756.195 1264.63 763.064 1265 771L1272 769C1271.45 760.297 1266.11 753.1 1263.52 745C1256.49 723.052 1244.25 703.997 1229.67 686.039C1223.79 678.802 1217.63 670.02 1209 666z"/>
<path style="fill:#777777; stroke:none;" d="M1037 679L1036 683C1042.2 686.243 1042.4 693.806 1044 700C1046.19 693.883 1043.93 680.444 1037 679z"/>
<path style="fill:#191919; stroke:none;" d="M1039 719C1038.64 716.577 1038.09 714.334 1037.33 711.998C1036.9 710.683 1036.51 709.322 1035.98 708.044C1034.94 705.548 1030.72 700.775 1028.64 705.438C1027.37 708.282 1029.64 718.295 1032.43 719.868C1034.48 721.022 1037.04 719.694 1039 719M1258 767C1257.01 760.628 1253.27 755.442 1250 750C1243.44 739.085 1235.91 728.773 1227.75 719C1224.66 715.294 1221.64 711.232 1217 709.387C1215.25 708.688 1212.56 708.049 1211.66 710.333C1209.86 714.937 1218.89 721.731 1221.37 725.001C1229.28 735.412 1237.9 745.625 1244.43 757C1248.03 763.265 1249.78 770.399 1258 767M1235 809C1230.95 807.524 1219.79 805.901 1223.57 814.001C1226.15 819.537 1230.47 824.451 1233.25 830C1235.27 834.034 1237.43 837.986 1239.49 841.999C1240.46 843.893 1241.2 846.793 1243.3 847.763C1248.7 850.248 1254.74 844.214 1256.69 839.995C1261.3 829.981 1260.45 818.23 1256.75 808C1255.15 803.562 1246.02 787.613 1241 795C1236.69 792.094 1232.5 788.438 1227 788.243C1224.8 788.165 1221.62 789.031 1222.06 791.889C1222.43 794.262 1225.11 796.315 1226.58 798.039C1229.56 801.55 1232.46 805.161 1235 809z"/>
<path style="fill:#777777; stroke:none;" d="M1105 841C1105.76 850.637 1109.81 859.495 1110.83 869C1111.84 878.41 1112.55 888.541 1112.96 898C1113.2 903.43 1112.73 908.667 1114 914C1126.96 907.544 1136.41 895.389 1146.09 885C1152.46 878.157 1159.92 872.167 1165.88 864.961C1175.98 852.755 1182.84 838.317 1186 823C1177.98 826.719 1172.59 834.809 1164 837.751C1154.45 841.024 1147.4 834.139 1138 834.18C1126.78 834.229 1116.35 840.764 1105 841M1365 831L1365 834L1367 834L1367 831L1365 831z"/>
<path style="fill:#191919; stroke:none;" d="M1191 855L1195 857L1195 859C1182.22 865.214 1191.07 875.865 1193.96 886C1194.9 889.295 1194.24 895.848 1197.47 897.914C1200.28 899.704 1203.09 896.26 1203.7 893.826C1205 888.601 1202.51 882.752 1200.64 878C1199.01 873.831 1197.26 869.873 1195 866L1199 865C1201.38 875.045 1206.39 884.283 1209.6 894.039C1210.47 896.671 1209.43 903.533 1213.14 904.079C1218.2 904.825 1219.22 897.363 1218.44 894C1216.01 883.466 1210.61 872.738 1206 863L1221 865C1222.26 870.882 1225.41 876.183 1227 882C1224.6 877.895 1223.07 871.589 1219.58 868.358C1217.36 866.297 1212.84 866.352 1212.59 870.133C1212.29 874.765 1217.34 880.826 1219.13 885C1224.01 896.412 1227.09 908.637 1232 920C1234.88 919.416 1238.28 918.356 1238.51 914.815C1238.71 911.599 1236.42 907.941 1235.32 905C1232.48 897.383 1229.11 889.862 1227 882C1232.28 891.073 1235.41 901.402 1239.62 911C1240.76 913.585 1241.72 920.452 1245.05 920.978C1252.33 922.125 1248.22 910.85 1247.21 908C1242.47 894.685 1236.07 881.753 1230 869C1234.02 871.626 1238.03 874.206 1241 878L1236 877C1238.29 888.897 1247.39 900.739 1252.09 912C1253.32 914.95 1254.72 923.257 1257.59 924.828C1260.56 926.454 1263.58 922.545 1263.52 919.91C1263.41 914.168 1258.94 908.272 1257 903C1260.77 908.283 1264.32 914.165 1267.18 920C1268.18 922.045 1268.92 925.758 1271.3 926.673C1273.25 927.422 1275.38 925.842 1277 925C1275.12 912.438 1265.31 902.164 1260 891C1269.39 897.271 1272.49 909.602 1278.32 919C1280.15 921.964 1283.03 930.157 1287.12 930.383C1289.04 930.49 1291.31 928.756 1293 928C1290.16 921.274 1284.95 915.751 1282 909C1287.02 914.645 1292.64 923.718 1301 922C1299.37 913.564 1291.9 907.981 1286.17 902.089C1273.63 889.184 1257.92 877.998 1243 867.999C1236.89 863.903 1231.28 858.637 1224 856.761C1217.57 855.104 1210.51 856.398 1204.09 854.684C1201.16 853.903 1199.13 850.631 1196 850.633C1193.2 850.636 1192.07 852.878 1191 855z"/>
<path style="fill:#777777; stroke:none;" d="M1245 880C1247.7 885.779 1249.92 891.028 1257 889C1253.79 885.057 1249.69 881.981 1245 880M1377 880L1377 883C1377.7 881.446 1377.7 881.554 1377 880M783 957C787.434 959.604 793.017 958.139 798 959.224C805.492 960.855 812.97 964.244 818.96 969.001C826.027 974.613 829.896 982.569 836.09 988.961C846.724 999.934 858.853 1008.57 868.079 1020.99C874.014 1028.97 878.196 1037.63 883.373 1046C889.832 1056.44 897.402 1066.06 904.576 1076C910.526 1084.24 916.382 1093.51 923.304 1100.91C935.88 1114.34 953.544 1124.18 968 1135.51C985.669 1149.35 1001.8 1165.36 1016.83 1182C1029.21 1195.71 1041.31 1210.11 1052.27 1225C1057.57 1232.21 1061.56 1241.65 1068.1 1247.79C1073.32 1252.68 1080.83 1255.62 1087 1259.15C1097.97 1265.42 1108.64 1272.27 1119.91 1277.93C1127.72 1281.85 1132.96 1288.88 1142 1291C1137.33 1306.01 1148.57 1321.97 1157.53 1333C1163.47 1340.3 1166.58 1345.32 1176 1348C1172.96 1343.2 1167.42 1340.37 1163.9 1335.83C1157.71 1327.85 1154.59 1319.19 1150.84 1310C1149.72 1307.26 1143.67 1292.81 1152.99 1296.18C1161.44 1299.23 1161.81 1313.36 1165.95 1320C1170.92 1327.97 1176.79 1337.26 1186 1340.85C1192.65 1343.44 1202.88 1342.98 1210 1343C1205.74 1334.61 1194.69 1329.41 1188.2 1322.57C1181.94 1315.99 1175.27 1309.61 1170.23 1302C1168.08 1298.76 1167.57 1293.22 1173.02 1293.38C1177.38 1293.5 1179.86 1297.93 1182.16 1301C1186.85 1307.29 1192.25 1313.55 1198 1318.91C1202.02 1322.65 1207.73 1328.68 1213.01 1330.44C1223 1333.75 1235.24 1329.96 1245 1328.09C1251.59 1326.83 1258.91 1326.29 1265 1323.32C1270.16 1320.81 1275.99 1317.58 1278 1312C1265.31 1313.6 1252.72 1319.66 1240 1319.99C1235.49 1320.1 1230.18 1320.27 1226.17 1317.86C1221.97 1315.34 1217.08 1310.11 1214.48 1305.96C1212.7 1303.11 1211.94 1299.74 1209.7 1297.17C1203.97 1290.63 1197.62 1288.22 1193.51 1280C1191.56 1276.1 1182.94 1267.86 1190.15 1264.33C1192.51 1263.18 1194.81 1264.52 1197 1265.4C1202.28 1267.53 1207.48 1269.79 1213 1271.24C1222.63 1273.78 1233.14 1275.32 1243 1276.71C1247.57 1277.36 1253.82 1276.88 1257.96 1279.03C1267.94 1284.21 1272.47 1297.59 1285 1298C1284.99 1293.71 1284.39 1290.12 1283.2 1286C1281.66 1280.62 1280.58 1275.58 1276.91 1271.13C1268.45 1260.87 1252.7 1259.87 1241 1256.25C1228.61 1252.41 1216.69 1246.11 1204 1243.29C1192.63 1240.76 1181.36 1240.35 1170.04 1238.42C1167.44 1237.97 1165.36 1236.2 1162.91 1235.31C1156.59 1233.04 1150.09 1231.6 1144 1228.64C1135.94 1224.72 1128.85 1219.2 1121 1214.97C1117.23 1212.93 1112.66 1213.35 1109.29 1210.57C1104.13 1206.31 1100.91 1200.2 1096.88 1195C1089.31 1185.23 1081.44 1175.72 1073.79 1166C1060.24 1148.79 1045.86 1132.54 1032.04 1115.58C1020.36 1101.25 1009.25 1086.73 996.83 1073C984.312 1059.17 970.281 1046 956.572 1033.36C949.213 1026.57 939.273 1020.32 935 1011C913.619 1009.31 892.57 1003.45 871 1003C870.664 1003.98 870.464 1005.21 869.815 1006.09C864.656 1013.03 858.587 1002.92 853 1002C852.755 990.139 846.763 983.403 839 975.116C826.764 962.052 812.166 950.279 793.015 953.304C789.486 953.861 786.244 955.583 783 957M1123 1031C1125.54 1041.71 1132.82 1050.25 1139.12 1059C1141.27 1061.99 1143.22 1066.82 1146.39 1068.82C1153.13 1073.08 1159.67 1065.29 1164 1075C1170.27 1076.02 1170.31 1081.56 1171 1087C1181.51 1086.36 1179.25 1100.62 1176.98 1108C1176.08 1110.91 1174.81 1114.93 1171 1114.53C1166.41 1114.06 1165.34 1108.55 1164.16 1105C1162.96 1101.38 1160.85 1098.33 1159.54 1094.83C1157.57 1089.53 1157.54 1084.88 1152 1082C1151.42 1086.61 1151.26 1091.68 1149.41 1095.99C1147.55 1100.29 1144.2 1103.43 1143 1108C1150.12 1110.67 1158.26 1113.05 1164.89 1116.72C1167.74 1118.3 1169.68 1121.54 1166.67 1124.11C1163.67 1126.65 1159.44 1125.53 1156 1124.79C1147.54 1122.97 1140.96 1117.9 1133 1115C1132.95 1120.48 1131.29 1125.58 1131.04 1131C1130.69 1138.68 1132.3 1145.5 1132.91 1153C1133.63 1161.98 1134.36 1172.14 1140.8 1179.29C1147.04 1186.2 1159.11 1189.91 1168 1191.69C1174.15 1192.92 1178.36 1189.24 1184 1187.64C1186.87 1186.82 1190.07 1187.32 1192.74 1185.84C1195.29 1184.43 1200.17 1177.98 1203.25 1182.37C1206.35 1186.79 1196.8 1191.81 1193.91 1193.42C1183.38 1199.31 1172.69 1204.67 1162 1210.26C1158.28 1212.21 1153.79 1216.19 1149.29 1215.06C1147.68 1214.65 1146.23 1213.58 1144.92 1212.61C1135.76 1205.85 1146.54 1201.44 1153 1198L1153 1196C1149.4 1194.86 1145.39 1194.24 1142 1192.55C1136.47 1189.79 1131.61 1185.65 1126 1183C1127.38 1175.59 1124.57 1171.06 1124.05 1164C1123.31 1153.77 1121.59 1143.27 1122.04 1133C1122.35 1125.92 1124.02 1119.01 1124.69 1112C1124.94 1109.36 1123.72 1106.61 1124.2 1104.06C1125.17 1098.84 1131.43 1100.74 1135 1099.4C1140.15 1097.46 1142.63 1091.17 1142.73 1086C1142.84 1080.53 1138.72 1078.19 1136.43 1073.83C1134.67 1070.49 1133.87 1067.15 1131.61 1064C1129.32 1060.82 1126.68 1057.99 1124.17 1055C1119.65 1049.6 1112.26 1035.32 1113.69 1028C1114.83 1022.18 1122.63 1018.82 1128 1018.69C1133.88 1018.54 1139.17 1021.7 1145 1022C1142.87 1013.76 1142.02 1005.42 1141 997C1129.53 1000.66 1119.02 1010.06 1108 1015.32C1096.57 1020.78 1080.56 1024.31 1068 1025.82C1048.16 1028.19 1028.07 1023.34 1009 1018.42C1002.63 1016.78 996.445 1013.96 990 1012.77C985.172 1011.87 980.822 1012.87 976 1012.99C967.279 1013.2 958.702 1012.82 950 1013C953.173 1019.26 960.457 1023.9 965.386 1028.92C978.299 1042.08 992.502 1054.15 1004.71 1068C1018.18 1083.27 1030.41 1099.38 1043.41 1115C1050.24 1123.2 1057.88 1130.65 1064.55 1139C1075.43 1152.62 1085.62 1166.73 1096.92 1180.01C1103.47 1187.72 1109.16 1196.49 1116.44 1203.54C1120.93 1207.88 1126.63 1210.51 1132 1213.58C1143.3 1220.05 1154.75 1226.68 1168 1228C1163.78 1223.69 1157.98 1224.34 1154 1219C1157.08 1218.13 1160.06 1217.27 1163 1216C1163.93 1211.11 1168.97 1209.63 1173 1207.46C1183.24 1201.95 1193.28 1197.24 1204 1192.85C1209.24 1190.71 1215.33 1186.73 1219 1193C1223.24 1189.98 1225.59 1187.35 1225 1182C1222.11 1182.72 1216.2 1186.5 1214.14 1182.68C1211.54 1177.88 1219.38 1169.22 1222.13 1166C1231.46 1155.07 1237.1 1143.19 1244.45 1131C1247.85 1125.37 1251.36 1118.87 1258 1117C1258.81 1121.93 1263.43 1124.04 1264.52 1129C1266.57 1138.35 1261.94 1155.55 1271 1162C1271 1155.47 1271.73 1148.46 1270.7 1142C1269.88 1136.9 1266.86 1133.32 1267 1128C1279.31 1129.12 1280.39 1138.83 1281.09 1149C1281.48 1154.64 1283.57 1164.15 1275.02 1164.68C1273.37 1164.79 1271.61 1164.29 1270 1164C1272.13 1171.8 1275.81 1175.87 1280.46 1182.05C1283.36 1185.9 1285.25 1190.45 1289.29 1193.4C1294.98 1197.56 1303.75 1195.81 1308.24 1190.78C1315.84 1182.25 1314.54 1168.76 1315 1158C1309.77 1165.02 1310.9 1177.73 1302.89 1182.72C1300.21 1184.39 1297.06 1184.75 1294 1185C1294.6 1181.05 1296.7 1178.5 1298.47 1175C1301 1170.01 1303.05 1164.35 1304.7 1159C1305.98 1154.84 1305.27 1147.93 1307.2 1144.42C1308.71 1141.67 1312.36 1141.91 1315 1142C1314.58 1138.29 1314.31 1133.23 1312.36 1130C1308.54 1123.69 1301.21 1121.07 1296.29 1115.91C1291.25 1110.61 1285.56 1102.27 1278 1101C1281.53 1105.42 1280.15 1110.63 1283.43 1114.96C1288.04 1121.03 1295.69 1124.5 1298.6 1132C1300.35 1136.53 1295.4 1139.96 1291.15 1138.36C1287.9 1137.14 1287.61 1132.52 1285.68 1130C1281.31 1124.29 1272.34 1120.59 1270.82 1113C1269.99 1108.85 1274.19 1105 1272.54 1101.14C1271.3 1098.26 1267.23 1096.53 1264.88 1094.65C1261.84 1092.21 1259.95 1089.34 1258 1086C1261.64 1083.38 1259.86 1080.43 1258 1077C1255.25 1077.74 1251.35 1081.15 1248.61 1079.26C1246.08 1077.53 1244.96 1073.56 1243.5 1071C1240.57 1065.87 1237.03 1060.72 1233.49 1056C1223.4 1042.56 1210.53 1031.45 1200.37 1018C1196.5 1012.87 1191.86 1008.26 1190 1002C1196.96 999.852 1197.86 1002.65 1204.04 1004.85C1209.36 1006.75 1215.55 1008.63 1221 1010C1221.92 1004.52 1218.41 1003.05 1214 1000.56C1208.13 997.251 1202.22 993.606 1196 991C1195.08 996.851 1191.25 998.166 1187 994C1185.05 994.709 1182.28 996.485 1180.15 996.133C1175.24 995.323 1177.96 988.719 1179 986C1174.9 983.04 1172.28 976.069 1167.85 974.172C1163.96 972.504 1159.33 979.028 1156.91 981.289C1154.43 983.602 1150.95 986.066 1149.6 989.286C1147.14 995.191 1149.94 1006.99 1151.48 1013C1152.56 1017.22 1157.81 1026.66 1154.38 1030.48C1149.61 1035.79 1140.41 1031.27 1135 1030.33C1130.96 1029.63 1126.97 1030.26 1123 1031M1204 1007C1208.28 1014.5 1211.87 1020.61 1221 1020C1218.97 1013.68 1210.15 1008.67 1204 1007M1229 1013C1233.07 1016.97 1231.96 1021.88 1233.43 1026.99C1234.35 1030.2 1236.9 1032.52 1239 1035C1243.22 1028.35 1246.18 1021.34 1252 1016C1245.98 1013.91 1231.09 1003.41 1229 1013M1258 1019L1258 1021L1260 1021L1260 1019L1258 1019M1251 1030C1249.22 1033.36 1247.36 1035.22 1244 1037C1244.55 1038.88 1245.11 1040.26 1246 1042C1249.55 1038.72 1251.92 1034.72 1253 1030L1251 1030M1263 1030L1262 1034C1266.17 1033.31 1269.03 1035.02 1273 1036C1270.22 1032.76 1267.09 1031.18 1263 1030M1258 1038C1255.56 1042.18 1253.5 1046.14 1253 1051C1257.4 1048.52 1259.61 1043.74 1261 1039L1260 1038L1258 1038M1279 1041C1275.45 1051.72 1267.05 1060.44 1265 1072C1271.45 1068.09 1278.13 1057.24 1280 1050C1278.62 1047.2 1279.83 1046.11 1282 1044L1282 1042L1281 1041L1279 1041z"/>
<path style="fill:#191919; stroke:none;" d="M1181 1064C1181 1066 1180.97 1068 1181 1070C1181.1 1074.79 1185.77 1080.24 1189.97 1074.44C1191.84 1071.85 1190.14 1067.92 1190.41 1065C1191 1058.71 1196.08 1043.21 1184.04 1045.52C1179.24 1046.44 1171.94 1057.63 1175.12 1062.4C1176.33 1064.22 1179.12 1063.94 1181 1064z"/>
<path style="fill:#777777; stroke:none;" d="M1298 1045C1299.53 1048.35 1301.79 1051.05 1304 1054C1304.55 1049.87 1301.13 1047.26 1298 1045z"/>
<path style="fill:#191919; stroke:none;" d="M1203 1079C1201.27 1073.15 1202.86 1067.9 1202.82 1062C1202.78 1056.8 1197.03 1050.48 1194.39 1058.06C1191.35 1066.81 1191.89 1079.95 1192.95 1089C1193.85 1096.68 1195.88 1101.99 1204 1098C1204 1103.34 1203.95 1110.17 1206.99 1114.85C1208.48 1117.15 1213.97 1119.65 1215.19 1115.68C1216.63 1110.97 1212.21 1101.91 1211.44 1097C1209.76 1086.26 1210.52 1074.66 1212.25 1064C1212.79 1060.67 1214.85 1051.41 1211.4 1049.09C1208.19 1046.93 1205.87 1051.61 1205.34 1054C1203.57 1062.01 1203 1070.83 1203 1079z"/>
<path style="fill:#777777; stroke:none;" d="M1289 1050L1289 1052L1291 1052C1290.45 1050.36 1290.64 1050.55 1289 1050M1262 1055C1259.52 1057.34 1258.87 1058.59 1259 1062C1261.6 1060.22 1262.65 1058.12 1262 1055M1285 1057C1282.35 1060.54 1280.39 1064.5 1277.7 1068C1274.29 1072.44 1269.5 1076.04 1270 1082L1272 1082C1276.41 1075.65 1286.75 1065.44 1285 1057M1291 1066C1289.41 1068.62 1288.05 1071.13 1287 1074C1289.6 1071.76 1291.58 1069.53 1291 1066M1298 1069C1293.53 1077.4 1287.81 1090.25 1278 1093L1278 1097C1280.05 1096.42 1282 1095.11 1284.09 1094.75C1286.32 1094.36 1288.6 1095.43 1290.67 1094.19C1295.96 1091.02 1301.31 1079.73 1303 1074C1300.72 1072.55 1300.42 1071.69 1300 1069L1298 1069z"/>
<path style="fill:#191919; stroke:none;" d="M1220 1133C1223.17 1132.63 1225.85 1132.38 1229 1133L1227 1126C1229.14 1127.21 1232.05 1129.14 1233.5 1125.89C1235.68 1120.98 1231.48 1113.8 1230.42 1109C1228.75 1101.48 1232.02 1093.59 1232 1086C1231.99 1083.82 1230.24 1074.77 1229 1081C1227.98 1079.47 1228.2 1079.6 1227 1079C1223.98 1084.8 1224.25 1092.55 1223 1099C1228.07 1105.47 1228.25 1115.17 1227 1123C1218.75 1108.12 1221 1086.44 1221 1070C1212.33 1071.91 1212.43 1080.24 1213.17 1088C1214.6 1103.07 1219.34 1117.93 1220 1133z"/>
<path style="fill:#777777; stroke:none;" d="M1311 1076C1306.34 1085.98 1289.64 1101.81 1305 1109C1306.88 1103.05 1310.59 1097.78 1313 1092L1307 1093C1307.73 1088.28 1310.18 1085.72 1314 1083L1313 1076L1311 1076M1281 1081C1279.03 1083.01 1277.83 1084.33 1277 1087C1279.35 1085.23 1281.08 1084 1281 1081M1260 1088C1262.36 1087.52 1262.52 1087.36 1263 1085C1261.08 1085.9 1261 1086.08 1260 1088M1227 1094L1227 1099C1227.83 1096.97 1227.83 1096.03 1227 1094M1327 1100C1322.03 1105.08 1317.84 1110.88 1312 1115L1312 1117C1314.3 1118.6 1316.42 1119.93 1319 1121C1322.56 1115.58 1331.8 1106.47 1327 1100M1324 1129L1325 1123C1321.19 1124.28 1321.33 1126.31 1324 1129M1343 1127C1339.97 1141.64 1333.31 1155.91 1333 1171C1338.87 1162.81 1342.15 1147.94 1343.07 1138C1343.43 1134.19 1344.5 1130.62 1343 1127M1334 1131C1331.79 1136.38 1327.63 1140.98 1325.6 1146.17C1324.33 1149.41 1325.07 1153.59 1324.99 1157C1324.87 1161.7 1324.01 1166.28 1324 1171C1328.28 1162.97 1329.63 1151.81 1332.14 1143C1333.24 1139.14 1335.19 1134.93 1334 1131M1253 1170C1251.4 1174.92 1249.38 1187.47 1242.17 1186.3C1239.98 1185.95 1237.87 1184.1 1236 1183L1230 1194L1234 1194C1231.34 1199.71 1226.4 1202.56 1222 1206.78C1214.71 1213.79 1206.6 1223.5 1203 1233C1212.86 1236.15 1223.77 1241.95 1234 1243L1234 1239C1231.31 1237.68 1230.32 1236.69 1229 1234C1224.94 1233.37 1223.15 1231.97 1222 1228C1218.03 1229.16 1212.05 1227.48 1215.53 1222.17C1218.32 1217.92 1223.63 1214.58 1227.25 1211C1234.21 1204.13 1240.83 1196.93 1247.42 1189.71C1252.29 1184.38 1257.2 1177.02 1253 1170M1240 1173L1239 1177C1240.3 1175.33 1240.55 1175.01 1240 1173M1364 1187C1362.73 1195.16 1357.98 1203.33 1354.9 1211C1346.71 1231.41 1336.97 1251.57 1326.68 1271C1321.95 1279.93 1314.94 1293.7 1303 1291C1303.98 1299.23 1295.81 1304.01 1289 1307C1290.32 1313.32 1295.44 1313.23 1300.68 1310.49C1308.85 1306.23 1314.83 1297.7 1319.24 1290C1321.94 1285.3 1325.75 1282.12 1328.6 1277.74C1335.49 1267.15 1340.3 1254.5 1345.44 1243C1353.44 1225.08 1362.24 1206.38 1366 1187L1364 1187M1393 1190C1389.36 1205.92 1380.15 1222.65 1380 1239C1382.82 1235.23 1383.76 1230.39 1385.38 1226C1389.61 1214.52 1393.22 1202.11 1395 1190L1393 1190M1235 1229C1251.68 1224.86 1264.38 1204.84 1273 1191C1267.61 1192.99 1264.07 1198.05 1260 1201.96C1251.66 1209.97 1239.28 1217.96 1235 1229M1318 1194C1315.53 1197.04 1312.23 1199.12 1309.79 1202.13C1305.78 1207.06 1303.18 1213.42 1300.22 1219C1297.76 1223.63 1294.93 1227.77 1294 1233C1304.67 1230.21 1309.38 1215.88 1314.35 1207C1316.59 1202.99 1319.78 1198.62 1318 1194M1275 1198C1270.1 1205.42 1261.01 1212.89 1260 1222C1267.64 1217.62 1276.73 1207 1277 1198L1275 1198M1199 1203C1202.49 1203.58 1205.93 1201.82 1208 1199C1204.74 1199.94 1201.93 1201.3 1199 1203M1219 1205C1221.69 1203.3 1223.3 1201.69 1225 1199C1221.9 1200.48 1220.48 1201.9 1219 1205M1280 1227C1286.37 1223.6 1288.17 1217.45 1292.56 1212.34C1295.5 1208.92 1299.15 1208.44 1301 1204C1298.11 1204 1294.08 1203.32 1291.42 1204.6C1289.06 1205.74 1288.09 1208.83 1286.98 1211C1284.34 1216.16 1281.42 1221.37 1280 1227M1180 1228C1183.34 1229 1189.23 1230.67 1192.62 1229.36C1194.79 1228.53 1196.45 1226.12 1198.1 1224.57C1202.24 1220.69 1207.17 1216.95 1210 1212C1204.76 1214.44 1201.27 1219.42 1196 1221.83C1192.68 1223.35 1190.53 1221.48 1187.29 1221.79C1183.85 1222.12 1181.42 1225.24 1180 1228M1364 1215C1363.12 1217.33 1362.51 1219.56 1362 1222C1363.98 1219.72 1364.87 1217.95 1364 1215M1316 1218C1314.52 1221.03 1312.84 1223.73 1312 1227C1314.99 1224.45 1316.65 1221.69 1318 1218L1316 1218M1333 1220C1327.91 1229.51 1322.15 1237.66 1315.39 1246.09C1311.18 1251.34 1306.7 1255.27 1305 1262C1312.57 1257.96 1317.03 1248.79 1322.03 1242.09C1324.89 1238.25 1328.56 1235.51 1330.41 1230.99C1331.85 1227.46 1334.1 1223.77 1333 1220M1309 1229C1307.52 1232.03 1305.84 1234.73 1305 1238L1311 1240C1312.07 1235.83 1312.41 1233.13 1311 1229L1309 1229M1279 1240C1281.12 1239.1 1281.1 1239.12 1282 1237C1279.88 1237.9 1279.9 1237.88 1279 1240M1240 1245C1248.43 1246.76 1256.67 1249.77 1265 1252C1263.41 1248.54 1261.51 1245.86 1261 1242C1258.37 1242.25 1255.64 1243.16 1253 1243.03C1247.77 1242.76 1243.32 1239.34 1240 1245M1272 1256C1275.91 1255.07 1278.16 1253.6 1280 1250C1276.71 1251.19 1273.76 1252.93 1272 1256M1287 1258C1288.46 1256.9 1288.9 1256.46 1290 1255C1287.64 1255.48 1287.48 1255.64 1287 1258M1363 1257C1361.06 1261.56 1360.73 1266.34 1359.18 1271C1355.71 1281.4 1350.3 1289.8 1343.18 1298C1337.82 1304.17 1335.83 1309.56 1327 1308C1323.63 1312.91 1317.17 1321.08 1310.87 1322.29C1307.94 1322.86 1306.46 1319.84 1303.79 1319.42C1300.59 1318.91 1297.05 1321.02 1294 1321.76C1286.64 1323.54 1279.85 1320.95 1276 1329C1284.23 1329.38 1291.61 1332.06 1300 1330.37C1321.24 1326.1 1343.6 1309.96 1355.41 1292C1357.03 1289.53 1357.65 1286.57 1359.11 1284C1363.22 1276.74 1368.04 1270.27 1370 1262C1366.22 1261.63 1365.02 1260.08 1363 1257M1284 1259C1282.7 1260.59 1282.46 1261.02 1282 1263C1283.86 1261.73 1284.37 1261.22 1284 1259M1352 1261C1349.17 1268.48 1343.15 1274.93 1342 1283C1350.65 1280.62 1352.39 1268.76 1354 1261L1352 1261M1288 1268C1290.86 1275.86 1296.02 1281.46 1301 1288C1304.03 1284.59 1307.38 1283.91 1310.96 1281.41C1314.81 1278.73 1317.38 1274.28 1319 1270C1312.58 1272.93 1297.29 1282.95 1298 1269C1296.25 1267.67 1295.33 1266.75 1294 1265L1288 1268M1204 1280C1208.34 1284.85 1214.48 1287.73 1218.59 1293.01C1223.29 1299.06 1225.39 1308.77 1234.17 1310.68C1245.24 1313.1 1259.36 1305.28 1270 1303C1260.19 1285.88 1235.12 1285.14 1218 1282.71C1213.28 1282.05 1208.72 1280.64 1204 1280M1229 1341L1229 1343C1234.51 1342.95 1239.16 1342.2 1243 1338C1238.23 1338.7 1233.82 1340.58 1229 1341M1184 1352C1186.75 1354.07 1188.73 1353.93 1192 1353C1189.39 1351.9 1186.84 1352.01 1184 1352z"/>
</svg>
