<?xml version="1.0" encoding="UTF-8" standalone="no"?>
<svg
   xmlns:dc="http://purl.org/dc/elements/1.1/"
   xmlns:cc="http://creativecommons.org/ns#"
   xmlns:rdf="http://www.w3.org/1999/02/22-rdf-syntax-ns#"
   xmlns:svg="http://www.w3.org/2000/svg"
   xmlns="http://www.w3.org/2000/svg"
   xmlns:sodipodi="http://sodipodi.sourceforge.net/DTD/sodipodi-0.dtd"
   xmlns:inkscape="http://www.inkscape.org/namespaces/inkscape"
   width="2200"
   height="1467"
   id="svg2"
   version="1.1"
   inkscape:version="0.91 r13725"
   sodipodi:docname="halfwoman2.svg">
  <metadata
     id="metadata50">
    <rdf:RDF>
      <cc:Work
         rdf:about="">
        <dc:format>image/svg+xml</dc:format>
        <dc:type
           rdf:resource="http://purl.org/dc/dcmitype/StillImage" />
      </cc:Work>
    </rdf:RDF>
  </metadata>
  <defs
     id="defs48" />
  <sodipodi:namedview
     pagecolor="#ffffff"
     bordercolor="#666666"
     borderopacity="1"
     objecttolerance="10"
     gridtolerance="10"
     guidetolerance="10"
     inkscape:pageopacity="0"
     inkscape:pageshadow="2"
     inkscape:window-width="1600"
     inkscape:window-height="837"
     id="namedview46"
     showgrid="false"
     inkscape:zoom="0.45501622"
     inkscape:cx="1100"
     inkscape:cy="733.5"
     inkscape:window-x="-8"
     inkscape:window-y="-8"
     inkscape:window-maximized="1"
     inkscape:current-layer="svg2" />
  <path
     style="fill:#191919;stroke:none"
     d="m 798.06104,1289.6836 c 3.61054,-42.6939 -31.75988,-90.1108 4.11036,-127.8222 49.72742,-41.9316 68.63506,-107.3625 64.37798,-170.65315 -5.35083,-63.04719 -41.31974,-121.49579 -31.32043,-186.46016 3.81344,-54.3697 12.6317,-111.49648 -11.40108,-162.77391 -17.44504,-52.981 6.67647,-108.23888 -0.25489,-162.28759 40.58621,53.42921 38.80784,126.97663 33.0746,191.07092 -4.51257,44.61324 22.63056,-27.3756 10.75929,-43.56323 10.2319,-61.59062 -18.17396,-120.51551 -38.5675,-171.88322 24.20537,-44.94931 57.80256,-104.93801 119.40614,-80.60214 30.70204,6.3329 68.33649,-12.88411 83.18759,-12.14955 18.0979,-57.23322 30.4388,-118.08377 76.7389,-160.67914 -2.7343,22.17676 -55.0285,76.35775 -36.2086,78.60952 9.4818,-24.39613 56.3326,-90.26806 22.6221,-30.18208 -19.591,24.32876 -52.5213,119.87649 -48.6828,105.69677 0.2053,-17.13373 40.0115,-96.27717 5.2899,-51.32382 -12.2443,21.64658 -22.409,119.90942 2.1753,59.20491 0.4864,-14.90288 7.6036,24.62505 14.4241,-8.25796 26.5147,-51.62218 7.4838,55.39609 42.6851,65.88793 33.7549,31.82751 81.3795,61.8555 98.8036,99.72734 21.8122,-48.98117 107.0463,-53.84384 148.4012,-20.51227 45.1321,25.83525 99.0792,31.77319 144.8524,56.17672 1.8285,48.24091 67.9367,74.26472 80.8542,64.58069 -26.8826,25.14056 -91.1103,36.00987 -103.94,-12.6758 -27.7698,-45.11604 -94.0171,-0.3675 -110.4493,-10.369 -29.3081,-34.48827 -105.719,-22.18041 -82.7983,39.45774 -4.489,52.64476 -75.9707,-1.7108 -36.1439,-21.30619 33.9024,6.1979 17.2025,-19.97672 -5.8766,-6.60702 1.2034,-24.26154 34.6079,-87.05177 -14.7741,-54.88265 -65.9367,31.94653 -130.6577,96.1304 -120.812,175.20913 -19.6586,70.49361 -63.5124,137.96216 -51.4283,214.36854 1.4507,34.97356 35.3431,124.72137 29.4511,117.88287 20.0835,-31.7164 -11.1673,48.9303 13.5457,7.7623 9.3062,-6.7061 -5.3149,55.0834 14.109,9.0304 8.7915,10.4867 -8.9658,48.9416 12.0902,16.6982 11.3082,13.9628 -18.2192,51.124 11.5725,18.6299 -2.371,25.4878 24.9641,23.6325 3.5492,48.5737 42.693,-10.9842 6.1721,68.2313 -14.7079,87.017 -24.8122,16.9269 -24.2029,106.2337 -14.3237,39.5248 16.5436,-42.6015 65.2798,-76.3039 52.4796,-127.575 2.4198,-25.3667 -25.4825,-79.3883 -36.8781,-80.211 -64.9483,-72.1215 -85.5332,-182.48922 -41.3331,-270.51477 22.9983,-48.59576 38.6375,-100.38022 48.39,-152.94952 19.9326,-36.46985 85.2165,-18.20136 98.075,-5.85664 0.3008,27.74555 14.4132,59.48088 12.5331,12.13375 33.5448,11.75807 56.6761,-5.98178 45.3402,-45.45698 -0.4757,-59.32035 68.5249,-20.55321 82.7855,-1.94175 28.5216,-32.32325 86.5886,-30.64793 104.2471,12.04561 12.4563,50.09935 103.4934,-5.82864 97.364,22.92597 -29.3926,31.53474 -77.9416,21.71601 -116.4481,31.33028 -69.4645,9.19646 -142.8569,5.50096 -207.9959,34.13376 -43.9201,43.54813 -61.1514,110.78034 -65.9508,171.33471 0.5316,130.23448 96.4958,238.87488 92.3043,369.99668 3.2433,28.1906 20.7155,105.7017 13.4128,95.8312 4.2603,-55.7948 -9.4813,-114.2037 -13.5193,-170.853 -18.4149,-106.2335 -89.4854,-201.62579 -80.29,-312.72238 8.0448,-47.00651 141.2264,-57.71845 80.8502,-120.3022 -21.7418,-67.32282 91.2647,-34.60691 128.4542,-50.18695 54.4626,-13.3808 114.933,-2.97557 165.5867,-29.50747 50.4627,-42.72429 5.4974,-118.13989 -25.2876,-159.91451 -55.4986,-78.6029 -112.3096,-157.01817 -152.8179,-244.65143 -23.5097,-37.87565 -71.1698,-60.54724 -72.4505,-110.51983 -8.1846,-51.60487 -73.3205,-49.15832 -108.2671,-33.16085 -42.3513,-29.403272 -99.6474,-10.21695 -129.7201,28.27134 -36.8162,35.05282 -56.6175,80.98677 -71.3061,127.8883 32.2509,-13.22773 45.9462,-66.81712 69.9675,-96.78648 23.3043,-29.49308 -29.409,56.42051 -25.4216,57.8885 -10.4369,24.73626 -34.1951,59.90978 -55.6728,79.76184 24.837,-2.66143 61.8734,-69.11874 41.8408,-16.96648 -6.8418,32.89944 -31.2064,60.50448 -67.6228,62.96192 -47.18486,3.78601 -105.41207,-18.98778 -129.78775,38.21752 -44.107,44.34067 -26.62157,105.06535 -33.07985,159.61843 -18.85956,63.97677 19.7681,125.67462 5.2555,189.45282 -14.29838,58.78564 -4.24548,118.66769 23.52149,171.86938 20.54186,69.98526 26.60832,159.59623 -33.55101,212.24163 -38.82475,37.6631 -37.39278,109.5129 -9.39864,152.0553 z m 170.02245,20.735 c 28.27996,-23.5694 12.92141,-92.2796 0.26985,-112.6091 -24.11621,23.0135 -66.06976,97.861 -15.75564,105.2617 -16.5145,-25.9063 13.28445,14.372 9.17726,-18.3109 12.92109,-41.5805 -3.3547,16.2802 6.30853,25.6583 l 0,0 z m 22.95014,2.7161 c 23.33337,-15.8058 8.2181,-43.4484 -0.31689,-4.3257 l 0.31689,4.3252 0,5e-4 z m 13.10277,-31.3852 c 15.4444,-14.4836 7.6041,-91.0012 -3.6878,-69.9374 15.5153,21.6764 -6.23191,47.6103 3.6878,69.9374 z m -33.54847,-91.0269 c 33.19677,-14.1832 -24.85661,-57.4477 0,0 z m 4.4232,-87.5108 c 10.04237,-40.2534 -1.48921,-91.7515 0.68896,-136.05069 8.05691,-24.47743 -13.32177,-65.0387 -34.71029,-45.03412 1.32134,25.85743 -9.98663,43.61497 8.40466,80.95901 13.88885,-38.24594 -4.96781,22.2262 16.59163,23.0807 -18.73569,0.1132 19.05126,10.8322 -10.47966,12.7211 1.00116,21.0499 23.94153,19.1727 5.63899,23.3509 6.30388,13.7022 10.17401,27.7343 13.86571,40.9731 z m -6.77359,-182.04002 c -9.96607,-27.25734 -39.74408,-64.61014 -56.08803,-77.03943 12.5419,19.11587 -9.22153,5.33852 8.27474,31.48991 12.65754,18.05782 28.75849,34.29935 47.81329,45.54952 z m -2.78508,-26.4846 c -1.87522,-2.83804 -44.36964,-70.4901 -45.22636,-51.71564 14.55204,17.41155 26.62328,38.33336 45.22636,51.71564 z m 2.11513,-5.78847 c -7.34228,-21.42503 -62.32768,-79.94558 -25.45256,-28.57426 7.38155,10.35045 14.21445,21.90603 25.45256,28.57426 z m 72.32431,12.13231 c -18.4451,-39.30683 -58.70618,-78.40463 -32.3497,-123.77512 12.6689,-55.42983 24.4059,0.43486 11.3214,2.89213 -10.215,25.59286 28.1402,89.43891 39.1778,80.19398 -10.5793,-27.54184 3.2042,-13.41809 -5.0702,-40.27847 24.36,18.73715 -12.6841,-48.49858 -19.0723,-63.82236 -35.7984,-9.04569 44.3675,-85.24103 1.7839,-52.00519 -23.2137,38.60313 -52.28539,84.39342 -40.71114,131.11226 8.56614,25.25652 23.69044,49.22463 44.92024,65.68277 z m -64.44036,-19.9884 c 13.52775,-43.28468 -11.78551,-99.86977 -14.21354,-147.63178 -8.17506,-42.82021 0.75644,-119.66905 17.14933,-138.89987 -7.96288,23.96466 -2.34054,76.71444 2.77977,24.52849 0.75535,-24.6367 4.09073,-121.55514 9.24753,-51.86146 -5.36636,26.69479 9.05299,68.71959 14.06797,75.40451 -18.05299,-46.43918 -6.20119,-134.51184 -15.68196,-156.38862 -6.21609,27.87103 -23.29624,65.39411 -30.45235,112.46785 -23.38667,60.55126 -10.67047,124.48377 -7.03116,186.83475 1.544,42.85248 -35.23014,-66.51225 -26.52542,-3.7399 9.12854,23.42565 12.14081,24.10131 15.69794,21.59968 16.4027,22.74381 19.1007,56.11168 0.71551,16.03596 -36.93953,-45.95574 -0.28891,23.09685 17.15381,38.09811 6.59446,21.05439 5.73394,8.76671 17.09257,23.55228 z m 80.81036,12.98668 c -15.0825,-24.91316 -36.4973,-87.93973 -52.4215,-91.78598 9.8771,32.40584 24.7041,70.46501 52.4215,91.78598 z m -16.6584,-79.24007 c -10.6467,-22.40558 -8.6743,-23.11311 0,0 z m 28.9294,-1.32929 c -11.1958,-23.44327 -18.1536,-72.76068 -29.5863,-83.21006 -1.8814,27.56062 8.3861,64.09173 29.5863,83.21006 z m -23.5376,-86.02315 c 6.8042,21.78903 46.2187,102.37094 26.7189,40.14658 -7.0845,-3.61189 -23.2009,-71.35808 -26.7189,-40.14658 z m 159.3542,116.20344 c 0.244,-37.55372 31.3063,-116.1101 60.0775,-109.19903 15.7512,17.21487 16.5211,85.55995 -2.0541,61.60294 6.8407,-31.99894 -29.3507,-46.26208 -24.6125,-1.51685 -1.1972,23.85782 -3.9553,48.56922 -2.9405,8.08741 9.4543,-26.35207 9.3558,-69.469 -4.1294,-18.96427 -17.091,22.1619 11.3248,55.97686 -26.341,59.9898 z m -167.5321,-58.011 c -12.3424,-26.57914 -9.7686,-26.70889 0,0 z m 204.4639,39.95439 c -0.3741,-22.8809 8.6247,-53.02876 5.2627,-13.47008 10.1926,7.07242 0.9002,7.80707 -5.2627,13.47008 z m -154.0305,-43.3429 c -9.6129,-35.85084 -29.4439,-84.46485 -31.1148,-115.04333 -7.2216,37.37302 4.8561,84.97522 31.1148,115.04333 z m 181.3092,9.29574 c 18.6332,-16.8974 -15.561,-24.66713 0,0 z m -176.3803,-52.31398 c 9.5869,-11.89885 -37.9327,-105.91429 -20.2685,-40.67053 5.8355,13.63258 8.6151,30.55177 20.2685,40.67053 z m 9.9059,-80.2022 c 15.4867,-2.88431 -15.983,-27.24712 7.1078,-21.29352 12.4034,-32.72148 -29.3103,-60.22897 -31.3125,-13.75151 -3.129,17.18565 8.0856,30.70127 24.2047,35.04503 z m 48.0161,-22.47708 c 16.314,-30.73852 68.4223,-72.3124 92.4679,-62.81395 -0.8876,51.83966 -16.152,85.29806 -70.2044,54.74348 -7.8358,1.58311 -14.4908,6.29498 -22.2635,8.07047 z m -2.2728,-29.58865 c 27.7257,-8.48393 0.1309,-80.48457 3.279,-21.60168 -2.7974,23.75896 -4.1559,-68.83768 -13.7583,-17.52078 10.1762,60.44513 -2.1686,-8.05053 -12.7599,-14.7352 -0.9218,34.10529 15.7609,34.48662 8.9245,-0.99566 -1.5339,-31.84512 -10.6328,-8.09851 -18.774,-24.95918 -2.4155,20.0891 4.5487,64.76305 1.0414,44.30025 1.2303,-17.03577 -15.3361,-82.01976 -13.5551,-30.54927 -2.4184,-34.42113 -21.5192,-27.53371 -8.353,2.7976 8.0013,19.8783 -27.3008,-76.53067 -14.2422,-15.06363 -33.0832,-45.82083 8.7014,40.73564 25.0083,47.56653 11.4343,14.50197 28.7217,20.43177 43.1893,30.76102 z m 409.4187,3.54919 c -46.3253,-13.02852 -27.4444,-82.44092 -81.8069,-74.2774 -64.5478,-22.86178 -80.0794,-102.68494 -109.4327,-157.25589 -17.641,-58.75418 -42.7063,-118.15042 -104.3344,-142.06773 -26.0609,-20.56281 -105.7641,-46.56765 -78.2874,-82.0718 14.5185,28.82694 55.8872,44.90769 80.5742,50.44698 -6.8556,-38.10254 -30.879,-77.51147 -76.1614,-64.88378 42.1961,-37.22633 83.711,25.58715 101.0715,41.77897 0.2325,-21.2276 -49.9273,-71.43922 -4.6464,-43.83876 14.2878,13.66084 27.2378,83.68684 23.5623,24.29738 -15.4542,-29.12094 -7.8,-35.94302 5.2997,-6.21899 -8.7755,60.44116 64.7336,78.65298 77.4292,133.59979 16.3015,55.46515 51.1665,100.73564 85.1798,146.0897 32.2613,54.84007 29.2811,137.87696 91.0205,170.46799 20.4351,7.71274 -5.9096,5.4591 -9.468,3.93354 z M 1207.9295,495.36766 c 0.1333,-32.46337 -39.7958,-19.74053 -41.4658,-46.89629 54.9441,38.75746 -3.8342,-44.6503 -5.3454,-64.90545 -25.4156,-19.89548 -13.2706,-38.40252 -27.5424,-73.55049 -30.1223,-24.3921 17.0897,65.37431 -14.56,19.10152 -39.3776,-26.16041 31.1805,-57.9596 11.4091,-69.18967 -36.2964,50.48388 -4.4248,-40.08616 18.6688,-2.59013 27.9927,23.93289 -31.6932,42.64018 1.958,60.61586 -1.3197,-32.84561 12.9579,-32.92797 2.8358,-1.59338 -2.0205,40.51098 79.4885,-30.45193 52.7676,-40.84128 20.7213,4.13555 83.7245,-11.39175 72.115,-22.52048 53.0944,32.19688 60.5374,100.71135 89.2878,151.00879 8.9051,36.63877 60.029,86.86299 51.9447,108.20609 -49.5028,-16.09608 -96.7781,-56.75584 -151.9677,-37.19622 -25.7941,21.75047 -40.027,-17.28544 -19.4288,-16.63321 65.1523,19.19605 -24.6284,-77.65124 33.2091,-76.71393 26.055,-29.89893 16.2715,-87.16269 3.9992,-100.10027 27.1906,-36.678 -109.9609,11.67032 -32.234,3.79187 56.5852,-2.4063 38.5917,115.26578 -6.4654,65.62745 2.1328,13.4739 29.7432,26.26941 2.8618,44.17982 1.5206,-23.89169 -16.9971,-55.49117 -22.7935,-13.14822 7.7332,21.64566 54.3953,51.33454 30.4931,67.80523 -49.3543,-28.11433 -4.1307,45.54129 -49.747,45.54239 z m -27.5918,-41.21355 c -20.4702,-9.64245 -11.4182,-33.81741 0,0 z m -28.2109,-9.24547 c -42.607,-12.44691 26.7274,-46.55467 0,0 z m -21.7403,-16.87561 c -1.6219,-3.29238 1.8854,0.49659 0,0 z m 10.5056,-8.25971 c -4.0218,-7.65861 19.675,-15.76519 0,0 z m -13.9738,-4.92914 c -14.991,-9.13382 -2.4544,4.5459 2.1815,0.002 l -2.1815,-0.002 z m -10.2251,-12.94298 c 0.4592,-21.56551 37.3086,-34.60303 5.4259,-6.54381 l -5.4259,6.54381 z m 20.8399,5.06029 c -1.7051,-9.61315 14.945,-8.08436 0,0 z m 70.3193,14.89098 c 31.7717,-7.75367 -4.6606,-54.58981 -3.9274,-5.56607 l 1.1768,3.62715 2.7506,1.93896 0,-4e-5 z m -22.5662,-9.80142 c 16.6384,-16.94394 13.7509,-38.64773 11.6945,-3.95269 30.3666,-9.73888 3.7222,-66.35162 -0.6681,-63.31322 -3.1416,-64.52411 -38.8584,82.28314 -10.0849,11.89373 12.1268,-60.32772 -16.6684,68.1715 6.5496,18.79714 2.6256,12.64445 -13.6756,25.42017 -7.4911,36.57504 z m -90.444,-52.23946 c -6.1968,-16.13172 33.6646,-43.38764 7.0633,-6.73723 l -7.0633,6.73723 z m 30.2719,2.93494 c 0.4778,-4.19348 13.8052,-8.45033 0,0 z m -39.5151,-30.25826 c 1.588,-23.56343 31.4034,-11.15033 0,0 z m 7.8847,-21.69866 c 2.8149,-14.75914 6.9195,2.07589 0,0 z m -16.3514,-8.52245 c -2.1307,-18.98752 35.3215,-58.67703 11.4326,-19.53801 l -5.8762,9.71208 -5.5564,9.82593 z m 9.7286,-1.53433 c 1.8195,-17.35598 32.1171,-53.27354 11.9888,-16.81763 l -5.4048,8.1281 -6.584,8.68953 z m 88.334,-16.70676 c 2.8434,-34.20382 75.106,-29.67846 37.2464,-65.59503 57.231,18.88408 -20.4147,53.39245 -37.2464,65.59503 l 0,0 z m 13.3335,0.46687 c 4.2154,-7.59355 1.1211,-2.01949 0,0 z M 1072.377,238.87641 c 13.0157,-35.63897 50.4414,-69.43242 80.9405,-96.54126 44.236,-18.51833 -0.1403,17.39402 -17.3432,19.10926 -22.5945,24.48027 -48.2316,47.35616 -63.5973,77.432 z m -27.2354,-10.40353 c -1.5475,-17.53659 41.3818,-65.16359 13.8092,-21.48165 -4.6746,7.11221 -9.739,13.98889 -13.8092,21.48165 z m 116.4288,29.12644 c 14.9854,-18.7116 68.4428,-37.7105 24.4851,-9.21813 -7.5528,3.96167 -15.4828,9.87989 -24.4851,9.21813 z m -42.949,-13.57871 c 0.9902,-21.58373 53.8097,-44.95011 18.5744,-13.71232 l -9.2135,7.21852 -9.3609,6.4938 z m 42.57,7.26552 c 0.3574,-17.31139 36.592,-24.20308 5.5963,-4.31032 l -5.5963,4.31032 z m 48.5552,11.97502 7.3484,-4.24264 -7.3484,4.24264 z m 16.6795,3.434 c 12.4874,-3.54295 12.5683,1.98536 0,0 z m -88.7958,-27.93388 c 26.2084,-29.72336 41.1652,-7.85093 0,0 z m 89.9698,15.82513 c 20.847,-17.27198 48.4207,-5.90982 6.4714,-1.2608 l -6.4714,1.2608 z M 1079.624,211.83049 c 3.6441,-10.10696 5.2527,-6.56297 0,0 z m 47.1409,9.52554 c -11.0375,-0.62023 23.3389,-17.89546 0,0 z m -15.9031,-6.33178 c 9.8668,-28.6535 59.1222,-41.18706 14.6318,-12.20302 -5.1451,3.72033 -10.3098,7.51013 -14.6318,12.20302 z m 25.5116,-2.48167 c -8.683,-9.7163 11.9699,-14.27612 0,0 z m 28.1505,-0.7393 3.6742,-2.12132 -3.6742,2.12132 z m 33.7086,5.04277 c -51.4296,-34.31406 30.4263,2.18621 0,0 z m -28.4121,-17.08216 c 2.137,-6.31329 21.4477,-1.17871 0,0 z m -8.3652,-7.41782 c 4.3284,-4.54934 4.3589,0.58817 0,0 z m -69.9949,-20.82564 c -10.1169,-40.49715 83.2525,-66.76527 98.2218,-43.90364 -40.4768,-14.20677 -76.0864,9.33116 -98.2218,43.90364 z m 76.8258,18.51485 c -1.1512,-3.41274 8.6997,-5.44563 0,0 z m -65.1653,-19.53155 c 0.9735,-20.43815 30.3416,-25.87269 0,0 z m 58.681,9.99918 c -7.5764,-21.80659 -37.388,-5.64385 -3.3966,-23.13822 1.2984,4.69445 14.1208,22.9329 3.3966,23.13822 z m 89.1935,9.95345 c -25.3647,-3.12538 -88.032,-48.21452 -28.7736,-39.74664 18.5363,2.98285 20.3617,26.66204 28.7736,39.74664 z m -20.7659,-66.45347 c 5.6386,-5.45646 22.2438,4.24744 0,0 z m 58.7194,2.08319 c -17.7554,-3.70105 -1.9498,-4.40732 0,0 z"
     id="path6"
     inkscape:connector-curvature="0" />
</svg>
