<?xml version="1.0" standalone="yes"?>
<svg xmlns="http://www.w3.org/2000/svg" width="640" height="949">
<path style="fill:#beb9b1; stroke:none;" d="M0 0L0 941C34.3126 941 68.7447 940.539 103 942.039C143.015 943.792 182.989 947.209 223 948.961C255.531 950.385 288.435 949 321 949C321.475 943.597 323.108 938.848 327 935L327 949L409 949C419.711 949 434.707 951.851 444 946C444.982 950.583 451.12 949 455 949L490 949L640 949L640 560C639.317 561.506 639.174 562.315 639 564C636.636 564.482 636.482 564.636 636 567L632 566C631.014 567.479 631 567.203 631 569C627.577 568.635 625.877 569.055 624 572L625.833 572.5C631.227 578.724 620.757 577.969 618.5 581.167C617.519 582.557 618.299 584.475 617.833 586C616.941 588.919 614.003 591.541 611 592C603.935 593.079 599.098 588.451 593 586.333C587.713 584.497 582.147 583.192 577 580.833C570.334 577.778 565.013 574.006 558 571.833C554.856 570.859 542.572 566.468 545 563C539.943 560.048 534.581 556.766 529 555C531.371 557.398 533.893 558.696 537 560C530.898 560.271 524.39 555.318 519 552.586C506.361 546.182 493.559 539.144 481.83 531.189C476.165 527.347 469.866 523.459 467 517C462.257 518.581 464.069 521.717 467.305 524.329C473.747 529.528 480.682 534.146 487.17 539.359C498.32 548.318 511.25 553.222 517.751 567.001C525.468 583.359 516.505 597.2 510.209 612C505.519 623.023 505.023 635.79 500.124 647C496.557 655.163 489.15 660.691 486 669C500.768 672.047 515.951 671 531 671C516.349 675.34 497.008 673.897 482 672C477.988 679.207 472.965 685.827 468.873 693C456.533 714.628 444.591 738.901 438 763C437.701 749.785 448.268 736.753 451 724C445.149 730.6 441.419 739.329 437.14 747C433.111 754.222 427.678 762.158 425.069 770C424.099 772.915 424.254 776.053 423.286 779C419.247 791.307 412.438 802.6 408.721 815C405.414 826.036 405.227 837.724 403.25 849C401.169 860.87 391.327 874.422 394.459 886.714C396.157 893.378 397.932 901.893 403.055 906.711C410.546 913.755 422.352 916.465 425.982 927C427.644 931.822 430.31 949.561 420.16 945.498C419.088 945.069 417.756 943.631 417 943L423 944C421.693 938.571 421.497 932.799 418.298 928C414.614 922.473 408.851 916.689 403.961 912.184C401.282 909.717 397.846 907.938 395.728 904.907C393.457 901.656 393.501 897.659 392.377 894C391.118 889.899 389.087 886.317 388.444 882C387.606 876.38 388.487 868.239 390.728 863.004C392.831 858.093 395.877 854.4 396.905 849C399.603 834.833 400.258 820.738 405.079 807C407.529 800.018 411.61 793.71 414.691 787C422.27 770.495 429.663 753.985 438.309 738C443.02 729.289 448.777 720.93 453 712C445.331 715.575 439.893 723.149 433 728C440.272 718.447 451.07 710.062 456 699L454 700C460.538 690.828 467.598 682.46 472.203 672C473.663 668.683 473.539 665.142 474.875 661.831C477.242 655.965 480.681 651.305 482 645L487 647L488 643C488.973 649.671 484.151 655.523 483 662C485.722 658.745 487.534 654.975 489 651L489 655C496.219 648 496.16 639.036 498.71 630C500.834 622.473 503.27 615.377 506.086 608.089C507.875 603.46 510.419 599.075 510.856 594C511.371 588.032 508.507 581.683 507 576L503 577C501.212 568.181 490.079 558.987 483 554C484.183 558.137 485.622 564.282 489 567C488.597 569.092 489.292 570.943 488.964 572.962C488.517 575.706 486.229 576.95 486.502 580.043C486.867 584.189 489.559 587.822 489.512 592C489.443 598.102 486.726 605.404 484.456 611C482.037 616.962 481.327 623.441 474 624C472.424 629.564 467.566 631.824 467 638L465 638L465 634C461.694 636.345 462.345 639.295 463 643C464.875 642.453 466.255 641.89 468 641C466.592 647.828 467.24 655.464 465.235 662C462.89 669.648 457.098 676.824 452.695 683.424C449.2 688.664 446.416 695.16 440 697C446.727 685.486 455.293 672.868 459 660C454.843 662.24 452.428 666.262 449.627 670C440.952 681.573 438.298 693.977 432.852 707C429.715 714.5 424.572 721.032 420.452 728C417.432 733.108 415.721 738.663 413.218 744C411.151 748.409 408.222 752.511 406.39 757C401.495 768.995 401.463 782.848 396.747 795C393.872 802.407 390.847 809.913 387.247 816.996C384.971 821.475 381.587 823.786 381 829C382.396 828.339 382.814 828.036 384 827C386.739 841.703 383.988 855.518 381 870C380.762 867.905 380.816 866.111 381 864C373.979 870.063 367.26 882.056 365 891L370 889C367.737 894.73 362.487 901.786 358 906L359 902L356 902C356.598 898.79 356.742 896.958 354 895C355.392 893.594 356.073 892.729 357 891L353 891L353 888L357 888L358 882C355.728 883.28 353.983 885.249 352 887C351.518 884.636 351.364 884.482 349 884C350.036 894.394 356.746 902.92 358.443 913C359.283 917.991 357.917 924.06 357 929C359.326 929.88 361.564 930.493 364 931C367.197 926.113 369.895 920.889 370.695 915C371.197 911.308 370.412 907.695 371 904C374.289 912.784 372.319 920.915 368.044 928.999C367.106 930.773 365.326 934.263 368.323 935.208C377.179 937.999 378.936 923.141 383.508 919.871C385.475 918.465 387.92 919.463 390 920L391 916C391.822 918.516 391.356 922.559 394 923C392.201 932.837 397.755 937.387 403 945C400.403 943.67 399.409 942.564 398 940L395 940C393.85 942.289 392.639 944.019 391 946C393.003 937.581 389.364 930.345 389 922C383.747 926.501 380.651 932.184 374 935C373.951 937.15 373.562 938.919 373 941C365.976 937.024 354.915 934.595 350.133 927.957C345.66 921.745 347.481 914.115 346.907 907C346.455 901.411 343.843 896.082 341.641 891C338.705 884.223 333.036 876.416 327.816 871.184C325.242 868.605 322.051 866.813 319.789 863.907C312.751 854.866 310.185 838.982 313.59 828.039C315.02 823.441 319.087 820.155 322.514 816.985C330.805 809.316 342.323 803.739 349.147 794.714C353.829 788.522 352.943 780.598 355.425 773.714C360.232 760.386 366.648 747.601 370.818 734C374.555 721.81 370.204 707.634 371.09 695C372.588 673.615 380.959 647.776 398.17 633.61C404.461 628.431 412.644 625.281 420 622C414.879 617.486 407.224 617.117 401 614.686C394.552 612.168 388.843 608.143 382.715 605.035C378.291 602.792 373.406 602.044 369 599.575C361.276 595.246 356.09 588.979 348.985 584.104C342.61 579.73 335.429 576.553 329 572.252C319.499 565.895 310.871 557.914 301 552.133C296.193 549.318 290.117 547.354 285 545C282.55 549.415 278.826 550.524 275 547L280 549L278 545L282 544C281.149 536.38 276.864 537.18 270.91 534.958C264.68 532.632 257.272 530.133 252.415 525.391C250.346 523.371 249.271 520.57 247.533 518.286C243.876 513.48 239.328 508.917 237.519 502.999C235.516 496.45 235.679 489.773 234.871 483.09C234.534 480.302 233.252 477.817 233.054 474.985C232.056 460.731 235.467 447.297 239.997 434C241.675 429.074 242.748 423.641 245.327 419.089C251.098 408.907 262.251 398.301 262.957 386C264.43 360.312 269.397 334.374 263.406 309C259.874 294.042 253.755 280.122 248.506 265.83C244.855 255.889 243.149 244.474 241.844 234C241.303 229.653 239.969 225.413 240.054 221C240.17 214.992 241.318 208.579 243.548 203C244.632 200.287 246.656 197.846 247.35 195C247.994 192.364 247.063 189.668 247.673 187C249.468 179.145 253.949 172.316 257.052 165C260.878 155.983 263.868 145.92 269.761 138C275.753 129.947 284.471 124.22 291.679 117.335C302.073 107.406 312.11 97.0366 321.41 86C326.042 80.5021 329.84 73.0156 338 74C339.966 67.3479 337.97 61.5989 337 55C340.284 54.625 341.881 54.1929 343 51C339.409 48.8317 337.572 44.5087 335.457 40.9105C327.971 28.176 328 14.4174 328 0L0 0z"/>
<path style="fill:#362f26; stroke:none;" d="M328 0C328 14.1365 327.516 28.4367 334.921 40.9398C337.008 44.4639 338.967 49.8253 343 51C341.427 53.7187 340.075 54.3727 337 55C337.587 61.7341 339.625 67.1737 338 74C328.066 71.593 320.886 85.9029 315.011 92C310.177 97.0167 306.178 102.863 301.131 107.661C291.299 117.006 278.937 125.349 270.518 136.001C265.12 142.829 261.633 151.91 258.532 160C255.175 168.761 250.021 176.848 247.637 186C246.861 188.982 247.801 192.076 246.907 195C243.838 205.048 239.33 212.916 240.09 224C241.591 245.923 248.946 266.538 255.951 287C261.03 301.838 267.93 318.965 266.91 335C266.103 347.672 264.373 360.359 263.17 373C262.638 378.59 263.908 384.608 262.034 390C258.294 400.761 249.999 409.193 244.821 419.089C236.219 435.529 232.332 456.575 233.019 474.985C233.138 478.181 234.503 480.915 234.871 484.039C235.725 491.291 235.243 499.076 238.22 505.961C240.369 510.932 244.349 514.892 247.533 519.169C249.224 521.44 250.302 524.164 252.415 526.099C257.374 530.639 264.753 533.178 271 535.359C276.889 537.415 280.63 536.964 282 544L278 545L280 549C278.255 548.11 276.875 547.547 275 547C278.11 551.397 283.409 549.769 285 545C290.134 548.403 295.934 549.515 301 552.765C310.336 558.754 318.793 566.084 328 572.252C334.745 576.77 342.444 579.98 348.985 584.789C353.679 588.239 356.986 592.947 362 596.085C368.433 600.111 375.207 601.761 381.83 605.035C387.645 607.909 392.991 611.707 399 614.279C405.666 617.131 413.095 618.753 420 621C412.715 625.529 403.936 627.973 397.286 633.61C380.591 647.76 373.251 672.184 371.171 693C369.745 707.268 374.623 722.288 369.819 736C365.431 748.526 359.792 760.537 355.334 773C352.881 779.859 353.714 787.631 349.147 793.83C339.931 806.339 320.445 811.424 313.837 826.174C310.785 832.987 312.128 842.845 313.326 850C315.154 860.921 321.943 865.381 328.675 873.04C334.332 879.476 339.571 887.117 342.86 895C344.619 899.215 346.534 903.388 346.907 908C347.439 914.593 345.674 922.053 349.475 927.957C352.488 932.637 356.457 932.78 361 934.993C365.058 936.97 368.827 939.182 373 941C373.791 938.768 374.077 937.354 374 935C380.519 933.305 385.212 927.988 388 922C390.435 929.698 392.482 937.989 391 946C393.181 944.104 394.069 942.741 395 940L398 940C399.088 942.997 399.95 944.052 403 945C398.965 936.646 392.817 933.028 394 923C390.751 923 392 918.715 392 916C390.919 917.458 390.564 918.248 390 920C377.545 915.007 380.885 936.021 369.167 934.824C366.985 934.601 367.031 932.582 367.618 930.977C371.249 921.04 373.361 914.77 372 904C369.368 907.614 371.225 911.752 370.316 916C369.142 921.488 366.281 926.01 364 931L357 929C358.152 924.164 359.364 917.951 358.66 913C357.231 902.949 350.723 894.136 349 884C351.124 884.899 351.101 884.876 352 887C354.254 885.539 356.009 883.788 358 882L357 888L353 888L353 891L357 891L354 894C355.769 896.793 356.259 898.7 356 902L359 902L358 906C362.873 902.971 368.54 894.547 370 889C368.106 889.465 366.723 890.066 365 891C368.528 881.493 374.547 871.799 381 864L380 870C383.42 865.2 383.553 858.707 384.166 853C385.154 843.807 386.207 836.163 384 827L381 829C382.214 824.488 385.172 822.018 387.247 817.985C390.876 810.93 393.876 803.397 396.747 796C401.47 783.832 401.501 769.98 406.39 758C408.222 753.511 411.151 749.409 413.218 745C415.721 739.663 417.432 734.108 420.452 729C424.208 722.649 428.801 716.682 431.96 710C440.247 692.473 442.893 673.111 459 660C453.657 672.833 445.329 684.203 440 697C446.741 695.937 449.252 689.527 452.695 684.286C457.1 677.582 462.738 670.693 465.249 663C467.409 656.382 467.058 647.995 468 641L463 643C462.615 639.239 462.385 636.88 465 634L465 638L467 638C467.935 632.153 473.105 629.625 474 624C476.096 623.931 478.49 624.123 480.028 622.397C481.694 620.526 482.285 617.284 483.211 615C486.054 607.983 490.172 598.736 489.721 591C489.482 586.898 486.464 583.262 486.756 579.104C486.913 576.872 488.697 575.72 489.292 573.714C489.879 571.735 488.924 569.081 489 567C486.07 563.439 484.76 558.292 483 554C489.637 560.637 499.913 567.92 503 577L507 576C507.939 581.544 510.959 587.329 510.778 593C510.514 601.262 504.82 609.39 502.09 617C499.17 625.141 498.63 633.868 496.095 642C494.663 646.594 491.893 650.607 490 655L490 651C487.041 654.137 485.213 657.869 484 662C483.936 655.457 488.416 649.65 489 643C487.919 644.458 487.564 645.248 487 647C485.277 646.066 483.894 645.465 482 645C480.315 650.81 477.024 655.45 474.824 661.004C472.23 667.551 471.272 673.706 467.548 680C463.491 686.856 457.423 692.927 454 700L456 699C449.265 709.184 438.591 717.219 433 728C440.669 724.425 446.107 716.851 453 712C437.966 734.304 426.306 759.404 415.576 784C410.874 794.776 404.947 804.517 401.923 816C399.26 826.109 398.883 836.739 397.076 847C395.983 853.21 392.458 857.303 390.329 863.004C388.099 868.978 387.444 877.761 388.619 884C389.356 887.917 391.223 891.239 392.377 895C393.488 898.617 393.411 902.641 395.728 905.816C397.627 908.419 400.623 910.049 402.985 912.184C408.369 917.051 415.273 923.725 418.914 930C421.43 934.335 421.581 939.332 423 944L417 943C420.2 946.838 426.087 948.356 427.678 941.981C428.675 937.986 427.387 931.976 426.519 928C424.122 917.023 412.634 914.101 405.005 907.561C398.79 902.234 395.609 892.919 394.264 884.911C392.443 874.075 400.792 863.323 402.739 853C404.867 841.722 405.171 830.17 407.898 819C411.012 806.245 417.741 794.191 422.55 782C424.216 777.776 424.216 773.1 425.993 769C432.648 753.644 444.798 739.816 450 724C449.817 728.589 447.461 732.726 445.811 737C442.607 745.297 438.509 754.233 437 763C444.635 753.549 447.217 738.091 452.309 727C457.58 715.519 463.014 703.882 469.452 693C473.544 686.083 479.15 679.519 482 672C498.1 674.989 514.825 672.045 531 672C526.031 669.915 519.35 671 514 671C504.337 671 495.519 670.282 486 669C490.331 661.23 497.143 655.328 500.546 647C505.01 636.077 505.677 623.653 510.209 613C516.683 597.781 525.239 583.931 518.2 567.001C513.092 554.716 501.505 548.415 491.004 541.457C483.267 536.33 475.558 529.999 468.175 524.329C464.993 521.885 463.001 519.369 467 517C468.904 523.991 476.146 527.996 481.83 531.796C493.602 539.666 506.374 546.675 519 553.083C524.706 555.979 530.614 560.086 537 561C534.629 558.602 532.107 557.304 529 556C534.632 556.965 539.701 560.794 545 563C543.466 564.023 543.598 563.805 543 565C549.833 569.328 557.772 571.219 565.089 574.523C573.879 578.492 581.756 583.164 591 586.313C597.449 588.511 602.824 592.475 610 591.938C617.566 591.37 615.717 585.759 619.603 581.56C621.94 579.035 632.58 575.023 624 572C626.26 569.752 627.814 569.154 631 569L632 566L636 567C636.899 564.876 636.876 564.899 639 564C641.952 540.639 638 517.373 638 494C636.09 498.549 636.102 505.038 636 510C634.147 503.733 634.826 496.532 634 490L632 490L633 510C632.356 507.894 632.094 506.205 632 504C629.667 509.559 632.437 516.649 628.121 521.682C625.309 524.962 620.696 522.915 618 526C608.849 524.189 600.382 527.021 592.001 530.566C588.007 532.255 583.475 535.456 579.09 535.842C575.298 536.176 574.429 533.055 574 530L576 533C578.006 528.387 579.623 523.814 583 520L582 525C583.416 522.958 583.745 521.489 584 519C586.47 519.668 588.451 520.084 591 520C589.107 522.681 587.133 524.903 586 528L593 524L592 529C596.45 523.119 591.123 516.834 589 511C584.481 510.806 580.478 509.971 576 511C573.745 502.811 563.891 492.664 555 494C557.25 492.151 559.515 490.518 562 489L562 493C565.999 491.423 569.636 490.324 571 486L578 486C577.35 484.7 577.853 485 576 485C583.903 482.664 598.628 488.337 599 477C604.804 480.036 608.08 489.921 610 496C610.779 494.231 610.912 492.964 611 491L613 494C614.863 489.56 614.163 483.695 613.409 479C611.677 468.216 608.348 457.53 603 448C612.499 454.71 621.634 466.219 627.91 476C631.545 481.666 634.291 489.12 640 493C639.998 479.278 632.489 470.539 624.514 460.004C616.051 448.824 606.318 436.602 593 431C596.116 431.251 598.235 432.505 601 434C599.661 431.524 598.412 430.48 596 429C600.986 423.632 606.23 418.568 610.999 413C612.986 410.68 615.647 408.104 616.307 405C617.072 401.403 614.888 396.651 614.429 393C613.765 387.725 616.58 382.437 610 381C609.97 372.454 603.767 367.851 595 370.699C589.958 372.337 587.497 376.099 583.741 379.395C577.26 385.082 568.568 390.897 560 392.383C548.825 394.323 543.477 382.818 534 379.779C529.77 378.422 525.527 381.146 522 383.157C518.749 385.01 512.167 387.455 510.063 390.559C509 392.129 509.39 394.228 509.086 396.001C508.266 400.77 507.52 405.159 507 410C497.63 406.706 503.11 390.189 502.996 382C502.927 377.053 502.07 372.675 497 371C500.863 350.206 495.482 329.777 499 309C505.9 308.704 509.765 307.279 515 303C513.769 299.602 513.005 297.534 514 294L511 293C515.241 282.91 505.729 276.321 500 269L504 268C502.819 263.898 500.752 260.221 500 256C499.01 258.523 499.383 260.358 500 263L495 264C494.674 260.009 493.134 256.005 493.38 252C493.697 246.849 496.298 242.112 497 237C494.661 239.418 493.784 241.736 493 245C487.827 241.081 485.434 235.183 484 229C485.186 230.186 485.528 230.584 486 232C487.645 227.259 483.094 222.616 480.324 218.999C475.286 212.42 472.075 206.178 468.103 199.001C466.723 196.508 464.499 194.224 463.463 191.576C461.346 186.165 467.045 176.621 468 171C463.279 173.602 463.215 178.998 463 184C461.295 179.716 458.401 174.689 458.485 170C458.633 161.796 462.977 154.39 463 146C454.265 146.29 453.744 153.758 452.575 160.999C451.971 164.74 449.599 168.357 449.398 172.036C448.937 180.483 454.681 190.155 459 197L456 197C457.583 199.22 460.098 200.328 461.726 202.532C464.05 205.679 465.328 210.215 466 214C462.935 211.502 459.78 208.84 455.996 207.509C451.42 205.9 445.461 205.784 441.376 203.012C438.655 201.167 436.872 197.632 435 195C436.617 196.299 437.672 197.39 439 199C440.078 193.651 432.997 190.402 430.119 186.535C427.757 183.363 426.79 179.38 424.742 176.005C420.652 169.261 416.369 166.469 416 158C420.483 157.987 424.198 157.806 427.961 155.057C434.154 150.533 436.536 142.546 444 140C444.816 130.993 453.529 118.69 463.985 120.404C467.67 121.007 470.415 124.3 474.015 125.402C479.318 127.026 484.203 127.58 488.381 131.633C500.049 142.953 496.296 159.677 496 174C498.214 169.836 498.412 164.647 499 160C500.359 164.557 500.466 169.381 501.745 174C503.287 179.562 506.036 185.214 506.586 191C507.728 203.031 503.884 216.154 502.289 228C501.107 236.773 502.102 245.28 501 254C504.666 250.206 505.341 245.101 506 240L508 246C511.809 240.547 508.829 233.355 509.015 227C509.166 221.842 511.316 217.117 511.829 212C512.524 205.082 511.921 197.947 512.004 191C512.117 181.457 512.944 171.461 514.286 162C515.73 151.814 518.115 143.174 514.776 133C512.54 126.186 508.302 124.446 503.298 120.278C501.121 118.465 500.233 115.656 497.857 114.008C493.715 111.138 488.549 111.941 484 110.441C481.149 109.5 478.878 107.405 476.001 106.508C468.287 104.105 460.844 103.947 453 102.675C444.639 101.319 436.527 97.9935 428 100C432.839 79.7327 439.406 59.8408 445.887 40C447.476 35.1334 451.047 32.3195 452.992 27.8958C456.514 19.8835 455.531 8.37329 454 0L445 0C445 3.87115 445.583 8.32703 444.146 12C441.566 18.5915 435.616 23.2288 432.313 29.2855C431.002 31.6904 430.988 34.5378 429.69 36.9606C425.54 44.7054 417.89 51.3877 410 55C409.326 57.2973 409.035 57.774 407 59C408.495 54.1467 407.813 50.8828 407 46C403.42 44.4078 401.26 41.1856 397.816 39.4167C390.889 35.8593 381.679 38.279 375 41L373 36C382.388 38.2351 388.281 34.1979 397 31.7855C402.203 30.3459 407.701 30.402 413 29C411.444 26.1504 410.207 25.4969 407 25C407.703 17.0009 401.127 13.957 394 16C395.223 14.8047 395.42 14.6837 397 14L397 10C390.127 7.54523 382.312 7.06055 375 7C377.279 4.67023 379.059 3.17383 380 0L328 0z"/>
<path style="fill:#beb9b1; stroke:none;" d="M380 0L375 7C382.523 7.15527 389.76 8.29883 397 10C396.525 12.5698 395.086 13.7749 394 16C400.828 14.5342 407.333 17.2859 407 25C409.892 25.806 411.094 26.6766 413 29C407.515 29.9288 401.322 30.313 396 31.7855C387.476 34.1439 382.159 37.6995 373 36L375 41C381.78 39.0663 388.866 36.1707 395.96 38.9946C400.22 40.6907 402.539 44.7702 407 46C407.424 50.6457 407.952 54.3607 407 59C409.698 58.4219 409.789 57.7386 410 55C418.113 52.6681 425.664 45.2325 429.69 37.9105C431.027 35.4792 431.018 32.6075 432.313 30.1697C435.537 24.1042 441.568 19.5875 444.146 13C445.689 9.05743 445 4.15851 445 0L422 0C420.515 4.70251 416.591 5.53247 412.039 3.98535C405.403 1.72968 398.216 -3.86218 394 5L392 5L391 0L380 0z"/>
<path style="fill:#362f26; stroke:none;" d="M391 0L392 5L394 5C394.89 3.25531 395.453 1.875 396 0L391 0M405 0C409.449 3.87268 420.457 8.88361 422 0L405 0z"/>
<path style="fill:#beb9b1; stroke:none;" d="M454 0C454.968 8.19623 456.294 19.1354 452.992 26.9568C451.119 31.3914 447.463 34.1914 445.887 39.0008C439.321 59.0325 431.85 79.2747 428 100C436.376 98.5143 443.834 101.351 452 102.675C459.847 103.948 467.289 104.088 475.004 106.508C477.878 107.41 480.15 109.5 483 110.441C487.61 111.961 492.678 111.235 496.942 114.008C499.471 115.653 500.41 118.324 502.545 120.278C507.316 124.645 511.906 126.317 514.438 133C519.246 145.694 513.971 158.12 513.089 171C512.201 183.974 512.82 197.041 511.91 210C511.55 215.137 509.328 219.887 509.043 225C508.649 232.087 510.08 238.994 509 246C507.957 243.904 507.397 242.301 507 240C504.515 244.122 503.748 249.46 502 254C499.693 233.018 507.067 212.905 506.817 192C506.687 181.102 500.093 171.181 500 160C497.586 164.028 497.366 169.364 497 174C493.582 160.471 500.871 145.725 490.696 133.29C486.057 127.62 480.416 127.367 474.015 125.084C470.475 123.822 467.802 120.592 463.985 120.187C452.878 119.007 444.466 129.962 444 140C437.813 141.253 436.32 145.822 432.367 150.13C427.568 155.359 423.079 157.936 416 158C416.185 166.911 420.45 169.851 424.742 177.001C426.741 180.33 427.733 184.25 430.119 187.331C433.36 191.516 437.705 194.091 440 199C438.334 197.198 437.154 196.11 435 195C439.993 205.072 446.673 204.025 455.996 207.883C459.606 209.378 462.667 212.013 466 214C465.258 206.745 462.504 201.336 456 198C457.479 197.014 457.203 197 459 197C455.583 189.236 450.038 181.839 449.702 173C449.556 169.151 452.137 164.906 452.728 160.999C453.767 154.137 454.875 146.626 463 146C462.93 154.36 458.474 161.764 458.267 170C458.144 174.892 461.158 179.262 462 184C464.291 179.233 463.633 174.635 468 171C466.544 176.445 461.667 185.169 462.695 190.714C463.252 193.717 466.029 196.422 467.536 199.001C470.191 203.544 471.632 208.706 474.715 213C479.052 219.04 485.516 224.463 487 232L485 229C483.323 234.67 487.94 242.431 493 245L496 237C496.399 241.926 493.84 246.128 493.305 251C492.821 255.407 494.417 259.673 495 264C496.878 263.824 498.199 263.562 500 263L499 256L504 268L500 269C504.519 277.619 514.253 282.19 511 293C512.479 293.986 512.203 294 514 294C512.287 297.707 513.095 299.47 515 303C509.267 306.19 505.93 308.452 499 309C495.169 323.479 498.389 337.357 498.96 352C499.207 358.33 497.791 364.742 497 371C505.776 375.818 503.153 388.659 502.155 397C501.441 402.971 499.752 408.489 507 410C507.865 405.633 508.338 401.37 509.282 397C509.739 394.887 509.233 392.341 510.692 390.559C513.039 387.694 518.778 385.602 522 383.731C525.15 381.902 529.141 378.984 533 379.924C535.974 380.648 538.503 383.192 540.911 384.95C547.76 389.951 553.261 393.943 562 392.192C569.931 390.604 577.584 385.229 583.741 380.1C587.861 376.667 590.556 372.413 596 370.703C604.007 368.188 609.91 373.383 610 381C615.9 383.189 613.683 387.763 614.286 393C614.702 396.61 616.752 401.455 615.802 405C614.973 408.097 612.151 410.648 610.13 413C605.64 418.226 600.718 422.984 596 428L601 434C598.356 432.038 596.203 430.751 593 430C597.827 434.908 603.998 438.264 609 443.039C621.088 454.58 631.14 468.318 639 483C641.292 477.538 640 469.887 640 464L640 424L640 285C637.518 285.512 628.422 283.934 633.425 280.027C635.141 278.687 637.977 279.024 640 279C640 198.707 641.353 118.284 639.995 38.0038C639.93 34.129 638.32 30.7891 638.054 26.9854C637.43 18.075 638 8.93311 638 0L454 0z"/>
<path style="fill:#362f26; stroke:none;" d="M638 0L638 32L640 32L640 0L638 0z"/>
<path style="fill:#beb9b1; stroke:none;" d="M370 2L370 6L372 6L372 2L370 2M382 21L382 23L387 23C385.211 21.5784 384.294 21.3026 382 21M396.667 21.3333C396.222 21.7781 397.278 21.722 397.333 21.6667C397.778 21.2223 396.722 21.2778 396.667 21.3333M395.667 27.3333C395.222 27.778 396.278 27.7221 396.333 27.6667C396.778 27.2223 395.722 27.2777 395.667 27.3333M376 29L376 31C381.692 30.7557 387.352 29.7138 393 29C388.056 26.9448 381.35 28.9965 376 29M366.667 32.3333C366.222 32.7781 367.278 32.722 367.333 32.6667C367.778 32.2223 366.722 32.2776 366.667 32.3333M377 48L375 56C381.739 60.403 387.104 61.3904 395 60.0803C398.084 59.5686 400.958 59.427 403 57C392.417 58.48 385.807 51.9524 377 48M420 56C413.036 62.6133 401.437 64.584 393 69C394.575 72.9843 398.21 76.4861 398.383 80.9606C398.631 87.3356 388.811 89.3389 384 90C386.05 94.5954 388.214 100.88 391.499 104.675C395.539 109.342 401.075 112.743 404.987 117.63C408.657 122.215 410.704 130.232 411 136C414.234 130.636 412.718 124.166 419 121C417.902 129.691 419 138.228 419 147C428.063 141.792 425.085 136.403 424.495 128C424.327 125.612 425.414 122.693 423.958 120.549C422.337 118.164 418.59 117.541 416 117C414.509 119.35 413.08 121.158 411 123C414.198 105.783 416.26 88.4686 420.059 71.4244C421.132 66.6092 424.877 62.8941 426 58C422.017 60.4274 419.331 66.8837 417 71C417.424 65.7451 421.08 61.3239 422 56L420 56M352 57C352.447 62.6663 353.971 68.3046 353.971 74C353.971 81.1678 352.309 88.955 351 96C355.537 97.5485 360.197 98.7805 365 99C365.137 93.1837 366.537 88.6874 372 86C370.612 78.5276 368.98 69.5112 360 68C361.671 62.709 366.112 63.014 371 63L371 61C364.039 60.9424 358.599 58.491 352 57z"/>
<path style="fill:#362f26; stroke:none;" d="M415 71L416 72L415 71z"/>
<path style="fill:#beb9b1; stroke:none;" d="M333 87L332 91C333.303 89.3323 333.553 89.0078 333 87M369 91C369.978 95.7249 370.972 101.796 374.495 105.366C377.49 108.399 381.638 109.89 384.547 113.129C388.22 117.219 390.152 123.015 396 124C395.499 126.686 395.117 129.27 395 132L400 133C398.521 133.986 398.797 134 397 134C398.8 137.957 401.387 140.62 405 143C404.218 133.169 400.647 121.654 394.775 113.619C391.999 109.82 387.456 107.949 384.818 103.985C380.787 97.9253 378.079 88.7891 369 91M337.333 94.6667C337.278 94.722 337.222 95.7779 337.667 95.3333C337.722 95.2776 337.778 94.2224 337.333 94.6667M346 103C355.437 107.482 367.547 113.087 378 114C371.69 107.912 364.199 104.372 356 101.645C351.901 100.282 347.737 97.8215 346 103M309 119C312.164 118.206 314.862 116.41 318 115.568C324.5 113.824 332.301 114.15 339 113.985C345.909 113.816 353.121 111.788 360 113.557C363.214 114.383 366.059 116.261 369 117.732C374.68 120.572 380.284 122.894 383 129L392 131C384.099 121.515 370.985 114.369 359 111.293C356.064 110.54 353.071 110.982 350.17 110.346C344.354 109.072 339.145 106.317 333 105.443C327.805 104.704 314.492 106.334 310.938 110.652C309.086 112.903 309.12 116.253 309 119M491 118C495.977 123.293 503.911 127.763 506.411 135.001C507.965 139.5 506.351 144.443 506.093 149C505.921 152.045 506.662 154.976 506.66 158C506.658 164.481 505.203 169.542 507 176C509.085 171.356 508.812 165.983 509.59 161C510.665 154.119 512.858 147.023 511.787 140C510.226 129.76 500.618 120.658 491 118M313 125C316.687 124.213 320.177 122.241 324 122.184C330.111 122.091 335.92 125.017 341.91 125.496C347.393 125.935 356.414 122.886 361 120C350.707 116.957 335.537 118.191 325 119.92C320.375 120.679 315.666 120.774 313 125M359 129C366.194 129.482 370.98 134.571 377 138C374.392 131.916 365.029 118.681 359 129M315 133C323.358 130.967 335.229 133.754 343 137.529C346.974 139.459 350.572 142.727 355 143.591C361.004 144.763 367.391 140.6 373 139C370.535 135.089 367.137 135.892 363.09 134.697C359.466 133.627 357.792 129.675 353.924 129.167C348.26 128.421 343.076 131.702 337 130.486C329.744 129.034 319.221 124.631 315 133M376 131C377.663 134.448 379.116 136.062 383 136C380.939 133.647 378.847 132.286 376 131M321 139C328.704 139.995 335.481 144.188 343 145C340.484 140.167 323.197 131.185 321 139M412 138C410.767 145.283 410.635 148.89 413 156C415.132 150.919 414.578 142.849 412 138z"/>
<path style="fill:#362f26; stroke:none;" d="M625 139C625.776 142.692 627.858 144.964 630 148C633.079 146.385 636.186 140.819 631.568 138.618C629.54 137.652 627.023 138.524 625 139z"/>
<path style="fill:#beb9b1; stroke:none;" d="M371 142C372.246 146.621 375.305 150.405 376.805 155C378.568 160.401 379.128 167.744 381.598 172.682C382.694 174.873 384.873 174.834 387 175C385.056 169.649 382.794 163.962 380 159C385.25 163.129 389.554 170.28 390 177C377.772 176.958 371.865 166.662 361 163C359.55 164.608 358.949 165.064 357 166L358 161C352.762 160.892 345.494 158.054 342 163L348 163C347.455 164.635 347.635 164.455 346 165C349.791 173.519 357.968 184.751 366 189.657C371.083 192.761 377.443 194.203 382.91 196.583C387.111 198.41 391.323 201.605 395.91 202.377C397.67 202.672 399.273 201.826 401 202C407.258 202.63 409.856 208.298 416 203C417.186 204.036 417.604 204.339 419 205L419 207C415.721 209.335 415.333 212.164 416 216C411.372 220.044 417.068 222.963 417.934 227.104C418.55 230.054 416.623 233.118 416.21 236C415.53 240.742 416.766 245.297 416.755 250C416.748 253.156 417.072 256.881 416.408 259.961C415.799 262.784 414.027 265.176 413.493 268.039C412.997 270.7 413.665 273.346 413.301 276C412.707 280.327 409.865 285.226 407.598 288.911C405.49 292.337 402.152 294.775 399.765 298.004C397.494 301.075 396.309 304.669 394.215 307.816C391.988 311.162 389.135 313.021 388 317C386.051 316.064 385.45 315.608 384 314L380 316C378.477 312.993 376.198 310.3 375.279 306.999C372.423 296.746 374.528 284.576 372.532 274C371.684 269.502 369.316 265.498 368.468 261C367.117 253.841 366.886 247.034 364.457 240C362.079 233.114 358.074 225.881 356.51 218.83C355.138 212.645 357.525 206.958 357.774 201C357.9 197.981 356.665 194.911 356 192C358.356 195.86 359.42 199.532 360 204C363.107 196.579 357.88 189.189 352 185C352.934 187.72 354.276 189.696 356 192C347.708 186.158 341.214 176.104 337 167C328.574 169.353 333.552 160.553 337.289 157.703C349.544 148.36 364.103 162.015 374 168C373.503 164.623 372.626 161.307 371.764 158C366.53 137.914 344.344 153.343 332 156C337.208 151.732 343.529 150.632 349 147C344.546 145.722 341.366 147.907 336.985 147.507C328.921 146.77 321.142 143.648 313 143C315.445 146.429 318.961 146.678 323 147C323.586 151.507 326.068 155.436 326.506 159.985C326.758 162.599 325.497 164.656 325.392 167.17C325.276 169.938 326.914 172.55 328 175C323.518 176.334 320.382 179.707 316 181C313.59 190.141 306.797 197.836 309 208L312 205C312.094 216.414 318.694 223.37 324.986 232.421C331.626 241.971 337.281 251.526 340 263C341.195 262.402 340.977 262.534 342 261C343.19 264.657 344.437 268.188 345 272L344 270C343.317 271.506 343.174 272.315 343 274C344.396 273.339 344.814 273.036 346 272C347.375 278.529 352.544 284.547 353.667 291C354.119 293.602 351.475 295.113 352.167 298C352.637 299.966 354.601 305.218 356 302C358.944 307.666 363.673 311.045 367.981 315.614C373.466 321.43 379.457 328.289 383.799 335C387.202 340.258 383.219 347.512 388 351C387.014 352.479 387 352.203 387 354C392.665 352.128 392.646 347.208 393.169 342C393.809 335.634 394.982 329.417 395 323C397.074 330.016 396.42 338.652 397 346C400.513 343.708 402.406 339.605 404.772 336.17C411.005 327.12 417.314 316.748 420 306L414 303C417.097 302.151 419.794 301.875 423 302C423.295 295.234 424.999 288.849 425 282C430.143 280.198 431.716 271.813 433.409 267C436.802 257.354 438.921 246.249 438.921 236C438.921 228.297 437.352 220.77 438 213C433.749 210.656 434.435 207.086 432.583 203C430.842 199.156 428.207 195.593 426 192C427.924 190.999 428.098 190.923 429 189C422.916 188.536 417.007 189.077 414 183C409.394 185.828 408.563 191.115 407 196C405.441 190.727 406.603 185.363 405.671 180C404.265 171.905 400.155 163.696 397.319 156C395.657 151.49 394.253 143.986 389.671 141.549C383.297 138.16 377.438 140.524 371 142z"/>
<path style="fill:#362f26; stroke:none;" d="M484 158C489.687 154.885 494.654 149.791 493 143C488.54 145.888 485.861 153.082 484 158z"/>
<path style="fill:#beb9b1; stroke:none;" d="M461 184L462 185L461 184M362 194C362.41 197.245 363.432 200.772 362.433 203.996C361.286 207.697 358.573 210.047 358 214C360.364 213.518 360.518 213.364 361 211C361.562 212.801 361.824 214.122 362 216C368.285 219.398 371.401 228.021 375 234C375.984 231.669 375.981 229.543 376 227C380.949 225.357 380.057 220.53 379.996 216C379.836 204.166 372.534 197.513 362 194z"/>
<path style="fill:#362f26; stroke:none;" d="M311 197L311 201C311.71 199.24 311.71 198.76 311 197z"/>
<path style="fill:#beb9b1; stroke:none;" d="M275 199C274.274 201.179 274.561 200.78 273 200C272.458 202.674 272.493 203.731 274 206L277 199L275 199M276 208C275.354 210.458 275.354 211.542 276 214C277.225 211.987 277.645 210.341 278 208L276 208M445 212C445 220.387 444.802 228.671 446.069 236.985C446.545 240.111 448.628 242.864 448.567 246.039C448.379 255.879 445.23 267.369 443.115 277C441.893 282.563 441.006 288.667 439.014 294C438.119 296.396 435.478 299.711 437.083 302.312C438.235 304.182 441.152 305.186 443.001 306.167C450.203 309.986 457.153 311.081 465 308.137C468.513 306.818 471.268 304.74 475 304C467.808 290.91 481.21 280.611 483.33 267.961C485.019 257.884 475.501 246.656 469 240C474.085 240.383 476.945 243.192 481 246C478.804 240.208 474.679 235.713 470.753 231C463.218 221.954 457.215 214.169 445 212M400 213L400 216L402 216L402 213L400 213M308 224C308.092 227.088 308.572 229.258 310 232C311.098 228.833 310.037 226.561 308 224M363 230C365.499 239.153 369.972 247.349 370 257C372.975 249.91 369.438 234.393 363 230M392 240L391 245C392.475 243.065 392.791 242.307 392 240M403 246C400.806 258.946 395.768 270.873 394 284C395.3 283.35 395 283.853 395 282C395.238 284.095 395.184 285.889 395 288C396.081 286.542 396.436 285.752 397 284C398.023 285.534 397.805 285.402 399 286C402.568 278.844 406.19 272.131 407 264C404.71 266.679 403.019 269.064 400 271C401.129 266.238 403.272 261.857 404 257C402.7 257.65 403 257.147 403 259C402.069 254.534 404.66 250.264 403 246M325 250L325 255L328 255C327.259 252.735 326.843 251.453 325 250M483 250C483.901 253.602 484.911 256.811 488 259C487.142 255.349 485.585 252.712 483 250M371 259C371.39 262.893 372.755 266.312 374 270C375.34 266.136 373.373 262.139 371 259z"/>
<path style="fill:#362f26; stroke:none;" d="M401.333 260.667C401.278 260.722 401.222 261.778 401.667 261.333C401.722 261.278 401.778 260.222 401.333 260.667z"/>
<path style="fill:#beb9b1; stroke:none;" d="M490 261C490.98 262.783 490.908 262.594 493 263C491.777 261.805 491.58 261.684 490 261M383 264C380.648 267.493 381.827 270.954 382 275C384.605 271.499 385.517 267.75 383 264M277 276C278.238 281.475 281.049 286.404 282 292C283.3 291.35 283 291.853 283 290C283.986 291.479 284 291.203 284 293C286.092 287.153 281.313 279.739 277 276M381 278C380.486 282.42 381.455 285.693 382 290C383.596 286.998 384.765 283.454 382 281C382.986 279.522 383 279.797 383 278L381 278z"/>
<path style="fill:#362f26; stroke:none;" d="M640 279C638.696 279.005 637.276 278.901 635.975 279.059C626.406 280.218 636.767 290.363 639.682 282.897C640.124 281.766 639.962 280.161 640 279M382.333 282.667C382.278 282.722 382.222 283.778 382.667 283.333C382.722 283.278 382.778 282.222 382.333 282.667z"/>
<path style="fill:#beb9b1; stroke:none;" d="M297 283C297.959 289.526 298.954 297.414 305 301L304 297C305.657 298.664 306.971 299.875 309 301C307.348 294.86 301.513 287.434 297 283M495 286L495 288L499 288L499 286L495 286M494 290L494 297C497.837 295.87 500.879 294.467 503 291C499.975 290.438 497.078 290.064 494 290z"/>
<path style="fill:#362f26; stroke:none;" d="M353 295L354 298C354.685 296.752 354.749 296.452 355 295L353 295z"/>
<path style="fill:#beb9b1; stroke:none;" d="M503.333 295.667C503.278 295.722 503.222 296.778 503.667 296.333C503.722 296.278 503.778 295.222 503.333 295.667M484 300C486.936 299.373 488.013 298.853 489 296C486.064 296.627 484.987 297.147 484 300z"/>
<path style="fill:#362f26; stroke:none;" d="M355 299L355 302C355.696 300.446 355.696 300.554 355 299z"/>
<path style="fill:#beb9b1; stroke:none;" d="M484 306C488.371 304.869 495.519 303.464 497 299C492.033 300.024 486.893 301.61 484 306M458 321C458.04 325.799 459.562 330.279 459.737 335C459.909 339.662 458.201 344.32 458 349C467.268 348.809 476.371 346.482 484.79 352.06C487.931 354.141 490.086 357.59 493 360C484.491 367.348 486.1 375.731 481.738 385C475.334 398.607 471.003 412.132 468.394 427C467.868 429.995 468.672 432.994 468.242 436C465.659 454.027 461.474 472.088 458 490L455 490C453.017 480 451.186 472.32 452 462C446.495 468.694 446.768 479.862 444.42 488C443.177 492.306 441.894 496.421 437 497C439.356 501.832 443.888 504.486 448 507.805C452.543 511.471 456.574 515.703 462 518C463.741 513.165 462.21 508.855 461 504C463.328 505.183 465.511 506.223 468 507C471.672 500.541 473.68 493.427 474 486C470.452 490.087 467.061 495.504 468 501C465.854 501.504 464.021 502.119 462 503C465.972 489.471 474.837 477.38 479.455 464C481.944 456.791 480.006 449.296 481.681 442C483.147 435.612 486.841 430.742 487 424L494 424C494.554 419.909 497.117 415.171 496.596 411.089C496.199 407.973 493.815 405.101 493 402C495.042 402.895 496.828 403.536 499 404C499.431 393.952 502.934 384.414 498 375L496 375L495 378C492.607 369.904 495.039 361.286 494.999 353C494.974 347.724 493.005 343.16 492.529 338C491.848 330.604 493 322.494 493 315C485.439 316.28 477.473 316.987 470 318.478C465.837 319.309 462.313 320.875 458 321M452.333 320.667C452.278 320.722 452.222 321.778 452.667 321.333C452.722 321.278 452.778 320.222 452.333 320.667M428 321C424.422 329.537 417.379 335.967 411.95 343.286C402.349 356.227 395.79 376.936 377 377L377 374L382 374C374.869 368.591 356.07 369.552 358 357L350 354C350.799 349.694 350.004 347.043 346 345C346.197 351.102 339.873 352.901 339.225 359C338.046 370.077 343.395 379.952 338.985 391C336.494 397.243 333.606 403.143 330.333 409C329.007 411.371 326.42 415.012 326.898 417.87C327.322 420.406 330.264 421.824 332.286 422.916C338.104 426.058 343.92 429.334 350 431.911C359.752 436.045 372.631 442.412 380.556 449.495C383.821 452.413 384.526 456.644 387.313 459.815C393.32 466.649 405.646 468.469 414 466L413 463C414.389 462.309 414.861 462.016 416 461C420.669 463.861 423.9 459.507 426.92 455.985C433.987 447.743 441.089 439.043 447.05 429.961C449.761 425.83 453.412 421.563 455.301 417C465.257 392.946 456.639 367.931 445.752 346C441.404 337.24 438.484 323.943 428 321M330 322C330.936 323.948 331.392 324.55 333 326C332.064 324.051 331.608 323.45 330 322M327 323C328.324 325.687 329.313 326.676 332 328C330.492 325.732 329.342 324.363 327 323z"/>
<path style="fill:#362f26; stroke:none;" d="M342 355C341.438 356.801 341.176 358.122 341 360C342.318 358.074 342.651 357.234 342 355z"/>
<path style="fill:#beb9b1; stroke:none;" d="M388 358C385.294 361.062 381.405 362.872 379 366C384.086 365.193 388.466 363.166 390 358L388 358M599 376L599 378L602 378L602 376L599 376M609 384L609 387L611 387L611 384L609 384M280 385L280 393C281.161 390.23 281.161 387.77 280 385M528 385C529.506 385.683 530.315 385.826 532 386C530.494 385.317 529.685 385.174 528 385z"/>
<path style="fill:#362f26; stroke:none;" d="M432 390C433.964 394.21 433.877 396.471 433 401C429.229 399.81 428.431 397.828 428 394C423.123 394.557 417.242 400.967 423.318 404.971C425.28 406.265 427.906 405.887 430 405.195C438.079 402.525 438.565 396.399 440 389L432 390z"/>
<path style="fill:#beb9b1; stroke:none;" d="M530 393C532.743 392.562 534.325 392.221 536 390C533.004 390.225 531.751 390.552 530 393z"/>
<path style="fill:#362f26; stroke:none;" d="M639 391L639 394C639.696 392.446 639.696 392.554 639 391z"/>
<path style="fill:#beb9b1; stroke:none;" d="M609 393C608.31 396.304 608.079 398.088 611 400L611 393L609 393M533 399C534.506 399.683 535.315 399.826 537 400C535.494 399.317 534.685 399.174 533 399M608.333 403.667C608.278 403.722 608.222 404.778 608.667 404.333C608.722 404.278 608.778 403.222 608.333 403.667M587 411C589.146 410.496 590.979 409.88 593 409C590.279 408.192 588.708 408.75 587 411M499 412L499 416L503 415L503 413L499 412M589 416C592.773 417.099 595.228 415.293 597 412C594.126 413.045 591.618 414.414 589 416M512 413L512 416L514 416L514 413L512 413M576 419C576.98 420.783 576.908 420.594 579 421C577.777 419.805 577.58 419.684 576 419M562 420L562 424C567.403 426.479 570.799 430.144 577 431C573.25 426.18 567.692 422.189 562 420M581 421C581.768 422.314 581.686 422.232 583 423C580.482 423.079 578.462 422.608 576 422C579.123 425.129 582.666 426.35 587 427L588 420C585.472 420.052 583.418 420.278 581 421M497 421C497.255 424.057 497.255 426.943 497 430C499.036 427.534 500.113 425.071 501 422L497 421z"/>
<path style="fill:#362f26; stroke:none;" d="M583.667 424.333C583.222 424.778 584.278 424.722 584.333 424.667C584.778 424.222 583.722 424.278 583.667 424.333z"/>
<path style="fill:#beb9b1; stroke:none;" d="M514 428C512.624 435.2 521.876 440.33 528 442C526.335 434.369 521.397 430.177 514 428M503 433C500.336 436.982 498.802 441.28 498 446C500.727 442.651 504.292 437.374 503 433M536 433C539.597 437.661 544.714 440.204 549.424 443.616C554.256 447.116 558.168 451.268 564 453C557.598 445.136 545.363 436.887 536 433M541 433C546.065 438.546 553.212 443.775 560 447C561.372 444.453 562.218 443.812 565 443C563.897 444.457 563.457 444.897 562 446C565.193 457.139 581.906 457.849 591 462.197C595.384 464.293 598.654 467.933 603 470L601 464C599.805 464.598 600.023 464.466 599 466C597.024 461.627 595.321 456.449 592.2 452.758C579.884 438.195 558.878 435.271 541 433M489 434C486.886 438.52 482.248 445.328 485 450C486.999 445.491 490.442 438.876 489 434M508 434C505.478 436.506 504.032 438.592 503 442C506.091 440.204 508.764 437.733 508 434M582 434C583.988 436.061 585.157 436.579 588 437C586.047 435.276 584.537 434.655 582 434M589 438C591.542 441.495 594.753 444.279 597 448C598.397 447.339 598.814 447.036 600 446C601.223 447.195 601.42 447.316 603 448C600.001 443.135 594.547 439.304 589 438M452 442C448.424 446.093 444.299 450.063 442 455C446.938 452.892 452.97 447.934 452 442M512 447C510.483 453.727 503.801 457.759 501 464C507.688 460.427 510.193 453.033 518 451C517.164 447.167 515.866 446.099 512 447M603 448C609.105 463.481 614 477.106 614 494C612.814 492.814 612.472 492.416 612 491C611.221 492.769 611.088 494.036 611 496C608.186 490.237 605.424 479.023 599 477C598.206 487.413 583.718 484 576 484C576.65 485.3 576.147 485 578 485C575.582 485.722 573.528 485.948 571 486C568.983 489.853 565.688 490.971 562 493L562 489C559.108 490.225 557.062 491.636 555 494C564.289 493.673 572.451 503.001 576 511C580.422 510.27 584.558 510.909 589 511C590.516 517.624 594.632 521.879 593 529C592.79 527.153 592.806 525.857 593 524C590.399 525.026 588.318 526.439 586 528L591 520C588.588 519.945 586.374 519.421 584 519L583 525C582.79 523.153 582.806 521.857 583 520C578.976 523.044 577.497 528.343 576 533C575.014 531.521 575 531.797 575 530C573.751 533.208 574.979 536.78 579.09 536.268C583.824 535.678 588.653 532.398 593 530.566C601.261 527.083 608.995 525.034 618 526C620.929 523.781 624.56 524.955 627.431 522.972C632.555 519.435 631 509.309 631 504C631.644 506.106 631.906 507.795 632 510C634.419 504.233 632.001 496.223 632 490L634 490C634.531 496.722 635 503.234 635 510C637.215 505.067 636.999 499.33 637 494C639.224 501.525 638.999 511.128 639 519C640.552 515.301 640 510.983 640 507C640 502.941 640.708 498.08 639.454 494.171C638.244 490.394 635.218 487.222 633.086 483.961C628.336 476.696 624.268 469.662 618.572 463C614.047 457.709 609.381 450.984 603 448M518 457L515 457C513.759 464.873 506.472 467.795 502.029 473.591C498.329 478.417 498.291 485.209 498 491L494 491C494.464 493.172 495.105 494.958 496 497C496.683 495.494 496.826 494.685 497 493L501 493C502.147 487.239 506.197 482.87 509.305 478C515.616 468.108 519.595 456.158 532 453C532.968 455.964 533.934 456.503 537 457C533.87 447.917 518.895 445.674 518 457M308 458C309.506 458.683 310.315 458.826 312 459C310.494 458.317 309.685 458.174 308 458M537 459L537 462C538.195 460.777 538.316 460.58 539 459L537 459M587 462C590.735 465.622 594.949 469.586 600 471C597.187 466.141 592.285 463.526 587 462M334 465C338.84 466.889 344.873 464.221 350 464C345.277 462.074 338.911 464.085 334 465M540 463C536.343 465.508 535.243 467.587 536 472C537.661 471.387 538.483 470.957 540 470C538.523 472.323 537.106 474.487 536 477C540.501 477.34 543.135 477.572 547 475C547.216 479.621 545.967 481.963 544 486C547.682 485.316 551.423 485.067 555 484C555.987 486.853 557.064 487.373 560 488L563 474L555 474C553.393 468.483 546.022 467.131 541 468C540.912 466.036 540.779 464.769 540 463M374 465C375.248 465.685 375.548 465.749 377 466C375.521 466.986 375.797 467 374 467C375.279 475.219 385.643 479.357 391.996 483.623C400.169 489.112 406.569 496.354 414 502.701C419.834 507.683 426.333 511.827 432 517C416.873 508.57 406.077 495.238 392 485.508C384.849 480.566 374.511 475.946 372 467C367.551 467.092 362.569 466.992 360 471C350.214 465.908 336.587 470.448 326 470C327.98 468.116 329.31 467.531 332 467C325.495 464.271 310.906 466.956 306.608 472.978C304.914 475.353 305.031 478.222 305 481C310.035 481.682 314.099 482.48 315 488C319.408 486.266 328.545 481.851 331.397 488.225C332.532 490.764 332 494.286 332 497C334.584 496.678 336.602 496.027 339 495L337 491L342 493C344.402 490.972 347.308 489.674 350 488C348.752 487.315 348.452 487.251 347 487L351 485C348.328 484.201 346.568 484.922 344 486L345 489C341.983 487.934 338.606 488.413 335.838 487.406C331.945 485.99 331.148 480.775 335.074 479.133C341.371 476.501 348.411 477.223 355 476C350.142 473.961 344.065 475.06 339 476C343.99 473.599 351.438 472.361 357 472C355.199 472.562 353.878 472.824 352 473C356.272 474.742 361.356 473.589 366 475L364 479C367.936 478.573 370.7 477.147 374 475C371.956 477.615 369.798 479.213 367 481L371 486L368 487L368 485C364.06 486.135 360.295 487.496 358 491C361.118 490.261 364.013 489.151 367 488C369.678 491.669 380.579 488.497 384.995 489.083C387.676 489.439 390.621 491.428 388.171 494.199C386.061 496.585 382.793 496.256 381 499C384.801 499 388.343 499.081 392 498C392.915 502.191 394.279 505.648 394 510L397 507C396.042 512.987 399.572 515.575 401 521C404.772 521.98 407.327 524.663 410.91 525.938C413.242 526.768 415.548 525.667 417.58 527.447C420.362 529.884 421.41 533.771 424.375 536.106C431.113 541.412 438.639 545.634 440 555C443.553 551.72 443.708 546.419 447.684 543.569C451.453 540.867 457.114 542.304 460 539C464.005 541.982 466.741 546.469 471 549C470.616 543.909 468.469 541.346 464 539C466.948 539.035 469.206 540.025 472 541C461.412 524.582 442.48 514.641 428 502C429.797 502 429.522 501.986 431 501L431 499C420.35 491.984 410.829 481.69 398 479C405.853 488.708 418.567 493.96 428 502C411.863 493.972 399.854 479.093 384 471C388.621 471.59 391.786 475.122 396 477C392.053 469.786 381.891 465.689 374 465z"/>
<path style="fill:#362f26; stroke:none;" d="M378 467C379.98 468.884 381.31 469.469 384 470C382.051 468.427 380.412 467.709 378 467z"/>
<path style="fill:#beb9b1; stroke:none;" d="M591 470L592 473L589 472C589 473.797 589.014 473.521 590 475C585.044 475.667 579.771 476.55 575 478C576.988 475.939 578.157 475.421 581 475C579.959 474.314 579.076 473.634 577.863 473.248C571.018 471.073 571.643 477.149 568 481C571.974 482.172 574.376 479.384 578.17 478.781C582.489 478.095 587.59 479 592 479C591.232 477.686 591.314 477.768 590 477C592.798 475.682 594.557 474.768 596 472C594.255 471.11 592.875 470.547 591 470z"/>
<path style="fill:#362f26; stroke:none;" d="M339 471C342.163 472.327 345.586 472 349 472C345.837 470.673 342.414 471 339 471M332.667 472.333C332.222 472.778 333.278 472.722 333.333 472.667C333.778 472.222 332.722 472.278 332.667 472.333z"/>
<path style="fill:#beb9b1; stroke:none;" d="M602 473C602.684 474.58 602.805 474.777 604 476C603.316 474.42 603.195 474.223 602 473z"/>
<path style="fill:#362f26; stroke:none;" d="M327 475C328.248 475.685 328.548 475.749 330 476C328.752 475.315 328.452 475.251 327 475z"/>
<path style="fill:#beb9b1; stroke:none;" d="M564 476L564 478L566 478L566 476L564 476M580 480C582.885 481.535 585.748 481.858 589 482L589 480L580 480M363.667 482.333C363.222 482.778 364.278 482.722 364.333 482.667C364.778 482.222 363.722 482.278 363.667 482.333M280 484L280 489C280.83 486.97 280.83 486.03 280 484M357 488L364 485C360.822 484.126 358.779 485.316 357 488M525 490C518.514 499.281 513.111 514.913 499 512C499.823 508.294 498.29 505.867 495 504C495.037 510.561 495.198 516.118 500 521L504 519C504.112 522.524 504.46 524.516 507 527L507 523C511.134 521.66 511.604 519.082 511 515L517 515L518 511L522 512L524 505L520 504C522.342 499.254 525.777 495.22 527 490L525 490M362.667 492.333C362.222 492.778 363.278 492.722 363.333 492.667C363.778 492.222 362.722 492.278 362.667 492.333M363.667 496.333C363.222 496.778 364.278 496.722 364.333 496.667C364.778 496.222 363.722 496.278 363.667 496.333M354 498C351.202 501.835 349.16 504.099 349 509C352.794 506.556 354.372 502.102 356 498L354 498M527 501C529.124 500.101 529.101 500.124 530 498C527.876 498.899 527.899 498.876 527 501M331 500L331 504C332.081 502.542 332.436 501.752 333 500L331 500M525.333 502.667C525.278 502.722 525.222 503.778 525.667 503.333C525.722 503.278 525.778 502.222 525.333 502.667M433.667 503.333C433.222 503.778 434.278 503.722 434.333 503.667C434.778 503.222 433.722 503.278 433.667 503.333M381 505L381 509C383.68 508.256 384.719 507.471 386 505L381 505M532 512C534.627 514.993 538.004 516.172 541.286 518.36C547.253 522.337 552.979 528.179 560 530L560 523C554.407 522.59 549.154 515.97 544 519L541 514C544.597 511.971 545.479 510.043 546 506C540.58 506.681 536.922 510.06 532 512M556 507C556.899 509.124 556.876 509.101 559 510C558.518 507.636 558.364 507.482 556 507z"/>
<path style="fill:#362f26; stroke:none;" d="M427 508C430.928 512.286 436.287 515.189 441 518.579C444.979 521.442 448.557 524.94 453 527C446.982 518.824 436.269 511.994 427 508M538 514C540.124 513.101 540.101 513.124 541 511C538.876 511.899 538.899 511.876 538 514z"/>
<path style="fill:#beb9b1; stroke:none;" d="M347 512C345.822 515.718 345.083 519.092 345 523C346.841 519.618 347.985 515.721 349 512L347 512M632.333 513.667C632.278 513.722 632.222 514.778 632.667 514.333C632.722 514.278 632.778 513.222 632.333 513.667z"/>
<path style="fill:#362f26; stroke:none;" d="M432 517C436.23 521.749 442.275 525.292 448 528C443.663 523.114 438.004 519.516 432 517z"/>
<path style="fill:#beb9b1; stroke:none;" d="M403 525C403.23 527.738 403.293 530.267 403 533L410 530C408.375 526.812 406.475 525.704 403 525z"/>
<path style="fill:#362f26; stroke:none;" d="M581 527L581 530C581.696 528.446 581.696 528.554 581 527z"/>
<path style="fill:#beb9b1; stroke:none;" d="M632 535L632 538C632.696 536.446 632.696 536.554 632 535z"/>
<path style="fill:#362f26; stroke:none;" d="M461 536C462.223 537.195 462.42 537.316 464 538C462.777 536.805 462.58 536.684 461 536z"/>
<path style="fill:#beb9b1; stroke:none;" d="M636 536L636 540C636.71 538.24 636.71 537.76 636 536M396 549C399.827 548.101 402.751 546.181 406 544L404 539C405.797 539 405.521 538.986 407 538C400.905 537.112 397.122 543.859 396 549M639 538L639 543C639.83 540.97 639.83 540.03 639 538z"/>
<path style="fill:#362f26; stroke:none;" d="M270 539L270 542C270.696 540.446 270.696 540.554 270 539M276 540C276.776 542.132 277.13 542.771 279 544C278.045 542.233 277.434 541.393 276 540M402 541L403 542L402 541z"/>
<path style="fill:#beb9b1; stroke:none;" d="M519 542C520.723 545.113 522.556 546.174 526 547C523.904 544.482 522.057 543.185 519 542M290 544C291.226 546.035 291.703 546.326 294 547L293 544L290 544M299 545C300.81 546.24 300.777 546.184 303 546C301.19 544.76 301.223 544.816 299 545M303 547C303.545 548.635 303.365 548.455 305 549L305 547L303 547M516.667 548.333C516.222 548.778 517.278 548.722 517.333 548.667C517.778 548.222 516.722 548.278 516.667 548.333M629 548C626.596 550.759 625.089 553.507 624 557C628.343 555.785 630.708 552.413 629 548M520 550L521 551L520 550M493 552C496.61 558.996 502.998 567.907 509 573C510.995 563.679 501.267 554.886 493 552M615 566C620.273 564.504 625.699 564.014 627 558C621.749 558.833 617.545 561.251 615 566M315 559C316.223 560.195 316.42 560.317 318 561C316.777 559.805 316.58 559.684 315 559M593 560C594.248 560.685 594.548 560.749 596 561C594.752 560.315 594.452 560.251 593 560z"/>
<path style="fill:#362f26; stroke:none;" d="M537 561C538.978 562.732 540.435 563.402 543 564C541.051 562.427 539.412 561.709 537 561z"/>
<path style="fill:#beb9b1; stroke:none;" d="M591 573C598.02 572.995 603.261 570.33 610 569C604.388 560.559 595.163 566.106 591 573M328 569C331.495 572.786 336.096 575.448 341 577C337.656 572.667 333.486 569.73 328 569M510 574L514 586C515.769 581.784 515 576.541 515 572C513.106 572.465 511.723 573.066 510 574M606 584L606 586L610 586L610 584L606 584M486 587L486 590C486.696 588.446 486.696 588.554 486 587M426.333 609.667C426.278 609.722 426.222 610.778 426.667 610.333C426.722 610.278 426.778 609.222 426.333 609.667M431.667 615.333C431.222 615.778 432.278 615.722 432.333 615.667C432.778 615.222 431.722 615.278 431.667 615.333z"/>
<path style="fill:#362f26; stroke:none;" d="M475 629L475 635C475.951 632.715 475.951 631.285 475 629M472.667 635.333C472.222 635.778 473.278 635.722 473.333 635.667C473.778 635.222 472.722 635.278 472.667 635.333M470 671C467.273 674.153 464.86 677.264 463 681C466.374 678.495 469.563 675.328 470 671M432 728L433 729L432 728M436 763C434.5 766.658 432.917 770.141 432 774C434.521 770.957 437.093 766.986 436 763M431 775L432 776L431 775M398 795C396.137 800.717 393.389 806.154 392 812C395.388 807.91 399.586 800.363 398 795z"/>
<path style="fill:#beb9b1; stroke:none;" d="M345.667 800.333C345.222 800.778 346.278 800.722 346.333 800.667C346.778 800.222 345.722 800.278 345.667 800.333M377 826C374.87 829.232 373.095 832.277 372 836C375.825 833.988 378.51 831.07 380 827L377 826M373 837L371 841C373.249 839.846 373.846 839.249 375 837L373 837M347 838L345 843C346.58 842.316 346.777 842.195 348 841C349.186 842.036 349.604 842.339 351 843L352 839L347 838M350 847L354 845L353 848C355.85 846.444 356.503 845.207 357 842C353.302 842.574 351.684 843.655 350 847M375 842L374 847L378 848C377.403 845.579 376.567 843.943 375 842M338 852C336.85 855.966 335.061 857.367 331 858C332.037 862.359 333.961 865.025 338 867L342 859L338 860L340 852L338 852M373.333 854.667C373.278 854.722 373.222 855.778 373.667 855.333C373.722 855.278 373.778 854.222 373.333 854.667M368 856L368 859C369.195 857.777 369.316 857.58 370 856L368 856M366 857C365.043 858.517 364.613 859.339 364 861C365.997 859.756 366.558 859.308 366 857M369 860L369 863C369.696 861.446 369.696 861.554 369 860M373 867L371 872C372.693 870.218 373.375 869.419 373 867M344 873C345.506 873.683 346.315 873.826 348 874C346.494 873.317 345.685 873.174 344 873M345 876C345.747 879.082 346.356 881.192 349 883L351 876L345 876z"/>
<path style="fill:#362f26; stroke:none;" d="M396 915C398.9 921.104 404.443 933.676 411 936L411 944L413 944C412.769 932.833 407.517 918.701 396 915M188 930L186 942L187 943L189 943C190.622 938.669 190.987 934.6 191 930L188 930M326 935C322.605 939.081 321.241 943.74 321 949L327 949C327 944.459 327.769 939.217 326 935M415.333 938.667C415.278 938.722 415.222 939.778 415.667 939.333C415.722 939.278 415.778 938.222 415.333 938.667M378 940C379.752 946.09 384.214 946.948 390 947C386.227 945.027 383.115 943.908 381 940L378 940M0 941L0 949L219 949C212.016 946.069 200.631 947.173 193 946.985C179.359 946.65 165.647 945.558 152 944.961C136 944.26 120 942.74 104 942.039C69.4122 940.525 34.6459 941 0 941M442 946L441 947L441 949C443.364 948.518 443.518 948.364 444 946L442 946z"/>
</svg>
