<?xml version="1.0" standalone="yes"?>
<svg xmlns="http://www.w3.org/2000/svg" width="640" height="427">
<path style="fill:#cdc8c1; stroke:none;" d="M0 0L0 181C2.54836 175.836 3.5542 172.784 9 170C6.23747 174.514 1.55764 180.031 0.302469 185.17C-0.960422 190.34 0 196.691 0 202L8 202C5.02465 203.376 3.22197 203.608 0 203L0 220C4.76946 217.759 7.51326 214.41 7 209L3 210C9.1562 205.336 16.9385 210.181 19 200L22 201L19 205C21.2007 205.481 21.7993 205.481 24 205C23.6766 207.032 23.6599 207.982 24 210C21.4923 211.687 19.7272 214.277 16.9815 215.688C11.9947 218.25 6.11074 218.456 1 221C1 222.797 1.0143 222.521 2 224C-1.39862 226.97 0 233.759 0 238L0 275L0 427L640 427L640 248C628.956 250.743 618.17 259.326 607 260C605.999 257.085 603.288 254.384 599.834 254.566C595.426 254.799 592.366 259.634 587.996 260.606C583.506 261.604 580.831 259.299 576.714 258.623C573.938 258.168 570.774 259.662 568 260C566.3 254.21 563.187 251.413 565 245C561.974 244.277 558.178 244.38 555.514 242.683C551.537 240.15 549.173 235.66 544 235.028C538.792 234.392 532.018 238.992 527 240.407C519.955 242.393 510.429 242.426 504.213 246.417C499.358 249.535 496.15 258.452 495.623 264C495.015 270.415 502.328 275.379 504.272 281.289C507.99 292.595 500.634 312.095 488.999 316.117C478.399 319.782 464.875 312.007 457 305.804C451.423 301.411 444.847 295.854 438.742 292.425C435.454 290.579 431.438 289.997 428 288.466C425.132 287.188 423 284.761 419.961 283.808C408.082 280.081 394.838 288.081 383 288.91C376.748 289.349 369.967 289.361 364.004 287.236C360.013 285.814 357.19 282.871 353 282C346.804 289.479 336.283 292.745 328 297.424C320.248 301.804 312.51 305.901 304 308.655C299.468 310.122 294.363 310.181 290 311.919C282.761 314.802 276.104 319.122 269 322.201C264.763 324.036 260.421 323.419 256.09 324.553C242.174 328.198 229.433 330.902 218 320C221.651 322.327 224.671 324.313 229 325C227.423 313.288 225.305 300.854 226.224 289C226.567 284.565 228.61 280.472 229 276C226.12 280.336 223.91 285.881 223 291C222.533 288.252 222.799 285.789 223 283C220.833 283.277 219.991 283.11 219 285C217.521 284.014 217.797 284 216 284C214.989 286.943 212.964 289.21 211.878 292.09C208.559 300.893 210.403 309.52 218 315C219.674 305.981 218.279 296.956 217 288L218 290C218.924 288.352 219.449 286.825 220 285C220.557 288.749 218.921 292.244 219.559 295.996C220.222 299.899 222.724 303.146 223.522 307.015C224.517 311.843 224 317.094 224 322C223.132 319.106 223.302 316.009 221 314L222 318C219.637 317.205 217.246 316.39 215.173 314.95C204.639 307.632 210.131 296.963 211 287C200.584 288.567 192.269 295.585 181 293.532C158.805 289.487 147.614 273.037 132.91 258C121.068 245.889 108.072 234.866 96.2716 222.714C91.9707 218.284 89.1129 212.745 84.8796 208.322C79.8663 203.083 73.2936 199.969 69 194C67.4101 199.986 74.3955 205.387 73.8912 212C73.5773 216.116 71.6205 219.887 71.1736 224C70.6202 229.093 72.2098 235.276 69.821 239.996C67.9043 243.784 64.1625 245.74 61.3025 248.665C59.6426 250.363 58.9652 252.792 57.277 254.404C54.9244 256.652 50.8105 256.674 48 258.34C37.4542 264.592 29.6524 269.967 17 271L18 267C15.6506 266.412 14.3376 266.383 12 267C12.8584 261.453 16.2854 258.035 22 259C23.7647 254.061 24.7739 249.267 25 244C28.3847 247.612 27.6552 251.265 28.1242 255.91C28.3496 258.142 29.4667 260.511 27.5532 262.312C24.9955 264.719 21.2657 264.195 19 267C26.9517 265.181 34.7698 263.772 40 257C35.8501 255.74 29.6146 253.896 34 249C33.5052 247.12 32 244.967 32 243C32 240.81 34.5841 239.419 33.8333 237.167C32.5291 233.254 27.5614 234.424 26 237C24.6011 233.496 23.6835 230.797 24 227C21.8839 229.244 21.3324 230.931 21 234L17 233C16.6891 236.32 15.9499 237.455 13 239C14.2228 237.805 14.42 237.684 16 237C14.0427 235.125 12.4501 233.295 11 231C14.4786 230.477 18.857 229.64 20.973 226.468C22.9 223.579 21.8249 221.058 25 219L24 216L28 216L27 221C29.5504 220.962 31.5462 221.292 34 222L33 226C38.8457 227.594 41.8025 230.963 42 237C44.9447 237.191 47.2614 237.95 50 239C50.9715 236.611 52.6778 233.798 52.358 231.129C51.7554 226.098 43.4807 219.534 40.2454 215.91C34.0114 208.93 27.9064 201.023 25 192L22 194C21.3179 185.357 19.6933 178.364 29.9761 175.75C31.6638 175.321 33.2722 175.151 35 175C33.9663 171.013 31.47 167.829 30 164C31.7604 165.729 33.1287 168.1 35.2739 169.387C40.7682 172.686 49.7245 171.731 56 172L53 168C56.0671 169.288 58.8026 171.549 62 172.487C67.8044 174.19 74.3148 172.074 80 170.889C82.7373 170.318 85.9394 170.812 88 169C89.5527 171.201 91.93 172.971 93.186 175.34C96.0359 180.713 95 188.139 95 194C98.1159 193.67 100.891 193.556 104 194C103.997 189.899 103.749 186.036 103 182C100.879 183.081 100.081 183.879 99 186C98.6592 185.061 98.0627 183.891 97.9329 182.845C96.7328 173.172 105.935 181.766 109.125 182.894C112.048 183.928 115.906 182.907 119 183L118 187C122.73 187.429 125.821 188.641 128 193L133 193L133 196L137 196C138.657 205.93 152.006 203.32 159 203C160.297 207.159 163.902 208.558 166.293 212.043C169.054 216.066 170.736 225.118 171 230L173 230L173 226C174.817 227.157 174.835 227.145 177 227L174 234C178.408 237.916 180.462 244.835 186 247C184.741 257.964 199.447 254.177 201 264C206.764 266.532 211.73 269.487 218 271C216.035 273.052 215.426 274.194 215 277L219 278C221.502 274.68 225.462 269.391 228.784 267.002C231.705 264.9 233.499 267.451 232 270L233 276C237.914 274.45 238.329 269.149 243 267C242.341 269.084 241.825 270.878 240 272C242.421 277.93 233.402 287.307 243.174 290.681C244.325 291.079 245.787 290.974 246.979 290.905C248.712 290.805 250.321 290.4 252 290L252 288C247.11 285 248 280.204 248 275C259.684 271.133 251.016 257.941 251.72 250C252.226 244.288 256.387 241.082 258 236C252.566 235.996 247.318 235.557 242.039 234.157C238.493 233.216 236.401 231.046 233 233C229.693 227.255 225.929 223.86 220 221C220.01 235.444 217.781 252.448 223 266L218 265C219.534 263.977 219.402 264.195 220 263C216.82 256.392 218.7 249.997 219 243C217.624 245.862 217.251 248.838 217 252C215.663 249.521 215.184 247.81 215 245C212.813 248.148 210.614 251.527 209 255C208.867 248.971 213.839 243.654 210 238C206.965 242.936 203.08 247.593 201 253C200.955 246.446 206.527 242.946 208.258 237C209.204 233.75 208.033 230.066 206.907 227C203.175 216.842 194.416 211.113 186 205.128C179.325 200.381 172.922 195.456 166 191.064C157.958 185.961 149.372 180.978 141.87 175.11C136.002 170.52 131.027 164.961 125 160.478C112.684 151.318 99.4275 143.099 86.7639 134.644C84.0732 132.848 82.8131 129.496 80.7523 127.09C76.0922 121.647 71.0682 116.91 66.9298 111C64.8832 108.077 62.9136 102.061 58.9421 101.502C55.7322 101.05 51.9927 103.036 49 103.975C44.107 105.512 39.218 106.866 35.0147 109.939C28.315 114.838 23.8456 122.178 17 127L19 123C16.5656 122.349 15.7173 121.84 14 120C12.1468 120 12.6498 119.7 12 121C13.5939 113.131 21.6319 109.785 25 103C26.6352 103.545 26.4549 103.365 27 105L31 103C29.3407 102.594 28.7582 102.691 27 103C31.4354 99.6274 37.827 97.6051 41 93L45 94C40.7842 88.749 38.677 82.8874 40.2631 76C41.0784 72.4598 42.7515 69.7158 43 66L45 66C45.2107 68.7385 45.3025 69.422 48 70C46.5215 70.9857 46.7968 71 45 71C50.3435 82.7849 58.1967 91.5223 69 98.3403C73.2153 101.001 80.9067 104.518 85.4861 100.397C91.2943 95.1688 89.639 82.0257 80 87C78.8643 83.1177 75.6957 83.1179 72 83C76.9283 81.0749 79.1669 78.7945 83.054 75.2955C87.0103 71.7344 95.5292 68.666 96.6381 62.9854C98.1855 55.0583 83.9679 45.6433 77.9961 42.6304C66.3667 36.763 51.6754 41.0865 46.7423 54C45.3576 57.6248 46 62.1868 46 66C45.1898 63.271 45.0209 60.8495 45 58L42 59L43 66C38.3087 55.4034 39.5323 43.2213 47.3796 34.0903C50.8045 30.1052 56.3058 28.1479 58 23C71.5292 21.895 84.5968 17.8049 98 16C100.22 22.5005 108.562 22.5812 114 25.2392C119.164 27.7631 123.247 32.3047 128.004 35.5154C144.354 46.5518 162.436 54.8183 179 65.5479C184.515 69.1202 188.72 74.212 194 78.0725C201.575 83.6114 209.234 88.3749 216 95C214.203 95 214.479 95.0143 213 96C215.837 98.5435 219.52 98.1359 222.715 100.342C227.5 103.646 233.21 108.103 236.402 113.004C238.4 116.071 239.068 119.824 241 123C243.788 122.973 246.272 123.431 249 124C256.766 117.155 273.091 117.001 283 117C289.583 117 296.48 116.421 303 117.439C310.844 118.664 317.507 121.964 325 124.061C327.964 124.891 331.046 124.574 334 125.33C348.148 128.954 362.334 134.711 377 136C378.383 129.366 384.109 128.979 390 127.917C396.363 126.769 402.67 125.306 409 124C406.103 126.203 403.472 127.893 400 129C403.846 130.333 407.149 127.997 411 127.329C416.364 126.397 423.581 125.87 429 126.213C438.611 126.821 447.599 130.925 456 135.258C460.343 137.499 465.001 141.012 470 141.516C473.733 141.893 476.373 139.454 479.715 138.359C481.796 137.677 483.991 137.93 486.015 136.977C488.872 135.631 491.124 133.281 494 131.92C497.26 130.377 500.903 130.114 503.715 127.686C510.046 122.219 516.953 115.993 522.714 109.91C526.962 105.427 530.757 100.379 536 96.9661C543.723 91.9388 550.616 93.3993 559 91.7222C564.079 90.7061 567.577 88.0605 573 88C579.555 75.5113 588.294 91.5015 591 98C591.406 96.3407 591.309 95.7582 591 94C593.133 96.7077 593.462 99.8923 594.919 103C598.89 111.467 603.372 118.038 600.196 127.985C598.467 133.401 593.846 137.483 592 143C605.875 143.002 613.965 148.826 622 160C623.571 157.149 624.134 154.749 627 153C624.649 148.633 620.62 147.957 616 147C623.243 143.58 625.153 148 630.455 152.102C633.133 154.173 636.814 155.038 640 156L640 0L304 0L201 0L166 0C160.181 0 153.851 -0.702942 148.09 0.143494C145.244 0.561523 142.776 2.28003 140 3L140 0L79 0C73.0523 0 61.6277 -2.5369 59 4L58 0L0 0z"/>
<path style="fill:#40392f; stroke:none;" d="M58 0L58 4C59.0811 2.54196 59.436 1.75198 60 0L58 0M140 0L140 3C142.689 2.58237 143.554 2.28275 145 0L140 0M218 0L219 1L218 0M477.667 0.333344C477.222 0.77771 478.278 0.722321 478.333 0.666656C478.778 0.222229 477.722 0.277832 477.667 0.333344M560 0L560 2L563 2L563 0L560 0M370 4L370 8C370.71 6.24048 370.71 5.75946 370 4M564 14L564 18C565.081 16.542 565.436 15.7519 566 14L564 14M58 23C55.3697 27.8105 49.9992 29.8216 46.6127 34.0903C38.8064 43.9298 39.4224 54.7565 42 66C43.1377 62.98 42.8085 60.6024 45 58L45 66C46.4801 62.4727 45.3769 58.5743 46.7423 55C48.5676 50.2218 53.9842 45.3269 58 42.3179C68.2057 34.6709 80.6987 44.485 88.1698 50.9969C91.2375 53.6708 96.8092 57.2838 96.4545 62C96.0185 67.7959 86.8963 71.1102 83.054 74.4637C79.1043 77.9111 77.4571 81.1236 72 82C75.2213 83.566 78.0341 83.7853 80 87C81.4804 86.5225 83.3861 84.8819 85 85.1667C90.1491 86.0753 88.5468 91.5752 87.8333 95C86.5828 101.002 81.956 103.405 76 101.833C73.0799 101.063 70.51 98.6036 68 97C65.7359 95.5535 62.1402 94.7908 60.3333 92.8333C57.4068 89.6629 54.6918 85.4602 51.8333 82C50.0914 79.8914 43.102 71.653 48 71C46.7517 70.3152 46.4515 70.2512 45 70L45 66L43 66C41.9458 73.9326 34.7742 87.6984 45 93C43.3162 93.2239 42.6865 93.2183 41 93C36.9854 96.8574 31.6439 98.9625 27 102C28.6593 102.406 29.2418 102.309 31 102C28.164 104.223 28.0114 103.968 25 103C20.3611 109.326 13.5914 113.187 11 121L14 120C15.4463 122.283 16.3105 122.582 19 123L17 127C24.2209 123.633 28.1056 116.481 34.0394 111.468C38.7521 107.487 44.2297 105.787 50 103.975C52.6536 103.142 56.0974 101.304 58.9421 101.929C62.819 102.781 64.8546 109.04 66.9298 112C71.0473 117.874 76.1755 122.568 80.7523 128.039C82.595 130.241 83.8408 133.095 86.25 134.76C98.6711 143.343 111.803 151.407 124 160.478C130.883 165.597 136.648 172.034 143.579 176.996C154.116 184.54 165.49 190.849 176 198.446C187.869 207.026 204.136 215.618 207.826 231C209.791 239.193 201.401 245.145 200 253C204.168 248.684 207.623 243.508 210 238C212.81 244.138 209.06 248.842 208 255C211.278 252.188 213.175 249.252 214 245L216 252C217.535 249.114 217.858 246.252 218 243C218.99 247.571 217.811 252.299 218.042 256.999C218.162 259.421 219.19 261.938 218 264C219.693 265.062 221.04 265.52 223 266C219.053 251.533 220.042 236.046 220 221C225.346 224.477 228.983 228.02 233 233C236.538 231.884 239.491 233.828 243.015 234.596C248.047 235.694 252.867 235.999 258 236C255.294 241.194 251.627 244.679 251.394 251C251.074 259.645 258.582 269.298 248 275C248 279.99 246.618 285.836 252 288L252 290C250.349 290.306 248.661 290.719 246.979 290.812C245.767 290.879 244.302 290.946 243.174 290.393C233.557 285.671 243.804 277.853 240 272C241.537 271.31 241.338 271.672 241 270C242.783 269.02 242.594 269.092 243 267C237.993 268.414 237.479 273.655 233 276L232 270C234.29 267.98 232.792 264.644 229.51 265.967C226.163 267.316 220.63 274.784 219 278L215 277C215.651 274.566 216.16 273.717 218 272C213.71 268.509 206.291 265.431 201 264C200.21 253.771 186.643 257.865 186 247C180.682 243.828 179.423 237.189 174 234C175.183 231.672 176.223 229.489 177 227C175.048 227.07 175.06 227.354 174 226C173.317 227.506 173.174 228.315 173 230L171 230C170.872 224.698 169.437 215.431 166.297 211.104C164.039 207.993 160.799 206.475 159 203C151.73 203.155 139.77 205.127 137 196L133 196L133 193L128 193C126.497 188.004 122.859 187.226 118 187L119 183C115.905 182.758 112.033 183.472 109.129 182.353C105.771 181.06 97.2675 172.838 97.4838 181.975C97.5145 183.272 97.8424 184.718 98 186L103 182C103.51 186.037 103.989 189.92 104 194C100.784 193.3 98.2319 193.427 95 194C95 188.116 96.0336 180.862 93.5764 175.34C92.503 172.927 90.2446 171.331 89 169C86.4157 170.615 84.0413 169.7 81 170.333C75.447 171.49 68.7637 174.354 63 172.833C59.1382 171.814 57.1086 168.432 53 168C53.8993 170.124 53.8764 170.101 56 171C50.5668 172.177 41.1456 172.107 36.1327 169.383C33.6599 168.04 32.3086 165.524 30 164C30.9585 168.045 33.4059 171.203 35 175C33.2875 175.078 31.6597 175.154 29.9761 175.515C19.4978 177.759 20.8931 185.241 22 194C23.3141 193.232 23.2321 193.314 24 192C27.29 198.484 30.5016 205.373 35.1489 211C38.9771 215.635 43.1756 219.943 47.0648 224.525C48.6887 226.439 51.4872 228.508 51.8866 231.129C52.2731 233.666 50.6783 236.598 50 239C47.2578 237.572 45.0885 237.092 42 237C41.9247 230.679 39.5474 226.993 33 226L34 222C31.3423 220.827 29.8764 220.596 27 221L28 216L24 216C24 217.797 24.0143 217.521 25 219C20.7619 219.908 23.1253 222.707 21.2778 225.778C19.2888 229.084 14.4875 230.282 11 231C12.1894 233.707 13.1773 235.066 16 236C14.2575 237.111 13.8807 237.27 13 239C16.5214 237.925 17.3203 236.661 17 233L21 234C21.4264 231.531 22.1324 229.355 23 227C23.4145 230.793 24.1301 233.649 26 237C26.6848 235.752 26.7488 235.452 27 234C28.809 234.745 31.7635 235.413 32.7145 237.341C33.5723 239.08 32.2427 241.268 32.2577 243.085C32.2754 245.224 33.1859 247.076 34 249C28.3685 253.437 35.8287 256.5 40 257C33.513 262.916 27.1137 264.423 19 267C21.6934 264.793 26.0079 264.797 28.3426 262.312C30.108 260.433 28.6166 258.034 28.2585 255.91C27.5148 251.501 29.0683 246.874 25 244C24.5865 249.24 23.1862 253.952 22 259C15.9762 257.378 12.4513 261.086 12 267C14.0758 266.809 15.9324 266.761 18 267L17 271C30.0504 270.431 38.2117 264.738 49 258.34C51.5144 256.849 55.0358 256.756 57.277 254.988C59.0402 253.597 59.7442 251.097 61.3025 249.463C64.3404 246.278 68.5808 244.333 70.2577 239.996C72.0288 235.415 70.6519 229.801 71.1736 225C71.8438 218.833 74.966 213.387 73.7253 207C72.8199 202.339 69.4298 198.517 68 194C72.7856 200.151 79.6702 203.509 84.8796 209.17C88.7713 213.398 91.4279 218.543 95.4252 222.714C107.426 235.234 120.734 246.595 132.91 258.965C147.45 273.734 158.164 289.456 180 293.532C191.653 295.708 200.344 289.555 211 287C209.524 297.032 204.294 309.688 216.086 316.022C218 317.05 219.903 317.55 222 318L221 314C222.942 316.56 222.965 318.808 223 322C226.88 312.754 221.469 304.719 219.857 295.996C219.186 292.363 220.684 288.625 221 285C219.578 286.788 219.303 287.706 219 290L218 288C216.022 293.368 218.258 297.745 218.871 303.039C219.336 307.057 218.501 311.036 218 315C211.767 308.617 208.579 302.025 211.878 293.039C213.081 289.763 215.276 287.491 216 284L219 285C220.372 284.082 221.435 283.606 223 283L222 291C224.963 286.59 227.099 281.232 228 276C228.721 280.876 226.103 285.098 226.079 290C226.022 301.673 226.632 313.519 229 325C224.966 323.95 221.773 321.647 218 320C225.31 329.895 237.091 328.246 247.985 327.071C251.594 326.682 254.516 325.013 258.015 324.34C262.118 323.549 266.049 323.913 270 322.201C277.104 319.122 283.761 314.802 291 311.919C295.054 310.304 299.786 310.284 304 308.975C312.481 306.339 320.318 302.389 328 298.001C335.723 293.59 348.561 290.092 353 282C356.647 283.261 359.387 285.927 363.015 287.236C369.715 289.654 377.979 289.532 385 288.829C395.805 287.749 408.071 280.844 418.985 283.843C421.797 284.616 423.668 286.705 426.166 288.035C430.087 290.123 435.004 290.472 438.742 292.922C448.793 299.512 457.492 309.421 469 313.68C475.594 316.12 485.355 318.811 491.96 315.235C502.185 309.701 507.943 291.265 504.272 280.439C502.386 274.877 495.6 270.017 495.977 264C496.124 261.658 497.07 259.162 497.926 257C499.192 253.8 500.771 249.982 503.39 247.649C509.286 242.396 520.631 242.484 528 240.407C532.836 239.043 538.913 235.032 544 235.604C548.76 236.14 551.097 240.279 554.745 242.683C557.547 244.528 561.764 244.399 565 245C562.327 251.108 565.439 254.566 568 260C570.567 259.839 573.292 258.827 575.83 258.95C580.125 259.158 583.363 261.511 587.996 260.786C595.377 259.633 601.33 249.982 607 260C608.377 259.951 609.644 261.043 610.833 260.833C614.184 260.242 617.897 256.589 621 255.167C626.771 252.522 634.049 249.723 640 248L640 186C640 177.607 642.029 166.206 639.682 158.143C638.669 154.663 634.842 154.304 632.129 152.657C625.646 148.722 624.659 143.963 616 146C619.809 148.718 623.892 149.177 627 153C623.449 154.039 623.248 156.53 623 160C613.965 148.618 606.763 143 592 143C594.205 138.456 597.956 134.502 599.853 129.91C603.845 120.245 599.78 111.282 595.413 103C593.8 99.9417 593.657 96.2326 591 94L592 98C589.567 93.8315 587.795 87.6573 583.787 84.7423C579.539 81.6531 574.494 83.271 573 88C567.155 88.02 563.463 90.6295 558 91.7222C549.616 93.3993 542.723 91.9388 535 96.9661C529.743 100.388 526.136 105.479 521.83 109.91C516.012 115.898 509.194 122.33 502.83 127.686C499.97 130.093 496.285 130.365 493 131.92C486.225 135.127 480.361 138.861 473 140.902C469.139 141.972 465.299 139.752 462 137.972C456.219 134.853 450.29 131.209 444 129.22C428.719 124.389 415.157 127.392 400 130C403.121 128.475 406.091 126.902 409 125C405.942 124.071 403.117 125.154 400 125.739C392.571 127.133 378.059 126.792 377 136C367.666 134.602 357.077 132.507 348 129.798C343.329 128.404 338.71 125.907 334 124.853C331.361 124.263 328.65 124.737 326 124.047C318.5 122.095 311.831 118.662 304 117.439C296.845 116.322 289.226 117 282 117C274.105 117 266.7 118.095 259 119.715C255.209 120.513 251.422 120.776 249 124C246.1 123.098 243.996 122.554 241 123C236.493 112.837 231.853 104.982 221.831 99.0347C218.903 97.2972 215.833 97.9253 213 96L216 95C210.35 87.1459 201.487 83.0907 194 77.3195C189.152 73.5824 185.169 68.8959 180 65.5479C160.194 52.7183 138.116 43.4927 119.83 28.439C113.393 23.1391 102.282 23.5446 98 16C84.6758 17.0883 71.2943 21.2098 58 23M181.333 22.6667C181.278 22.7222 181.222 23.7778 181.667 23.3333C181.722 23.2777 181.778 22.2223 181.333 22.6667M447.333 41.6667C447.278 41.7222 447.222 42.7778 447.667 42.3333C447.722 42.2778 447.778 41.2221 447.333 41.6667M394 44C397.504 47.1498 401.369 47.8916 406 48C402.655 44.853 398.482 44.3567 394 44M313 56L314 57L313 56M286.333 59.6667C286.278 59.7223 286.222 60.7777 286.667 60.3333C286.722 60.2778 286.778 59.2221 286.333 59.6667M453 66L453 69C453.696 67.4463 453.696 67.5537 453 66M50 72C52.1064 74.4153 54.3297 76.2244 57 78C55.3227 74.7234 53.4172 73.3366 50 72M511.333 75.6667C511.278 75.7223 511.222 76.7777 511.667 76.3333C511.722 76.2778 511.778 75.2222 511.333 75.6667M2 78C4.80646 79.1457 7.07133 78.6922 10 78C7.19355 76.8543 4.92865 77.3078 2 78z"/>
<path style="fill:#cdc8c1; stroke:none;" d="M189 77C189.902 78.9225 190.076 78.9988 192 80C191.101 77.8764 191.124 77.8993 189 77z"/>
<path style="fill:#40392f; stroke:none;" d="M66 81C67.506 81.683 68.3148 81.8259 70 82C68.4939 81.317 67.6852 81.1741 66 81z"/>
<path style="fill:#cdc8c1; stroke:none;" d="M577 88C579.332 88.9845 581.457 88.9813 584 89C581.514 87.3652 579.917 87.4453 577 88M48 88L46 93C47.3964 92.3387 47.8137 92.0356 49 91C50.2228 92.1952 50.42 92.3164 52 93C50.8964 90.6428 50.0436 89.6239 48 88z"/>
<path style="fill:#40392f; stroke:none;" d="M591.333 90.6667C591.278 90.7224 591.222 91.7778 591.667 91.3333C591.722 91.2779 591.778 90.2222 591.333 90.6667z"/>
<path style="fill:#cdc8c1; stroke:none;" d="M572 98L572 100C579.017 103.78 581.906 100.263 583 93C578.761 93.7714 575.77 96.0894 572 98M51 97C47.799 100.269 44.0134 99.5996 40.0394 101.483C33.7019 104.487 27.7066 110.608 25 117C29.3296 113.255 32.793 108.664 38 105.996C44.0039 102.92 51.2868 102.49 57 99C54.9868 97.7753 53.3415 97.3547 51 97M585 98C583.475 103.969 583.555 107.754 590 110C589.802 105.671 588.75 101.954 587 98L585 98M564 103C564.845 108.111 568.249 109.184 573 108L573 106C569.986 104.914 567.133 103.67 564 103M16 117C19.7138 114.414 23.1586 111.523 26 108C20.9963 109.486 17.4609 111.842 16 117M23 112C20.5196 114.553 18.4958 116.776 17 120C22.4079 120.703 24.8191 117.11 23 112M569 112C570.248 112.685 570.548 112.749 572 113C570.752 112.315 570.451 112.251 569 112M589.333 115.667C589.278 115.722 589.222 116.778 589.667 116.333C589.722 116.278 589.778 115.222 589.333 115.667z"/>
<path style="fill:#40392f; stroke:none;" d="M10 121C7.58721 126.922 1.642 145.226 10 148L12 157C15.5701 157 20.5376 165.982 23 169C29.5505 162.142 16.2753 153.312 13.5185 146.995C10.86 140.904 13.3799 135.938 15 130C11.4551 132.66 10.428 137.729 10 142L8 142C8 138.062 7.62541 133.902 8.21296 130C8.69149 126.822 10.5319 124.176 10 121z"/>
<path style="fill:#cdc8c1; stroke:none;" d="M578.333 126.667C578.278 126.722 578.222 127.778 578.667 127.333C578.722 127.278 578.778 126.222 578.333 126.667M544 128L545 129L544 128M415 129L415 131L418 131L418 129L415 129M581 129C581.71 131.944 582.427 133.392 585 135C584.29 132.056 583.573 130.608 581 129M431 130L432 131L431 130M568 130L570 134L576 132C568.486 137.5 580.017 143.222 584 136C578.449 132.91 574.542 130.073 568 130M437 131C439.573 135.205 443.876 134.46 448 136.441C455.443 140.017 460.935 150.391 470 148C468.371 143.832 464.917 142.491 461 140.637C453.45 137.061 445.306 132.245 437 131M268 137C273.821 135.614 279.203 137.22 284.91 136.532C289.843 135.937 293.716 134.001 299 134C293.887 131.054 280.916 132.417 275 133.389C271.683 133.934 268.771 133.403 268 137M411.667 133.333C411.222 133.778 412.278 133.722 412.333 133.667C412.778 133.222 411.722 133.278 411.667 133.333M563 144C565.837 143.493 567.752 142.799 570 141C566.499 140.484 565.259 141.294 563 144M480 141L478 145C480.249 143.846 480.846 143.249 482 141L480 141z"/>
<path style="fill:#40392f; stroke:none;" d="M2 143C3.22278 144.195 3.41999 144.316 5 145C3.77724 143.805 3.57999 143.684 2 143M31 144C33.9025 154.563 57.7185 164.569 60 149C54.1348 148.259 47.7235 148.845 42 147.61C38.1779 146.785 34.8852 144.693 31 144z"/>
<path style="fill:#cdc8c1; stroke:none;" d="M224 151C226.834 150.095 228.426 149.522 230 147C226.794 147.44 224.941 147.784 224 151M438 147C438.684 148.58 438.805 148.777 440 150L441 149L440 147L438 147M402 149C404.104 152.239 406.213 152.792 410 153C407.46 150.791 405.348 149.501 402 149M538 166L544 175C546.695 170.5 545.648 167.206 543 163C547.761 162.666 550.741 159.803 555 158C557.116 164.855 560.937 159.683 564.477 156.961C567.641 154.528 569.029 156.632 568.711 160.008C568.617 161.011 568.255 162.005 568.01 162.975C567.583 164.669 567.254 166.273 567 168C569.558 169.415 571.66 171.251 574 173C573.536 169.405 572.232 165.633 572.38 162C572.557 157.623 574.638 153.432 575 149C558.808 149 549.007 154.161 538 166M265 150L265 154C267.689 153.582 268.554 153.283 270 151L265 150M272 151C275.778 153.877 282.332 154.726 287 156C284.048 151.175 277.231 151.108 272 151M578 151C578 155.569 578.675 158.558 583 160L584 158L584 160C585.079 156.567 583.216 154.619 581 152C587.314 155.299 587.995 159.297 588 166C590.547 161.963 591.403 157.691 592 153C587.271 152.363 582.804 151.1 578 151M546 152C540.507 155.126 533.562 155.77 533 163C535.744 161.934 546.918 154.275 546 152M506 154L506 157L509 157L509 154L506 154z"/>
<path style="fill:#40392f; stroke:none;" d="M36 155C37.2737 161.583 41.6281 166.832 48 169C44.3867 164.162 41.5045 157.707 36 155z"/>
<path style="fill:#cdc8c1; stroke:none;" d="M264 159C264.406 161.092 264.217 161.02 266 162C265.316 160.42 265.195 160.223 264 159M267 159C267.375 162.173 267.615 164.849 267 168C265.365 167.455 265.545 167.635 265 166C263.493 169.635 265.007 172.284 265.36 176C265.686 179.424 264.186 182.53 264.968 186C266.275 191.796 270.67 196.203 272 202C270.406 200.703 269.982 200.465 268 200C270.065 205.13 273.604 208.589 279 210L279 205C282.057 206.185 283.904 207.482 286 210L288 210C290.455 205.3 294.745 202.169 297.367 197.572C299.157 194.432 300.093 190.284 304.044 189.153C306.78 188.369 309.518 190.052 312 191C314.796 188.119 318.423 187.926 320 184L323 192L326 192C326.851 189.327 327.59 186.775 328 184C335.659 184.09 341.713 187.971 345 195C341.535 194.972 339.099 193.442 336 192C335.206 196.02 334.732 198.949 331 201L331 204L336 205L338 197C343.635 199.021 346.11 204.318 347 210C352.008 208.634 356.756 206.475 362 206.09C378.05 204.913 395.325 211.09 411 214L409 205L405 205C405.062 202.398 401.756 200.298 400 198C397.758 201.241 395.733 202.681 392 204C389.715 196.995 387.519 192.818 380 191C374.346 198.834 364.02 202.422 355 205C355.545 203.365 355.365 203.545 357 203C357.37 200.007 358.684 198.908 361 197C358.746 193.393 358.071 188.142 356 184C355.493 186.08 355.763 187.838 356 190C348.407 189.491 340.783 183.624 334 180.241C321.337 173.925 308.401 171.219 295 166.971C287.225 164.507 281.33 161.018 273 163C271.715 159.795 270.398 159.268 267 159M506 163C508.052 163.874 509.747 163.953 512 164L512 162C509.795 162.094 508.106 162.356 506 163M583 162C582.792 165.2 581.724 167.918 581 171C583.964 168.744 584.378 165.38 583 162M555.333 164.667C555.278 164.722 555.222 165.778 555.667 165.333C555.722 165.278 555.778 164.222 555.333 164.667M437 168C438.248 168.685 438.548 168.749 440 169C438.752 168.315 438.452 168.251 437 168z"/>
<path style="fill:#40392f; stroke:none;" d="M0 183C4.57386 180.406 6.96317 174.727 9 170C2.37983 172.335 1.2588 176.531 0 183M12.3333 170.667C12.2778 170.722 12.2222 171.778 12.6667 171.333C12.7222 171.278 12.7777 170.222 12.3333 170.667z"/>
<path style="fill:#cdc8c1; stroke:none;" d="M586 171L586 174L588 174L588 171L586 171M365 172L366 175C358.37 175.609 359.961 182.507 364 187C362.14 189.3 361.463 191.077 361 194C364.102 193.052 364.866 192.251 365 189C369.141 191.594 371.441 191.913 376 190C374.124 188.653 371.469 187.416 370.861 184.982C369.527 179.643 372.613 173.661 365 172M533 172C526.244 183.223 521.093 195.628 528 208L524 207C525.413 211.907 527.525 217.263 532 220L527 210C530.149 207.248 528.533 202.989 528.88 199.17C529.312 194.416 529.954 187.622 531.562 183.174C533.249 178.508 536.154 177.421 535 172L533 172M557 172C557.787 175.691 561.517 176.459 565 177C562.635 174.496 560.342 172.878 557 172M577 172L577 174L579 174L579 172L577 172z"/>
<path style="fill:#40392f; stroke:none;" d="M13 174C12.5493 178.745 9.24889 181.061 7 185C11.9053 182.841 17.3892 179.375 13 174z"/>
<path style="fill:#cdc8c1; stroke:none;" d="M506 175C507.809 175.574 508.069 175.465 510 175C508.191 174.426 507.931 174.535 506 175M577 175C579.3 178.059 581.91 180.273 583 184L589 185C586.608 179.69 582.649 176.454 577 175M596 181C597.656 179.314 598.251 178.254 599 176C596.393 177.439 595.918 178.038 596 181z"/>
<path style="fill:#40392f; stroke:none;" d="M272 177C271.656 179.873 271.385 182.175 272 185C274.351 182.494 274.816 180.412 275 177L272 177z"/>
<path style="fill:#cdc8c1; stroke:none;" d="M558 178C556.404 183.09 555.959 186.163 561 189C558.579 188.758 557.192 188.151 555 187C555.5 190.956 556.487 195.021 555.606 199C554.663 203.264 552.298 206.522 552 211C550.051 210.064 549.45 209.608 548 208L544 210L545 215C549.819 213.895 554.001 212.48 559 213C563.281 205.631 563.799 197.361 568 190C566.199 189.438 564.878 189.176 563 189C568.77 185.944 572.761 186.698 579 187C577.084 183.588 573.07 180.014 569 179.418C565.206 178.863 562.546 181.647 560 178L558 178M48 179C50.2425 182.281 52.0053 184.331 56 185C54.0577 181.656 51.7148 180.015 48 179M57 181C59.2801 185.446 64.5254 188.993 69 191C66.7534 186.428 61.8995 182.445 57 181M400.667 182.333C400.222 182.778 401.278 182.722 401.333 182.667C401.778 182.222 400.722 182.278 400.667 182.333M469 188C470.58 187.316 470.777 187.195 472 186C469.908 186.406 469.98 186.217 469 188M544 187C541.883 190.409 538.898 195.632 539.907 199.83C540.617 202.781 542.536 204.872 543 208L545 208C545.059 200.834 546.423 193.951 544 187M23 188L23 191C23.6961 189.446 23.6961 189.554 23 188M476 203C474.244 201.573 473.175 200.585 471 200L475 207C484.647 204.145 492.736 195.127 503.91 196.353C510.356 197.061 516.395 201.158 522 204C521.138 199.375 520.37 194.689 520 190C513.369 191.094 506.229 187.238 500 188.759C495.272 189.914 492.599 194.943 488 196.36C483.389 197.782 477.707 193.049 476.148 199.86C475.936 200.785 476.029 202.112 476 203M580 188C576.303 191.821 574.175 194.598 574 200C576.461 200.049 578.601 200.434 581 201L581 194C584.344 199.458 583.772 203.894 583 210C588.005 205.584 587.822 198.253 589 192C586.99 190.739 585.222 189.81 583 189L585 194L580 188z"/>
<path style="fill:#40392f; stroke:none;" d="M577 194L578 195L577 194M19 200C17.774 203.594 15.9618 206.672 11.9961 207.682C8.63039 208.539 5.44339 207.204 3 210L7 209C6.68434 213.771 -1.48968 220.815 2 224L1 221C9.96519 217.996 17.2222 216.83 24 210L24 205C22.1501 205.202 20.8499 205.202 19 205C20.6322 203.074 20.9659 202.489 21 200L19 200z"/>
<path style="fill:#cdc8c1; stroke:none;" d="M494 201L494 203L500 203L500 201L494 201z"/>
<path style="fill:#40392f; stroke:none;" d="M0 202C2.72731 204.036 4.72644 203.746 8 203C5.38729 201.902 2.83549 202.007 0 202z"/>
<path style="fill:#cdc8c1; stroke:none;" d="M97 202C96.8449 206.737 95.8172 208.995 91 210C94.354 212.443 98.0194 211.17 102 211L102 215L95 214C98.5858 219.076 103.018 223.09 109 225C110.152 219.971 107.72 216.771 107.804 212C107.869 208.331 109.656 205.822 109 202C105.959 203.603 104.253 204.768 103 208C101.48 204.726 100.509 203.059 97 202M576 203C575.014 204.479 575 204.203 575 206C576.766 205.021 576.955 204.778 576 203M480 211C486.393 214.829 499.866 214.699 507 213C505.494 212.317 504.685 212.174 503 212C502.657 209.194 501.845 206.695 501 204C493.568 205.704 486.831 207.678 480 211M516 204C517.686 205.656 518.746 206.251 521 207C519.535 204.878 518.543 204.526 516 204M506 214C510.637 216.682 513.865 218.391 515 224C509.809 223.228 507.379 221.38 502 223L504 217C499.872 217.997 492.42 220.24 489.618 223.572C487.437 226.165 488.184 232.801 492.143 233.353C496.706 233.989 498.428 228.585 502.058 227.008C505.467 225.527 509.399 226.18 513 225.711C518.111 225.045 523.059 223.402 528 222C526.577 217.153 523.787 213.049 523 208C517.259 209.839 511.582 211.722 506 214M337 234C340.106 231.827 341.678 228.509 343 225C344.674 226.411 345.969 227.175 348 228C345.296 238.451 342.737 252.639 347.005 263C350.635 271.814 360.311 278.814 369 282C369.472 280.584 369.814 280.186 371 279C364.824 271.272 355.643 264.269 359.836 253.09C361.513 248.618 367.64 244.747 367.901 239.996C368.211 234.347 359.528 223.788 354 224C354.462 218.871 356.177 215.451 360 212C347.858 208.408 340.252 225.067 337 234M580 211L580 213L582 213L582 211L580 211M368 216C376.873 223.327 398.746 229.803 407 219C392.829 217.843 382.06 210.272 368 216M418 214L418 219L422 219C420.906 216.643 420.165 215.401 418 214M438 214L438 218C438.71 216.24 438.71 215.759 438 214M478 214L479 221C480.689 218.148 480.08 216.495 478 214M473 215C472.999 220.082 472.398 224.955 472 230C477.273 226.733 474.423 220.495 475 215L473 215M360 220C361.054 224.057 363.281 226.846 366 230C368.075 228.83 369.637 228.308 372 228C369.92 224.205 368.01 221.307 367 217L360 220M482 218C482.211 220.739 482.303 221.422 485 222C484.316 219.791 483.92 219.297 482 218M566 220C567.769 220.779 569.036 220.912 571 221C569.231 220.221 567.964 220.088 566 220z"/>
<path style="fill:#40392f; stroke:none;" d="M3.66667 221.333C3.22221 221.778 4.27776 221.722 4.33333 221.667C4.77778 221.222 3.72223 221.278 3.66667 221.333z"/>
<path style="fill:#cdc8c1; stroke:none;" d="M445 223C444.221 226.282 444.284 229.624 444 233C448.835 232.016 451.224 229.544 453 225C450.362 224.103 447.738 223.531 445 223M110 225C111.255 229.473 115.424 233.233 120 234C120.669 240.015 124.178 243.652 129 247C132.963 238.581 119.909 236.4 122 228C117.667 227.677 114.267 225.131 110 225M59 230C61.1236 229.101 61.1007 229.124 62 227C59.8764 227.899 59.8993 227.876 59 230M418 228C418.674 230.297 418.965 230.774 421 232C420.224 229.868 419.87 229.229 418 228M435 230C432 235.944 436.474 243.229 436 250C442.043 250.071 445.44 252.196 450 256C441.767 258.149 434.518 265.588 433 274C429.807 273.489 427.909 273.559 425 275L425 277C428.252 280.089 429.242 284.18 434 285C434.148 282.784 434.437 281.608 433 280C437.264 279.75 440.147 282.383 444 284C444.164 278.183 448.079 277.333 450.914 272.896C455.611 265.546 452.928 255.608 464 255C461.034 249.752 456.403 248.412 455 242C450.677 242.633 448.43 245.528 445 248C444.276 243.507 443.845 239.568 444 235C440.217 234.237 437.904 232.477 435 230M487.333 230.667C487.278 230.722 487.222 231.778 487.667 231.333C487.722 231.278 487.778 230.222 487.333 230.667M388 233L392 232C389.954 231.249 389.404 231.344 388 233M546 233L546 235L548 235C547.455 233.365 547.635 233.545 546 233M58 234L55 240C58.6779 238.959 60.3469 237.436 62 234L58 234z"/>
<path style="fill:#40392f; stroke:none;" d="M12 250L8 250C8.84284 251.769 9.5409 252.688 11 254L11 252C12.5944 253.296 13.0183 253.535 15 254C16.9895 250.548 19.5217 248.877 23 247C22.3413 244.391 21.3127 242.36 20 240C15.4935 242.121 12.9893 245.097 12 250z"/>
<path style="fill:#cdc8c1; stroke:none;" d="M579 240L579 244C581.97 243.612 583.738 242.963 586 241C583.582 240.278 581.528 240.052 579 240M573.667 242.333C573.222 242.778 574.278 242.722 574.333 242.667C574.778 242.222 573.722 242.278 573.667 242.333M371 244C372.248 244.685 372.548 244.749 374 245C372.752 244.315 372.452 244.251 371 244M47 246C47.8993 248.124 47.8764 248.101 50 249C49.5176 246.636 49.364 246.482 47 246M574 252C579.259 251.476 584.455 250.032 588 246C584.049 246.347 580.682 247.582 577 249C578.186 247.814 578.528 247.416 579 246C575.205 246.827 574.304 248.171 574 252M379 253C379.768 254.314 379.686 254.232 381 255C379.521 255.986 379.797 256 378 256C380.495 259.473 380.726 261.831 380 266L384 266L383 268C386.911 267.348 387.7 265.864 388 262L383 264C383.488 262.314 383.613 255.071 385 258C385.589 255.63 384.955 254.293 384 252L379 253z"/>
<path style="fill:#40392f; stroke:none;" d="M199.333 253.667C199.278 253.722 199.222 254.778 199.667 254.333C199.722 254.278 199.778 253.222 199.333 253.667z"/>
<path style="fill:#cdc8c1; stroke:none;" d="M363 256L364 260C364.553 257.992 364.303 257.668 363 256M373.333 256.667C373.278 256.722 373.222 257.778 373.667 257.333C373.722 257.278 373.778 256.222 373.333 256.667M588.667 256.333C588.222 256.778 589.278 256.722 589.333 256.667C589.778 256.222 588.722 256.278 588.667 256.333z"/>
<path style="fill:#40392f; stroke:none;" d="M48 272C56.414 270.062 55.9318 265.373 55 258C47.9698 259.5 48.0169 265.869 48 272z"/>
<path style="fill:#cdc8c1; stroke:none;" d="M361.333 260.667C361.278 260.722 361.222 261.778 361.667 261.333C361.722 261.278 361.778 260.222 361.333 260.667M374 260C374.406 262.092 374.217 262.02 376 263C375.316 261.42 375.195 261.223 374 260M475 261C475.669 262.484 476.519 263.838 477.206 265.31C478.383 267.831 478.827 273.061 474.444 271.718C469.881 270.32 468.055 265.737 463 265C461.952 275.452 456.728 281.721 448 287C450.494 287.907 453.32 287.251 455.7 288.6C460.682 291.423 461.969 296.818 465.417 300.871C470.158 306.442 478.223 311.449 485 314C483.78 310.736 483.631 306.778 480 306C482.227 299.25 485.359 292.443 485.59 285.09C485.853 276.664 482.863 269.102 485 261C481.618 261.282 478.383 261.197 475 261M366 264C366.211 266.739 366.303 267.422 369 268C368.064 266.051 367.608 265.45 366 264M375 267L376 268C377.195 266.777 377.316 266.58 378 265C376.42 265.684 376.223 265.805 375 267z"/>
<path style="fill:#40392f; stroke:none;" d="M245 270L246 275C247.062 273.307 247.52 271.96 248 270L245 270z"/>
<path style="fill:#cdc8c1; stroke:none;" d="M368 271C370.793 276.206 375.217 278.297 378 272C374.38 272.292 371.487 272.034 368 271z"/>
<path style="fill:#40392f; stroke:none;" d="M2 276C4.04156 277.416 5.51099 277.745 8 278C5.95844 276.584 4.48902 276.255 2 276z"/>
<path style="fill:#cdc8c1; stroke:none;" d="M376 280L377 281L376 280M229 282L229 288C229.951 285.715 229.951 284.285 229 282M440 284L439 288C441.543 287.474 442.535 287.122 444 285L440 284M265 285L265 287L267 287L267 285L265 285M268 287L269 288L268 287M228.333 289.667C228.278 289.722 228.222 290.778 228.667 290.333C228.722 290.278 228.778 289.222 228.333 289.667M452 291C453.613 294.2 455.695 295.687 459 297C457.147 293.648 455.873 291.663 452 291M234 293L233 298C235.122 296.535 235.474 295.543 236 293L234 293M228 299L228 302C229.195 300.777 229.316 300.58 230 299L228 299M233 303L231 307L235 308L235 303L233 303M268 307C271.41 306.737 272.901 306.321 274 303C271.259 303.931 269.896 304.819 268 307M248 304L249 305L248 304M243 308L243 311L257 311C252.466 305.986 249.058 307.402 243 308M229 308L229 312C230.081 310.542 230.436 309.752 231 308L229 308M240 309L241 310L240 309M235.667 323.333C235.222 323.778 236.278 323.722 236.333 323.667C236.778 323.222 235.722 323.278 235.667 323.333z"/>
<path style="fill:#40392f; stroke:none;" d="M6 346C4.52149 346.986 4.79681 347 3 347C4.52245 347.855 6.94475 348.288 6 346M592.333 364.667C592.278 364.722 592.222 365.778 592.667 365.333C592.722 365.278 592.778 364.222 592.333 364.667M249 426C250.769 426.779 252.036 426.912 254 427C252.231 426.221 250.964 426.088 249 426z"/>
</svg>
